<svg xmlns="http://www.w3.org/2000/svg">
<defs>
<font id="Neon-BoldOutline" horiz-adv-x="872" >
  <font-face 
    font-family="Neon Bold Outline"
    font-weight="700"
    font-stretch="normal"
    units-per-em="1000"
    panose-1="0 0 8 0 0 0 0 0 0 0"
    ascent="800"
    descent="-200"
    x-height="725"
    cap-height="725"
    bbox="-304.667 -301 1129.29 973"
    underline-thickness="50"
    underline-position="-200"
    unicode-range="U+000D-2212"
  />
<missing-glyph horiz-adv-x="581" 
d="M83 682h416v-664h-416v664zM467 46v604h-353v-604h353zM203 166h-34l103 222l-103 222h34l90 -191l86 191h34l-101 -222l101 -222h-34l-86 191zM395 106q-2 -1 -2 -6q0 -3 2 -5q1 -2 6 -2q4 0 7 2l2 -2q-3 -6 -9 -6q-2 0 -5.5 1t-4.5 1q-2 2 -2.5 5.5t-1.5 4.5q-2 5 3 10
q4 4 11 4q5 0 9 -4l-2 -3l-2 1q-1 0 -1 1t-4 1q-4 -1 -6 -3zM149 98v-10h-8v24h20v-3h-12v-8h9v-3h-9zM178 88q-9 2 -9 11q0 8 4 10q3 3 9 3q9 0 14 -5q2 -10 1 -12q-1 -6 -10 -8l-5 -1q-2 0 -4 2zM227 96v16h5v-24h-1q-1 -1 -2 -1l-1 1q-2 1 -3 1l-1 2q-1 2 -2 2l-2 4
q-1 2 -4 3l-1 2v-14h-6v24h5l1 -1q1 -1 2 -1l2 -3q2 -3 3 -5q4 -4 5 -6zM244 109v3h21v-3h-8v-21h-5v21h-8zM293 100l1 -2q2 -2 2 -4q0 -5 1 -6h-6v1l-1 1q0 1 -1 3h-11q-1 0 -1 -4q-1 0 -2 -1h-5l11 24h6q0 -4 2 -5q4 -6 4 -7zM323 100q4 0 4 -5q3 -5 -4 -7q0 -1 -5 -1
q-3 0 -12 3q2 1 2 3v2l9 -2h3h1q0 5 -6 6q0 -1 -1 0q0 1 -2 1q-4 0 -4 6q0 4 3 6h6q9 0 10 -1l-1 -4h-3l-2 1q-1 0 -1 1h-3q-3 0 -3 -2t3 -5q2 0 6 -2zM337 109v3h22v-3h-9v-21h-6v21h-7zM368 88v24h7v-24h-7zM427 93l-2 -5h-6q7 10 10 24h7l5 -12l3 -6q1 -3 4 -6h-7l-2 5
h-12zM176 103q-2 -3 0 -5q0 -7 6 -7q3 0 3 2q6 0 6 7q0 5 -3 7q0 2 -6 2q0 -1 -2 -1l-1 -2zM279 98q8 0 8 2l-2 1v4q-1 0 -1 1t-1 1zM432 107l-4 -9q8 0 8 2v1v2q0 2 -1 2t-2 1z" />
    <glyph glyph-name=".notdef" horiz-adv-x="581" 
d="M83 682h416v-664h-416v664zM467 46v604h-353v-604h353zM203 166h-34l103 222l-103 222h34l90 -191l86 191h34l-101 -222l101 -222h-34l-86 191zM395 106q-2 -1 -2 -6q0 -3 2 -5q1 -2 6 -2q4 0 7 2l2 -2q-3 -6 -9 -6q-2 0 -5.5 1t-4.5 1q-2 2 -2.5 5.5t-1.5 4.5q-2 5 3 10
q4 4 11 4q5 0 9 -4l-2 -3l-2 1q-1 0 -1 1t-4 1q-4 -1 -6 -3zM149 98v-10h-8v24h20v-3h-12v-8h9v-3h-9zM178 88q-9 2 -9 11q0 8 4 10q3 3 9 3q9 0 14 -5q2 -10 1 -12q-1 -6 -10 -8l-5 -1q-2 0 -4 2zM227 96v16h5v-24h-1q-1 -1 -2 -1l-1 1q-2 1 -3 1l-1 2q-1 2 -2 2l-2 4
q-1 2 -4 3l-1 2v-14h-6v24h5l1 -1q1 -1 2 -1l2 -3q2 -3 3 -5q4 -4 5 -6zM244 109v3h21v-3h-8v-21h-5v21h-8zM293 100l1 -2q2 -2 2 -4q0 -5 1 -6h-6v1l-1 1q0 1 -1 3h-11q-1 0 -1 -4q-1 0 -2 -1h-5l11 24h6q0 -4 2 -5q4 -6 4 -7zM323 100q4 0 4 -5q3 -5 -4 -7q0 -1 -5 -1
q-3 0 -12 3q2 1 2 3v2l9 -2h3h1q0 5 -6 6q0 -1 -1 0q0 1 -2 1q-4 0 -4 6q0 4 3 6h6q9 0 10 -1l-1 -4h-3l-2 1q-1 0 -1 1h-3q-3 0 -3 -2t3 -5q2 0 6 -2zM337 109v3h22v-3h-9v-21h-6v21h-7zM368 88v24h7v-24h-7zM427 93l-2 -5h-6q7 10 10 24h7l5 -12l3 -6q1 -3 4 -6h-7l-2 5
h-12zM176 103q-2 -3 0 -5q0 -7 6 -7q3 0 3 2q6 0 6 7q0 5 -3 7q0 2 -6 2q0 -1 -2 -1l-1 -2zM279 98q8 0 8 2l-2 1v4q-1 0 -1 1t-1 1zM432 107l-4 -9q8 0 8 2v1v2q0 2 -1 2t-2 1z" />
    <glyph glyph-name="uni0000" horiz-adv-x="0" 
 />
    <glyph glyph-name="nonmarkingreturn" horiz-adv-x="333" 
 />
    <glyph glyph-name="CR" unicode="&#xd;" horiz-adv-x="90" 
 />
    <glyph glyph-name="space" unicode=" " horiz-adv-x="483" 
 />
    <glyph glyph-name="exclam" unicode="!" horiz-adv-x="263" 
d="M75 687l8 -500q0 -6 4.5 -10.5t10.5 -4.5h72q6 0 10.5 4.5t4.5 10.5l6 500q0 6 -4.5 10.5t-10.5 4.5h-86q-6 0 -10.5 -4.5t-4.5 -10.5zM98 187l-8 500h86l-6 -500h-72zM68 104v-104q0 -6 4.5 -10.5t10.5 -4.5h97q6 0 10.5 4.5t4.5 10.5v104q0 6 -4.5 10.5t-10.5 4.5h-97
q-6 0 -10.5 -4.5t-4.5 -10.5zM83 0v104h97v-104h-97z" />
    <glyph glyph-name="quotedbl" unicode="&#x22;" horiz-adv-x="443" 
d="M107 702l-39 -360q-1 -7 3.5 -12t11.5 -5h72q13 0 15 13l49 360q1 7 -3.5 12t-11.5 5h-82q-5 0 -9.5 -4t-5.5 -9zM263 702l-39 -360q-1 -7 3.5 -12t11.5 -5h72q13 0 15 13l50 360q1 7 -3.5 12t-11.5 5h-83q-5 0 -9.5 -4t-5.5 -9zM83 340l39 360h82l-49 -360h-72zM239 340
l39 360h83l-50 -360h-72z" />
    <glyph glyph-name="numbersign" unicode="#" horiz-adv-x="923" 
d="M280 409l-33 -131h-164q-6 0 -10.5 -4.5t-4.5 -10.5v-78q0 -6 4.5 -10.5t10.5 -4.5h137l-41 -166q-3 -19 15 -19h78q11 0 15 11l43 174h176l-42 -166q-3 -19 15 -19h78q11 0 15 11l44 174h197q6 0 10.5 4.5t4.5 10.5v78q0 6 -4.5 10.5t-10.5 4.5h-171l34 131h164
q6 0 10.5 4.5t4.5 10.5v78q0 6 -4.5 10.5t-10.5 4.5h-137l43 164q3 19 -15 19h-81q-11 0 -15 -11l-43 -172h-175l42 164q3 19 -15 19h-80q-11 0 -15 -11l-43 -172h-196q-6 0 -10.5 -4.5t-4.5 -10.5v-78q0 -6 4.5 -10.5t10.5 -4.5h170zM259 263l40 161h-189v78h208l46 183h80
l-46 -183h206l46 183h81l-47 -183h156v-78h-176l-41 -161h190v-78h-209l-47 -185h-78l46 185h-207l-46 -185h-78l45 185h-156v78h176zM338 263h207l39 161h-206zM533 278h-176l33 131h175z" />
    <glyph glyph-name="dollar" unicode="$" horiz-adv-x="787" 
d="M77 146q7 -37 28 -63.5t45.5 -40.5t61 -22t62.5 -10t61 -2v-112q0 -6 4.5 -10.5t10.5 -4.5h82q6 0 10.5 4.5t4.5 10.5v112q43 0 74 3t71 13.5t65.5 29t43.5 53.5t18 84v31q0 15 -3 32q-6 33 -21 58t-38.5 40t-47 25t-55 14t-54.5 5.5t-53 1.5v176h6q66 0 97 -8
q49 -15 56 -52q2 -9 2 -28v-31q0 -6 4.5 -10.5t10.5 -4.5h75q6 0 10.5 4.5t4.5 10.5v42q0 23 -3 45q-7 37 -28.5 63.5t-47 40.5t-62.5 22t-63.5 10t-61.5 2v124q0 6 -4.5 10.5t-10.5 4.5h-82q-6 0 -10.5 -4.5t-4.5 -10.5v-124q-42 0 -73.5 -3t-70.5 -13.5t-63.5 -29.5
t-42 -54t-17.5 -83v-31q0 -1 1 -13t2 -19q7 -39 28 -67t46 -42.5t62 -22.5t64 -10t64 -2v-176q-49 0 -75 4q-51 6 -69 30q-10 15 -12 38v47q0 6 -4.5 10.5t-10.5 4.5h-76q-6 0 -10.5 -4.5t-4.5 -10.5v-42q0 -25 4 -45zM350 23h-15q-48 0 -79.5 3t-72 19t-64.5 46
q-23 27 -27 58q-4 17 -4 49v35h76v-33q0 -40 15 -61q28 -40 154 -40h17v206h-18q-36 0 -63 2t-60.5 10t-56 21.5t-41.5 38.5t-25 60q-3 16 -3 50v10q0 46 17 78.5t40.5 49.5t63 26.5t70.5 11.5t76 2v139h82v-139h14q44 0 77.5 -4t72.5 -15.5t64.5 -38.5t34.5 -68
q3 -18 3 -51v-33h-75v31q0 20 -2 31q-4 24 -20.5 40t-44.5 22t-49.5 8t-53.5 2q-3 0 -10 -0.5t-11 -0.5v-205h21q45 0 79.5 -4t72.5 -16.5t63 -40.5t33 -71q3 -16 3 -49v-11q0 -46 -17.5 -78.5t-42 -49.5t-65 -26.5t-71 -11.5t-76.5 -2v-127h-82v127zM350 588h-35
q-30 0 -51 -2t-45.5 -8.5t-39 -21.5t-18.5 -39q-2 -11 -2 -32v-11q0 -22 6.5 -38.5t21.5 -26t28 -15t37.5 -8t39 -3t42.5 -0.5h16v205zM315 573h20v-175h-44q-35 2 -59 7q-58 15 -58 69v21q0 7 2 19q7 38 50 51q27 8 89 8zM432 99h28q33 0 54 1.5t48.5 8t43.5 22t20 39.5
q2 11 2 31v12q0 22 -6.5 38.5t-21.5 26.5t-29 15.5t-38.5 8t-39 3t-42.5 0.5h-19v-206zM460 114h-13v176h14h16.5h14.5q43 -2 61 -7q60 -15 60 -70v-21q0 -7 -2 -19q-7 -38 -56 -51q-20 -5 -48 -7q-17 -1 -47 -1z" />
    <glyph glyph-name="percent" unicode="%" horiz-adv-x="1142" 
d="M68 512q0 -204 233 -204q234 0 234 204q0 202 -234 202q-233 0 -233 -202zM860 697l-709 -686q-10 -9 -6.5 -17.5t16.5 -8.5h111q6 0 10 4l709 686q10 9 6.5 17.5t-16.5 8.5h-111q-6 0 -10 -4zM301 323q-107 0 -162.5 44.5t-55.5 144.5q0 99 56 143t162 44
q219 0 219 -187q0 -189 -219 -189zM161 0l709 686h111l-709 -686h-111zM301 401q75 0 108 22.5t33 88.5q0 65 -33.5 87.5t-107.5 22.5t-108 -23t-34 -87q0 -66 33.5 -88.5t108.5 -22.5zM427 512q0 -59 -28.5 -77.5t-97.5 -18.5t-98 18.5t-29 77.5q0 58 29.5 76.5t97.5 18.5
q67 0 96.5 -18.5t29.5 -76.5zM608 174q0 -203 233 -203q234 0 234 203t-234 203q-233 0 -233 -203zM841 -14q-218 0 -218 188q0 100 55.5 144t162.5 44q219 0 219 -188t-219 -188zM841 65q74 0 107.5 22t33.5 87t-33 87.5t-108 22.5t-108.5 -22.5t-33.5 -87.5t34 -87
t108 -22zM967 174q0 -58 -28.5 -76t-97.5 -18q-68 0 -97.5 18t-29.5 76t29.5 76.5t97.5 18.5t97 -18.5t29 -76.5z" />
    <glyph glyph-name="ampersand" unicode="&#x26;" horiz-adv-x="800" 
d="M552 110l97 -94q10 -10 20 0l58 53q11 11 1 22l-115 113q21 43 34 105l2 7q2 8 -2.5 13.5t-11.5 5.5q-70 3 -86 -11l-3 -7q-2 -5 -8 -19q-1 -2 -2 -4.5t-2.5 -5.5t-2.5 -4q-92 88 -164 162q107 81 107 154q0 59 -50.5 95t-106.5 36q-63 0 -110.5 -40t-47.5 -104
q0 -57 51 -126q-142 -126 -142 -246q0 -96 74 -161.5t169 -65.5q65 0 128 34.5t113 87.5zM659 27l-108 105q-48 -55 -111.5 -92t-128.5 -37q-106 0 -172 75q-56 63 -56 137q0 115 147 244q-56 75 -56 128q0 56 41.5 92.5t101.5 36.5q71 0 116 -51q26 -31 26 -65
q0 -43 -43 -90q-30 -33 -72 -62q63 -66 192 -190q3 7 8.5 19.5t10 22.5t8.5 18l1 5l70 -3l-2 -8q-7 -51 -37 -111l122 -121zM257 588q0 -30 36 -80q1 1 19 16q13 9 30 26q33 31 33 53q0 16 -18.5 27t-39.5 11q-26 0 -43 -14.5t-17 -38.5zM296 529q-24 37 -24 59
q0 17 12.5 27.5t32.5 10.5q14 0 30 -8q13 -6 13 -15q0 -12 -28 -42q-21 -21 -36 -32zM347 83q87 26 147 106q-24 23 -72 71q-25 25 -75 71q-41 39 -67 69q-112 -96 -112 -186q0 -56 42.5 -96.5t100.5 -40.5q18 0 36 6zM411 249l63 -61q-33 -39 -78.5 -67.5t-84.5 -28.5
q-52 0 -90 36t-38 86q0 79 96 165q10 -11 60 -61q8 -8 23 -21.5t27 -25t22 -22.5z" />
    <glyph glyph-name="quotesingle" unicode="'" horiz-adv-x="287" 
d="M107 702l-39 -360q-1 -7 3.5 -12t11.5 -5h72q13 0 15 13l49 360q1 7 -3.5 12t-11.5 5h-82q-5 0 -9.5 -4t-5.5 -9zM83 340l39 360h82l-49 -360h-72z" />
    <glyph glyph-name="parenleft" unicode="(" horiz-adv-x="457" 
d="M374 789h-66l-5 -1l-3 -1l-3 -1q-107 -70 -168 -191.5t-61 -252.5q0 -218 147 -372q24 -24 41 -39q10 -10 24 -22q15 -11 22 -13l5 -1h67q6 0 10.5 4.5t4.5 10.5v44q0 6 -7 13q-94 59 -150 161.5t-56 213.5t54.5 210.5t148.5 162.5l10 14v45q0 6 -4.5 10.5t-10.5 4.5z
M305 773l3 1h66v-45l-3 -1q-99 -67 -154.5 -169.5t-55.5 -216.5t55.5 -216.5t154.5 -169.5l3 -2v-44h-67l-2 1q-35 23 -79 69q-143 149 -143 362q0 126 58.5 244t163.5 187z" />
    <glyph glyph-name="parenright" unicode=")" horiz-adv-x="456" 
d="M149 789h-66q-6 0 -10.5 -4.5t-4.5 -10.5q0 -45 10 -58q93 -62 147.5 -162.5t54.5 -211.5q0 -112 -55.5 -213.5t-149.5 -161.5q-7 -7 -7 -13v-44q0 -6 4.5 -10.5t10.5 -4.5h66q7 0 14 5q9 6 11 8q11 7 26 22q29 24 42 40q147 155 147 372q0 133 -61 251t-169 192l-1 1
l-2 1zM83 774h66l2 -1q106 -69 164.5 -187t58.5 -244q0 -212 -143 -362q-44 -46 -79 -69l-3 -1h-66v44l3 2q98 66 153.5 168.5t55.5 217.5t-55 217.5t-154 168.5l-3 1v45z" />
    <glyph glyph-name="asterisk" unicode="*" horiz-adv-x="744" 
d="M157 678l119 -182l-193 1q-6 0 -10.5 -4.5t-4.5 -10.5v-79q0 -6 4.5 -10.5t10.5 -4.5l193 2l-119 -182q-6 -9 -2 -16t15 -7h93q6 0 13 7l96 154l98 -154q7 -7 13 -7h92q11 0 15 7t-2 16l-119 182l193 -2q6 0 10.5 4.5t4.5 10.5v79q0 6 -4.5 10.5t-10.5 4.5l-193 -1
l119 182q6 9 2 16t-15 7h-92q-6 0 -13 -7l-98 -154l-96 154q-7 7 -13 7h-93q-11 0 -15 -7t2 -16zM304 481l-134 205h93l109 -174l111 174h92l-134 -205l221 1v-79l-221 2l134 -205h-92l-111 174l-109 -174h-93l134 205l-221 -2v79z" />
    <glyph glyph-name="plus" unicode="+" horiz-adv-x="739" 
d="M315 647v-249h-232q-6 0 -10.5 -4.5t-4.5 -10.5v-81q0 -6 4.5 -10.5t10.5 -4.5h232v-250q0 -6 4.5 -10.5t10.5 -4.5h77q6 0 10.5 4.5t4.5 10.5v250h234q6 0 10.5 4.5t4.5 10.5v81q0 6 -4.5 10.5t-10.5 4.5h-234v249q0 6 -4.5 10.5t-10.5 4.5h-77q-6 0 -10.5 -4.5
t-4.5 -10.5zM330 383v264h77v-264h249v-81h-249v-265h-77v265h-247v81h247z" />
    <glyph glyph-name="comma" unicode="," horiz-adv-x="367" 
d="M178 106l-183 -353q-5 -9 -1 -15.5t14 -6.5h88q10 0 13 8l188 353q5 9 1.5 15.5t-14.5 6.5h-93q-10 0 -13 -8zM8 -254l183 353h93l-188 -353h-88z" />
    <glyph glyph-name="hyphen" unicode="-" horiz-adv-x="606" 
d="M68 386v-81q0 -6 4.5 -10.5t10.5 -4.5h441q6 0 10.5 4.5t4.5 10.5v81q0 6 -4.5 10.5t-10.5 4.5h-441q-6 0 -10.5 -4.5t-4.5 -10.5zM83 305v81h441v-81h-441z" />
    <glyph glyph-name="period" unicode="." horiz-adv-x="263" 
d="M68 103v-103q0 -6 4.5 -10.5t10.5 -4.5h97q6 0 10.5 4.5t4.5 10.5v103q0 6 -4.5 10.5t-10.5 4.5h-97q-6 0 -10.5 -4.5t-4.5 -10.5zM83 0v103h97v-103h-97z" />
    <glyph glyph-name="slash" unicode="/" horiz-adv-x="767" 
d="M580 783l-510 -864q-5 -9 -1 -16t14 -7h93q6 0 13 7l509 864q5 10 1.5 16.5t-14.5 6.5h-92q-6 0 -13 -7zM83 -89l510 864h92l-509 -864h-93z" />
    <glyph glyph-name="zero" unicode="0" horiz-adv-x="945" 
d="M68 354q0 -369 405 -369t405 369q0 370 -405 370t-405 -370zM794 119q-53 -69 -133.5 -94t-187.5 -25t-187.5 25t-134.5 94q-68 89 -68 235q0 148 69 236q54 68 135 93.5t186 25.5q106 0 186.5 -25.5t134.5 -94.5q69 -90 69 -235t-69 -235zM218 162q66 -82 255 -82
q188 0 255 82q55 70 55 192t-55 192q-67 83 -255 83q-190 0 -255 -83q-57 -72 -57 -192q0 -121 57 -192zM768 354q0 -145 -71.5 -202t-223.5 -57t-224.5 57t-72.5 202q0 144 73 202t224 58q152 0 223.5 -57.5t71.5 -202.5z" />
    <glyph glyph-name="one" unicode="1" horiz-adv-x="422" 
d="M339 724h-62l-8 -2l-194 -121q-7 -7 -7 -13v-88q0 -10 7 -14t16 1l155 96v-583q0 -6 4.5 -10.5t10.5 -4.5h78q6 0 10.5 4.5t4.5 10.5v709q0 6 -4.5 10.5t-10.5 4.5zM277 709h62v-709h-78v610l-178 -110v88z" />
    <glyph glyph-name="two" unicode="2" horiz-adv-x="857" 
d="M482 725h-103q-39 0 -68.5 -2t-68.5 -8t-67 -19.5t-53.5 -34.5t-39 -55.5t-13.5 -80.5v-43q0 -6 4.5 -10.5t10.5 -4.5h80q6 0 10.5 4.5t4.5 10.5t-0.5 17t-0.5 16q0 17 3 30q10 45 62 60q33 10 106 10h133q89 0 130 -15q61 -22 61 -85q0 -31 -14 -51q-8 -12 -43 -27
q-29 -11 -55 -19q-31 -8 -90 -21.5t-82 -19.5q-102 -26 -158 -54q-163 -84 -163 -295v-28q0 -6 4.5 -10.5t10.5 -4.5h692q6 0 10.5 4.5t4.5 10.5v81q0 6 -4.5 10.5t-10.5 4.5h-594q10 52 47.5 88.5t82.5 54.5t113 35q19 4 59.5 12.5t70 15t54.5 14.5q99 28 137 79
q37 49 37 120q0 54 -19 93.5t-47 61.5t-70.5 35t-79.5 16.5t-84 3.5zM379 710h103q47 0 84 -4t76.5 -16t65 -32.5t42.5 -57t17 -85.5q0 -66 -34 -111q-36 -49 -134 -75q-31 -9 -95.5 -22.5t-91.5 -20.5q-110 -27 -174 -72t-75 -133h612v-81h-692v28q0 83 23.5 142.5t71.5 98
t106.5 62t143.5 42.5q125 28 137 31q85 23 106 51q17 24 17 60q0 41 -17 64q-36 51 -189 51h-133q-35 0 -59.5 -2t-54 -9.5t-47 -25.5t-22.5 -45q-2 -9 -2 -29v-30v-7h-80v43q0 42 12 73.5t35 51t49 32.5t63 18.5t66.5 7.5t69.5 2z" />
    <glyph glyph-name="three" unicode="3" horiz-adv-x="845" 
d="M370 -15h106q39 0 68 2t67 8t65 19.5t51.5 34.5t37.5 56t13 80q0 59 -12 99t-50 71q62 51 62 157q0 57 -18.5 98t-45 63t-70.5 34t-80 15t-88 3h-106q-48 0 -82.5 -2.5t-79 -14t-72.5 -32t-48 -59t-20 -92.5v-43q0 -6 4.5 -10.5t10.5 -4.5h78q6 0 10.5 4.5t4.5 10.5
q0 48 3 65q7 43 62 58q34 10 106 10h140q41 0 63 -1q35 -2 60 -10q59 -19 59 -79q0 -35 -1 -42q-3 -22 -12 -34q-19 -26 -73 -34q-33 -5 -94 -5h-296q-6 0 -10.5 -4.5t-4.5 -10.5v-80q0 -6 4.5 -10.5t10.5 -4.5h280h67q42 -2 65 -9q64 -19 64 -82q0 -28 -1 -42
q-3 -21 -12 -33q-19 -26 -73 -34q-33 -5 -94 -5h-136q-35 0 -54 1q-34 2 -55 8q-57 15 -65 60q-3 15 -3 31v33q0 6 -4.5 10.5t-10.5 4.5h-78q-6 0 -10.5 -4.5t-4.5 -10.5v-44q0 -24 3 -46q7 -42 32 -72t54 -45t72 -24t72.5 -10.5t68.5 -1.5zM476 0h-106q-58 0 -93 2.5
t-84 20.5t-76 52q-23 29 -31 66q-3 20 -3 60v27h78v-34q0 -22 3 -33q4 -28 22.5 -45.5t50.5 -24.5t55.5 -9t60.5 -2h136q42 0 67.5 1.5t61 12t50.5 31.5q16 22 16 70v14q0 73 -70 95q-28 8 -69 10q-24 1 -72 1h-280v80h296q42 0 67.5 1.5t61 12t50.5 31.5q16 22 16 70v15
q0 30 -12.5 51t-29 31t-47.5 15.5t-51.5 6.5t-56.5 1h-140q-35 0 -59 -2t-54 -9.5t-48 -25t-22 -44.5q-3 -20 -3 -60v-7h-78v43q0 49 18 84.5t44 54.5t67 30t76 13.5t82 2.5h106q44 0 69 -1.5t65 -7.5t69 -22.5t50 -43.5q23 -30 31 -69q3 -18 3 -54q0 -111 -72 -157
q72 -47 72 -145v-25q0 -66 -34 -110q-20 -27 -49.5 -43.5t-69 -22.5t-65 -7.5t-69.5 -1.5z" />
    <glyph glyph-name="four" unicode="4" horiz-adv-x="999" 
d="M802 727h-128l-4 -1q-4 -2 -5 -2l-591 -465q-6 -6 -6 -12v-52q0 -6 4.5 -10.5t10.5 -4.5h552v-180q0 -6 4.5 -10.5t10.5 -4.5h78q6 0 10.5 4.5t4.5 10.5v180h174q6 0 10.5 4.5t4.5 10.5v82q0 6 -4.5 10.5t-10.5 4.5h-174v197q0 6 -4.5 10.5t-10.5 4.5h-78
q-6 0 -10.5 -4.5t-4.5 -10.5v-197h-344l520 408q11 8 7.5 17.5t-16.5 9.5zM674 712h128l-554 -435h402v212h78v-212h189v-82h-189v-195h-78v195h-567v52z" />
    <glyph glyph-name="five" unicode="5" horiz-adv-x="842" 
d="M648 290q17 -24 17 -66q0 -81 -85 -110q-54 -19 -167 -19q-210 0 -322 67q-10 5 -16.5 1.5t-6.5 -14.5v-90q0 -7 4 -11l3 -3l5 -3q131 -58 333 -58q54 0 97.5 4t95 18.5t86.5 39.5t58.5 71t23.5 108q0 43 -11.5 77.5t-28.5 56.5t-45.5 38t-53.5 24t-63.5 12.5t-64 5.5
t-64.5 1q-120 0 -254 -16v190h550q6 0 10.5 4.5t4.5 10.5v81q0 6 -4.5 10.5t-10.5 4.5h-644q-6 0 -10.5 -4.5t-4.5 -10.5v-395q0 -8 5.5 -12t12.5 -3l9 2q167 27 324 27q75 0 120 -5q80 -10 97 -34zM680 224q0 49 -20 75q-34 45 -229 45q-103 0 -327 -27l-9 -2v395h644v-81
h-565v-222q146 18 269 18q60 0 100.5 -2.5t97.5 -21t83 -53.5q35 -47 35 -123q0 -73 -38 -127q-30 -43 -89 -66.5t-107 -28t-112 -4.5q-201 0 -327 57l-3 3v90l11 -6q127 -63 319 -63q43 0 73.5 2t70 10t64 22.5t42 42.5t17.5 67z" />
    <glyph glyph-name="six" unicode="6" horiz-adv-x="887" 
d="M819 228q0 54 -15 95.5t-44.5 67t-62 42t-78.5 23.5t-81.5 9.5t-83.5 2.5q-191 0 -275 -55q4 39 16 69.5t27.5 52t40.5 36t49.5 23.5t61 13.5t68 6t76.5 1.5q36 0 56 -1q34 -2 56 -8q57 -15 68 -62q3 -9 3 -29v-34q0 -6 4.5 -10.5t10.5 -4.5h79q6 0 10.5 4.5t4.5 10.5v44
q0 27 -4 47q-7 31 -22.5 55.5t-33.5 40t-45 27t-49 17.5t-54 9t-52 3.5t-50 0.5h-34q-201 0 -299.5 -88.5t-98.5 -289.5q0 -109 20 -178.5t67.5 -110.5t116.5 -57t177 -16q40 0 71.5 1.5t71.5 7t70 15.5t61 28.5t51 43.5t32.5 62.5t12.5 84.5zM454 453q245 0 312 -91
q38 -52 38 -134q0 -50 -14 -89t-41.5 -63t-58.5 -40t-75 -23.5t-81 -10t-85 -2.5q-47 0 -84 3t-83 12t-83.5 30t-61.5 53q-54 71 -54 249q0 158 63 243q53 71 132 95.5t188 24.5h34q42 0 71 -1.5t70 -9.5t68 -22t50.5 -41.5t31.5 -66.5q3 -13 3 -28q1 -9 1 -28v-32h-79v34
q0 22 -3 33q-5 28 -24.5 46t-52 25t-56.5 9t-62 2q-9 0 -26.5 -0.5t-25.5 -0.5q-154 0 -226.5 -56.5t-78.5 -192.5q35 32 91 49.5t98.5 20.5t103.5 3zM545 83q56 4 90 16q90 31 90 129q0 52 -24 85q-43 60 -247 60q-203 0 -252 -64q-28 -36 -28 -82q0 -39 18 -67t44.5 -43
t66.5 -24t72 -11t74 -2q63 0 96 3zM626 342q84 -27 84 -114q0 -89 -86 -117q-35 -11 -86 -14q-31 -2 -89 -2q-112 0 -171 20q-89 31 -89 112q0 83 91 112q57 19 174 19q58 0 88 -2q51 -3 84 -14z" />
    <glyph glyph-name="seven" unicode="7" horiz-adv-x="905" 
d="M837 662v49q0 6 -4.5 10.5t-10.5 4.5h-739q-6 0 -10.5 -4.5t-4.5 -10.5v-80q0 -6 4.5 -10.5t10.5 -4.5h583l-481 -607q-7 -9 -3.5 -16.5t15.5 -7.5h102q6 0 12 6l523 662q0 1 2 5zM822 711v-49l-523 -662h-102l500 631h-614v80h739z" />
    <glyph glyph-name="eight" unicode="8" horiz-adv-x="871" 
d="M797 513q0 43 -13.5 77.5t-33.5 56.5t-53.5 37.5t-61 23t-70 12t-67 5t-63.5 0.5t-63.5 -0.5t-67 -5t-69.5 -12t-60.5 -23t-53.5 -37.5t-33.5 -56.5t-13.5 -77.5q0 -99 79 -156q-85 -56 -85 -160q0 -43 14 -77t35 -56t54.5 -37.5t62.5 -23.5t70.5 -12t67.5 -5t63 -1
q39 0 64 0.5t67.5 5t71 12t62.5 23.5t54.5 37.5t34.5 56t14 77.5q0 105 -85 160q79 57 79 156zM435 710q39 0 65 -1t66 -5t66.5 -11t57.5 -22t49 -35t30.5 -51.5t12.5 -71.5q0 -106 -93 -157q99 -48 99 -159q0 -46 -15.5 -81t-45.5 -55.5t-61 -33.5t-77.5 -18.5t-77.5 -7
t-76 -1.5q-44 0 -75.5 1.5t-77 7t-77 19t-61.5 34t-45.5 55.5t-15.5 80q0 109 99 159q-93 51 -93 157q0 40 12.5 71.5t30.5 51.5t48.5 35t57 22t66.5 11t66 5t65 1zM351 395h168q46 0 94.5 14t69.5 41q20 28 20 63q0 37 -20 63q-39 53 -230 53q-106 0 -145 -5
q-93 -10 -120 -48q-19 -26 -19 -63t19 -63q21 -27 69 -41t94 -14zM519 410h-168q-69 0 -118 24.5t-49 78.5q0 66 76 88q27 8 75 12q26 1 73 1q10 0 38.5 0.5t45.5 0.5q64 -2 94 -8q102 -20 102 -94q0 -54 -49.5 -78.5t-119.5 -24.5zM519 314h-168q-47 0 -97.5 -14.5
t-71.5 -41.5t-21 -61q0 -78 100 -103q37 -10 91 -12q31 -2 83 -2q53 0 84 2q54 2 91 12q100 25 100 103q0 34 -20 62q-20 27 -71.5 41t-99.5 14zM351 299h168q72 0 124 -23.5t52 -78.5q0 -68 -94 -90q-37 -9 -88 -11q-29 -1 -78 -1q-48 0 -78 1q-50 2 -87 11q-94 22 -94 90
q0 53 53 77.5t122 24.5z" />
    <glyph glyph-name="nine" unicode="9" horiz-adv-x="887" 
d="M68 482q0 -47 12 -84.5t31.5 -62t50 -42.5t59.5 -27.5t69 -15t70.5 -7t71.5 -1.5q191 0 276 55q-13 -114 -83 -158t-204 -44q-9 0 -32 -0.5t-36 -0.5q-44 0 -73 5q-79 13 -92 67q-3 10 -3 29q0 6 0.5 17.5t0.5 16.5q0 6 -4.5 10.5t-10.5 4.5h-79q-6 0 -10.5 -4.5
t-4.5 -10.5v-13.5v-16v-14.5q0 -25 3 -47q10 -51 43 -84.5t84.5 -47t89.5 -17.5t89 -4h35q200 0 299 89.5t99 289.5q0 108 -20.5 177.5t-68 110.5t-116.5 57t-176 16q-48 0 -84 -2.5t-82.5 -10t-79.5 -24t-63 -42.5t-45.5 -67.5t-15.5 -96.5zM432 257q-245 0 -312 91
q-37 50 -37 134q0 44 11 78.5t29.5 58t47 41t57 27t67 15t70.5 7t73 1.5q236 0 311 -99q55 -71 55 -247q0 -159 -64 -244q-53 -71 -132 -95.5t-187 -24.5h-35q-41 0 -69 1.5t-68 8.5t-71 23.5t-52 42.5q-23 28 -31 65q-3 20 -3 59v29h79v-35v-16q0 -6 2 -16q5 -28 24.5 -46
t52.5 -25t57 -9t62 -2h52q153 0 226 57t78 193q-34 -32 -90.5 -49.5t-99 -20.5t-103.5 -3zM343 627q-53 -3 -91 -16q-91 -31 -91 -129q0 -52 24 -85q43 -59 247 -59t253 63q28 38 28 82q0 33 -12 58t-34.5 40t-47 25.5t-59 15t-61.5 6t-61 1.5q-64 0 -95 -2zM197 406
q-21 29 -21 76q0 89 86 117q34 11 87 14q31 1 89 1q112 0 171 -20q89 -31 89 -111q0 -83 -91 -112q-55 -18 -175 -18q-83 0 -130 7q-82 14 -105 46z" />
    <glyph glyph-name="colon" unicode=":" horiz-adv-x="263" 
d="M68 456v-104q0 -6 4.5 -10.5t10.5 -4.5h97q6 0 10.5 4.5t4.5 10.5v104q0 6 -4.5 10.5t-10.5 4.5h-97q-6 0 -10.5 -4.5t-4.5 -10.5zM83 352v104h97v-104h-97zM68 104v-104q0 -6 4.5 -10.5t10.5 -4.5h97q6 0 10.5 4.5t4.5 10.5v104q0 6 -4.5 10.5t-10.5 4.5h-97
q-6 0 -10.5 -4.5t-4.5 -10.5zM83 0v104h97v-104h-97z" />
    <glyph glyph-name="semicolon" unicode=";" horiz-adv-x="367" 
d="M155 455v-103q0 -6 4.5 -10.5t10.5 -4.5h96q6 0 10.5 4.5t4.5 10.5v103q0 6 -4.5 10.5t-10.5 4.5h-96q-6 0 -10.5 -4.5t-4.5 -10.5zM170 352v103h96v-103h-96zM178 106l-183 -353q-5 -9 -1 -15.5t14 -6.5h88q10 0 13 8l188 353q5 9 1.5 15.5t-14.5 6.5h-93q-10 0 -13 -8z
M8 -254l183 353h93l-188 -353h-88z" />
    <glyph glyph-name="less" unicode="&#x3c;" horiz-adv-x="644" 
d="M216 341l353 218q7 7 7 13v95q0 10 -7 14t-16 -1l-478 -297q-7 -7 -7 -13v-56q0 -6 7 -13l478 -299q9 -5 16 -1t7 14v96q0 6 -7 13zM561 572l-374 -231l374 -230v-96l-478 299v56l478 297v-95z" />
    <glyph glyph-name="equal" unicode="=" horiz-adv-x="746" 
d="M68 524v-81q0 -6 4.5 -10.5t10.5 -4.5h580q6 0 10.5 4.5t4.5 10.5v81q0 6 -4.5 10.5t-10.5 4.5h-580q-6 0 -10.5 -4.5t-4.5 -10.5zM83 443v81h580v-81h-580zM68 264v-80q0 -6 4.5 -10.5t10.5 -4.5h580q6 0 10.5 4.5t4.5 10.5v80q0 6 -4.5 10.5t-10.5 4.5h-580
q-6 0 -10.5 -4.5t-4.5 -10.5zM83 184v80h580v-80h-580z" />
    <glyph glyph-name="greater" unicode="&#x3e;" horiz-adv-x="644" 
d="M569 383l-478 297q-9 5 -16 1t-7 -14v-95q0 -6 7 -13l353 -218l-353 -217q-7 -7 -7 -13v-96q0 -10 7 -14t16 1l478 299q7 7 7 13v56q0 6 -7 13zM83 667l478 -297v-56l-478 -299v96l374 230l-374 231v95z" />
    <glyph glyph-name="question" unicode="?" horiz-adv-x="829" 
d="M68 652v-84q0 -9 6 -13t14 -1q136 49 335 49q68 0 119 -7q77 -11 96 -38q14 -22 14 -55q0 -29 -14 -49q-17 -25 -94 -37q-37 -5 -119 -8q-84 -5 -96 -5q-6 0 -10.5 -4.5t-4.5 -10.5v-203q0 -6 4.5 -10.5t10.5 -4.5h77q6 0 10.5 4.5t4.5 10.5v111q66 2 99 5q71 7 114 22
q127 46 127 181q0 48 -15 84.5t-44 58.5t-59 36t-74 20t-74 7.5t-72 1.5q-169 0 -338 -45l-5 -1q-4 -1 -8 -5.5t-4 -9.5zM92 571l-9 -3v84l5 1q143 45 335 45q230 0 290 -83q33 -44 33 -110q0 -64 -30 -108q-38 -53 -148 -73q-44 -8 -162 -13v-125h-77v203h6q32 1 91 5
q84 3 123 9q82 12 101 42q17 23 17 58q0 39 -17 63q-34 52 -227 52q-167 0 -331 -47zM303 104v-104q0 -6 4.5 -10.5t10.5 -4.5h98q6 0 10.5 4.5t4.5 10.5v104q0 6 -4.5 10.5t-10.5 4.5h-98q-6 0 -10.5 -4.5t-4.5 -10.5zM318 0v104h98v-104h-98z" />
    <glyph glyph-name="at" unicode="@" horiz-adv-x="1140" 
d="M723 324v-10h-191q-37 0 -65.5 -2.5t-64.5 -12t-59.5 -26t-40 -48t-16.5 -75.5q0 -174 243 -174q133 0 222 69q43 -69 130 -69q46 0 81 19.5t55.5 49t33.5 70t17.5 76.5t4.5 73q0 123 -35.5 211.5t-104 140t-159 75.5t-209.5 24q-235 0 -366 -108.5t-131 -339.5
q0 -110 48 -266l1 -4q1 -4 5.5 -8t9.5 -4h85q10 0 13.5 6.5t-0.5 15.5q-23 47 -38.5 125t-15.5 136q0 139 55 214q47 63 140 93t192 30t169.5 -16t124.5 -54t80.5 -105t26.5 -166q0 -68 -16 -115q-19 -63 -66 -63q-29 0 -40.5 19.5t-11.5 57.5v151q0 114 -61 157t-176 43
q-99 0 -242 -38l-5 -1q-4 -1 -8 -5.5t-4 -9.5v-84q0 -10 6 -14t15 0q45 21 113 32.5t125 11.5q29 0 44.5 -1t35 -5t28.5 -12.5t15.5 -24.5t6.5 -39zM738 299v25q0 63 -34 80t-111 17q-109 0 -234 -41l-10 -4v84l5 1q127 38 239 38q113 0 167.5 -40t54.5 -145v-151
q0 -92 67 -92q56 0 80 72q17 46 17 121q0 151 -61 233q-90 123 -355 123q-103 0 -199 -31.5t-145 -97.5q-58 -79 -58 -223q0 -118 52 -259l4 -9h-85l-1 5q-48 134 -48 262q0 175 75 275q64 84 173 121t234 37q244 0 368.5 -104t124.5 -332q0 -34 -4 -67t-15.5 -72t-30 -67.5
t-51.5 -47.5t-76 -19q-89 0 -126 77q-86 -77 -226 -77q-47 0 -84 6.5t-71.5 22.5t-53.5 49t-19 81q0 39 14.5 67t35.5 43.5t54 24.5t61.5 11.5t65.5 2.5h206zM737 170v51h-204q-50 0 -79 -4q-50 -9 -63 -26q-12 -18 -12 -41q0 -26 13.5 -43.5t38 -25t47.5 -10t54 -2.5
q59 0 111 20.5t83 61.5l6 10q1 1 2.5 3.5t2.5 3.5v2zM533 206h189v-33q-7 -12 -8 -13q-56 -76 -182 -76q-62 0 -93 10q-45 16 -45 56q0 37 45 50q23 4 48 6h46z" />
    <glyph glyph-name="A" unicode="A" horiz-adv-x="983" 
d="M328 240l326 1l142 -248q5 -8 13 -8h92q11 0 14.5 6.5t-1.5 16.5l-410 710q-5 9 -13 9t-13 -10l-408 -710q-5 -9 -1.5 -15.5t14.5 -6.5h90q8 0 13 8zM663 256l-344 -1l-146 -255h-90l408 710l410 -710h-92zM619 331l-128 223l-128 -223h256zM491 524l102 -178h-204z" />
    <glyph glyph-name="B" unicode="B" 
d="M492 724h-409q-6 0 -10.5 -4.5t-4.5 -10.5v-709q0 -6 4.5 -10.5t10.5 -4.5h411q48 0 84.5 3t82 15.5t74.5 34t49.5 61.5t20.5 95q0 114 -78 176q68 52 68 149q0 55 -19.5 94.5t-47.5 60t-72 32.5t-80 15t-84 3zM83 709h409q49 0 84.5 -3t76.5 -14t66.5 -31t43 -56
t17.5 -86q0 -101 -79 -149q89 -55 89 -176q0 -69 -36 -115q-26 -36 -77 -54.5t-88 -21.5t-95 -3h-411v709zM161 408h341q43 0 71.5 3t61 13t49.5 33.5t17 60.5q0 74 -69 98q-28 9 -69 11q-24 2 -72 2h-330v-221zM502 423h-326v191h315q44 0 67 -1q38 -2 65 -10
q63 -20 63 -85q0 -61 -60 -81q-40 -14 -124 -14zM691 270q-15 27 -44 40.5t-53 15.5t-67 2h-366v-248h349q35 0 58.5 1.5t53 7.5t47 18t29.5 34t12 53q0 43 -19 76zM176 313h351q85 0 126.5 -23.5t41.5 -95.5q0 -65 -59 -85q-36 -14 -126 -14h-334v218z" />
    <glyph glyph-name="C" unicode="C" horiz-adv-x="908" 
d="M485 725q-199 0 -308 -86.5t-109 -282.5q0 -197 109 -283.5t308 -86.5q46 0 93 6t100 19.5t96.5 42.5t64.5 70q6 9 -3 18l-58 56q-7 7 -14 5t-10 -11q-18 -52 -114 -77q-69 -20 -155 -20q-158 0 -233 56.5t-75 204.5t75 203.5t233 55.5q85 0 155 -19q96 -25 114 -77
q3 -9 10 -11t14 5l58 56q10 10 2 20l-3 4q-14 20 -16 22q-6 9 -21 22q-54 48 -140 68t-173 20zM83 356q0 185 101.5 269.5t300.5 84.5q45 0 90.5 -5.5t95 -18.5t90.5 -39.5t62 -62.5l3 -4l-58 -56l-4 8q-57 98 -279 98q-167 0 -245 -61t-78 -213q0 -153 78 -214.5t245 -61.5
q89 0 168 22t111 77l4 8l58 -56l-3 -5q-40 -68 -137.5 -96.5t-200.5 -28.5q-199 0 -300.5 84.5t-101.5 270.5z" />
    <glyph glyph-name="D" unicode="D" horiz-adv-x="887" 
d="M413 725h-330q-6 0 -10.5 -4.5t-4.5 -10.5v-710q0 -6 4.5 -10.5t10.5 -4.5h330q406 0 406 369q0 371 -406 371zM83 710h330q230 0 324 -120q67 -88 67 -236q0 -354 -391 -354h-330v710zM161 80h252q192 0 261 89q51 65 51 187q0 121 -51 186q-69 88 -261 88h-252v-550z
M413 95h-237v520h237q151 0 224 -57.5t73 -201.5t-73 -202.5t-224 -58.5z" />
    <glyph glyph-name="E" unicode="E" horiz-adv-x="824" 
d="M176 614h566q6 0 10.5 4.5t4.5 10.5v80q0 6 -4.5 10.5t-10.5 4.5h-659q-6 0 -10.5 -4.5t-4.5 -10.5v-709q0 -6 4.5 -10.5t10.5 -4.5h657q6 0 10.5 4.5t4.5 10.5v80q0 6 -4.5 10.5t-10.5 4.5h-564v218h428q6 0 10.5 4.5t4.5 10.5v80q0 6 -4.5 10.5t-10.5 4.5h-428v191z
M742 629h-581v-221h443v-80h-443v-248h579v-80h-657v709h659v-80z" />
    <glyph glyph-name="F" unicode="F" horiz-adv-x="824" 
d="M176 614h566q6 0 10.5 4.5t4.5 10.5v80q0 6 -4.5 10.5t-10.5 4.5h-659q-6 0 -10.5 -4.5t-4.5 -10.5v-709q0 -6 4.5 -10.5t10.5 -4.5h78q6 0 10.5 4.5t4.5 10.5v313h428q6 0 10.5 4.5t4.5 10.5v80q0 6 -4.5 10.5t-10.5 4.5h-428v191zM742 629h-581v-221h443v-80h-443v-328
h-78v709h659v-80z" />
    <glyph glyph-name="G" unicode="G" horiz-adv-x="908" 
d="M485 725q-417 0 -417 -369q0 -197 109 -283.5t308 -86.5q46 0 93 6t100 19.5t96.5 42.5t64.5 70l2 7v277q0 6 -4.5 10.5t-10.5 4.5h-511q-6 0 -10.5 -4.5t-4.5 -10.5v-80q0 -6 4.5 -10.5t10.5 -4.5h408v-157q-73 -61 -238 -61q-158 0 -233 56.5t-75 204.5t75 203.5
t233 55.5q85 0 155 -19q96 -25 114 -77q3 -9 10 -11t14 5l58 56q10 10 2 20l-3 4q-94 132 -350 132zM83 356q0 185 102 269.5t300 84.5q45 0 90.5 -5.5t95 -18.5t90.5 -39.5t62 -62.5l3 -4l-58 -56l-4 8q-57 98 -279 98q-167 0 -245 -61t-78 -213q0 -153 78 -214.5
t245 -61.5q177 0 253 69v179h-423v80h511v-277l-3 -5q-40 -68 -137.5 -96.5t-200.5 -28.5q-199 0 -300.5 84.5t-101.5 270.5z" />
    <glyph glyph-name="H" unicode="H" 
d="M696 313v-313q0 -6 4.5 -10.5t10.5 -4.5h79q6 0 10.5 4.5t4.5 10.5v710q0 6 -4.5 10.5t-10.5 4.5h-79q-6 0 -10.5 -4.5t-4.5 -10.5v-287h-520v287q0 6 -4.5 10.5t-10.5 4.5h-78q-6 0 -10.5 -4.5t-4.5 -10.5v-710q0 -6 4.5 -10.5t10.5 -4.5h78q6 0 10.5 4.5t4.5 10.5v313
h520zM711 0v328h-550v-328h-78v710h78v-302h550v302h79v-710h-79z" />
    <glyph glyph-name="I" unicode="I" horiz-adv-x="243" 
d="M83 -15h78q6 0 10.5 4.5t4.5 10.5v710q0 6 -4.5 10.5t-10.5 4.5h-78q-6 0 -10.5 -4.5t-4.5 -10.5v-710q0 -6 4.5 -10.5t10.5 -4.5zM161 0h-78v710h78v-710z" />
    <glyph glyph-name="J" unicode="J" horiz-adv-x="818" 
d="M750 428v282q0 6 -4.5 10.5t-10.5 4.5h-78q-6 0 -10.5 -4.5t-4.5 -10.5v-282q0 -76 -9.5 -131t-34 -104t-74 -74.5t-123.5 -25.5q-156 0 -206 116q-4 8 -15 49v2l-2 5q-4 9 -14 9h-81q-18 0 -15 -19q35 -137 113.5 -203.5t219.5 -66.5q82 0 144.5 24t101 64t62 99
t32.5 120t9 136zM735 710v-282q0 -71 -7.5 -128.5t-29.5 -115t-58 -96.5t-97 -63.5t-142 -24.5q-260 0 -316 251l-2 8h81l2 -5q37 -176 235 -176q110 0 169 53q87 75 87 297v282h78z" />
    <glyph glyph-name="K" unicode="K" horiz-adv-x="936" 
d="M838 13l-598 361l621 323q13 7 10 17.5t-17 10.5h-156q-9 0 -19 -5l-503 -261l-1 251q0 6 -4.5 10.5t-10.5 4.5h-77q-6 0 -10.5 -4.5t-4.5 -10.5v-710q0 -6 4.5 -10.5t10.5 -4.5h78q6 0 10.5 4.5t4.5 10.5v289l503 -302l8 -2h143q14 0 17 10.5t-9 17.5zM209 375l621 -375
h-143l-526 316v-316h-78v710h77l1 -276l525 273q6 3 12 3h9h147z" />
    <glyph glyph-name="L" unicode="L" horiz-adv-x="823" 
d="M740 95h-564v615q0 6 -4.5 10.5t-10.5 4.5h-78q-6 0 -10.5 -4.5t-4.5 -10.5v-710q0 -6 4.5 -10.5t10.5 -4.5h657q6 0 10.5 4.5t4.5 10.5v80q0 6 -4.5 10.5t-10.5 4.5zM161 80h579v-80h-657v710h78v-630z" />
    <glyph glyph-name="M" unicode="M" horiz-adv-x="938" 
d="M445 96l56 -1q8 0 13 7l247 389v-491q0 -6 4.5 -10.5t10.5 -4.5h78q6 0 10.5 4.5t4.5 10.5v710q0 6 -4.5 10.5t-10.5 4.5h-63q-6 0 -13 -7l-305 -478l-311 478q-7 7 -13 7h-66q-6 0 -10.5 -4.5t-4.5 -10.5v-710q0 -6 4.5 -10.5t10.5 -4.5h79q6 0 10.5 4.5t4.5 10.5v490
l255 -387q7 -7 13 -7zM501 110l-56 1l-283 429v-540h-79v710h66l324 -498l318 498h63v-710h-78v542z" />
    <glyph glyph-name="N" unicode="N" 
d="M176 547l541 -557q3 -5 11 -5h62q6 0 10.5 4.5t4.5 10.5v710q0 6 -4.5 10.5t-10.5 4.5h-79q-6 0 -10.5 -4.5t-4.5 -10.5v-546l-541 556q-3 5 -11 5h-61q-6 0 -10.5 -4.5t-4.5 -10.5v-710q0 -6 4.5 -10.5t10.5 -4.5h78q6 0 10.5 4.5t4.5 10.5v547zM728 0l-567 584v-584
h-78v710h61l567 -583v583h79v-710h-62z" />
    <glyph glyph-name="O" unicode="O" horiz-adv-x="968" 
d="M68 355q0 -198 108 -285t309 -87q199 0 307.5 87.5t108.5 284.5q0 101 -29 173.5t-85 115t-130 62t-172 19.5q-199 0 -308 -87t-109 -283zM485 -2q-200 0 -301 85t-101 272q0 185 102 270t300 85q200 0 300.5 -84t100.5 -271q0 -186 -101.5 -271.5t-299.5 -85.5zM485 78
q165 0 243 62.5t78 214.5q0 153 -77 214t-244 61t-245 -61t-78 -214t78.5 -215t244.5 -62zM791 355q0 -147 -75 -204.5t-231 -57.5q-158 0 -233 56.5t-75 205.5q0 148 75 204t233 56t232 -55.5t74 -204.5z" />
    <glyph glyph-name="P" unicode="P" horiz-adv-x="863" 
d="M492 725h-409q-6 0 -10.5 -4.5t-4.5 -10.5v-710q0 -6 4.5 -10.5t10.5 -4.5h80q6 0 10.5 4.5t4.5 10.5l-2 285h316q48 0 84 3t80 15t72 33t47.5 60.5t19.5 94.5v29q0 55 -19.5 94.5t-47.5 60t-72 32.5t-80 15t-84 3zM83 710h409q49 0 84.5 -3t76.5 -14.5t67 -31t43 -55.5
t17 -86v-29q0 -50 -17.5 -86t-43 -56t-66.5 -31.5t-76.5 -14.5t-84.5 -3h-331l2 -300h-80v710zM161 381h351q37 0 61.5 2t55 10t48 26.5t22.5 47.5q2 11 2 33v19q0 27 -7.5 46.5t-24.5 31t-32.5 18.5t-43.5 10t-45 3.5t-50 0.5h-337v-248zM512 396h-336v218h322q43 0 66 -1
q37 -2 62 -10q60 -21 60 -84v-26q0 -16 -2 -23q-8 -47 -63 -64q-34 -10 -109 -10z" />
    <glyph glyph-name="Q" unicode="Q" horiz-adv-x="999" 
d="M725 29l72 -77q3 -5 11 -5h109q12 0 15.5 8t-4.5 17l-113 121q86 94 86 262q0 101 -29 173.5t-85 115t-130 62t-172 19.5q-199 0 -308 -87t-109 -283q0 -198 108 -285t309 -87q143 0 240 46zM808 -38l-80 85q-94 -49 -243 -49q-200 0 -301 85t-101 272q0 185 102 270
t300 85q200 0 300.5 -84t100.5 -271q0 -173 -92 -262l123 -131h-109zM542 363l198 -212q66 65 66 204q0 153 -77 214t-244 61t-245 -61t-78 -214t78.5 -215t244.5 -62q110 0 186 30l-237 255h108zM740 173l-187 200q-5 5 -11 5h-108q-12 0 -15.5 -8t4.5 -17l222 -239
q-67 -21 -160 -21q-158 0 -233 56.5t-75 205.5q0 148 75 204t233 56t232 -55.5t74 -204.5q0 -121 -51 -182z" />
    <glyph glyph-name="R" unicode="R" horiz-adv-x="887" 
d="M492 725h-409q-6 0 -10.5 -4.5t-4.5 -10.5v-710q0 -6 4.5 -10.5t10.5 -4.5h80q6 0 10.5 4.5t4.5 10.5l-2 285h232l276 -295q5 -5 11 -5h108q12 0 15.5 8t-4.5 17l-258 277q50 3 89 13t75 32t55.5 62t19.5 97v29q0 55 -19.5 94.5t-47.5 60t-72 32.5t-80 15t-84 3zM83 710
h409q49 0 84.5 -3t76.5 -14.5t67 -31t43 -55.5t17 -86v-29q0 -57 -20.5 -95.5t-59.5 -58t-80.5 -27.5t-96.5 -9l280 -301h-108l-280 300h-254l2 -300h-80v710zM161 381h351q37 0 61.5 2t55 10t48 26.5t22.5 47.5q2 11 2 33v19q0 27 -7.5 46.5t-24.5 31t-32.5 18.5t-43.5 10
t-45 3.5t-50 0.5h-337v-248zM512 396h-336v218h322q43 0 66 -1q37 -2 62 -10q60 -21 60 -84v-26q0 -16 -2 -23q-8 -47 -63 -64q-34 -10 -109 -10z" />
    <glyph glyph-name="S" unicode="S" horiz-adv-x="851" 
d="M373 -15h108q48 0 82.5 2.5t79 14t72.5 32t48 59t20 92.5q0 51 -3 68q-7 42 -34 76q-48 61 -155 75q-62 9 -193 5q-115 -2 -162 13q-60 19 -60 78q0 28 1 42q3 20 13 34q17 24 73 34q33 5 93 5h135q34 0 54 -1q35 -2 57 -8q58 -15 65 -59q2 -14 2 -65q0 -6 4.5 -10.5
t10.5 -4.5h78q6 0 10.5 4.5t4.5 10.5q0 67 -3 89q-5 37 -33 73q-42 53 -125 71q-34 7 -71 9q-24 1 -69 1h-107q-47 0 -81.5 -2.5t-79 -14t-72.5 -31.5t-48 -58.5t-20 -92.5q0 -46 3 -69q7 -43 33 -76q48 -61 156 -75q49 -7 193 -5q114 2 161 -12q60 -21 60 -80q0 -36 -2 -46
q-7 -43 -62 -58q-35 -10 -107 -10h-141q-35 0 -55 1q-33 2 -57 7q-59 15 -66 60q-2 14 -2 65q0 6 -4.5 10.5t-10.5 4.5h-79q-6 0 -10.5 -4.5t-4.5 -10.5v-44q0 -26 4 -46q7 -35 24 -62t43 -43t52 -26.5t61 -14.5t59 -5.5t57 -1.5zM481 0h-108q-58 0 -93 2.5t-83.5 20.5
t-74.5 52q-24 33 -30 66q-4 20 -4 59v28h79v-32q0 -23 2 -35q3 -23 18 -39.5t32 -24.5t46.5 -12t47 -4.5t49.5 -0.5h141q35 0 59 2t54.5 9.5t48.5 25t22 44.5q2 11 2 33v15q0 73 -69 94q-28 9 -69 11q-25 1 -72 1h-110q-58 0 -93 2.5t-84 20.5t-76 52q-26 32 -30 69
q-3 17 -3 52v15q0 49 17.5 84t43 54t66.5 30t76 13.5t83 2.5h107q43 0 68.5 -1.5t65.5 -7.5t69.5 -22.5t49.5 -43.5q24 -30 30 -66q3 -21 3 -61v-26h-78v30q0 24 -2 37q-5 28 -23 46t-51 25t-56 8.5t-61 1.5h-135q-144 0 -178 -45q-17 -23 -17 -70v-15q0 -72 70 -93
q28 -9 69 -11q25 -1 72 -1h109q43 0 69 -1.5t65 -8t68.5 -23t50.5 -42.5q25 -31 31 -69q3 -17 3 -51v-15q0 -41 -11.5 -72.5t-33.5 -51t-47 -32.5t-61 -19t-65.5 -8t-68.5 -2z" />
    <glyph glyph-name="T" unicode="T" horiz-adv-x="878" 
d="M810 629v81q0 6 -4.5 10.5t-10.5 4.5h-712q-6 0 -10.5 -4.5t-4.5 -10.5v-81q0 -6 4.5 -10.5t10.5 -4.5h302l-1 -614q0 -6 4.5 -10.5t10.5 -4.5h79q6 0 10.5 4.5t4.5 10.5v614h302q6 0 10.5 4.5t4.5 10.5zM795 710v-81h-317v-629h-79l1 629h-317v81h712z" />
    <glyph glyph-name="U" unicode="U" horiz-adv-x="833" 
d="M766 428v282q0 6 -4.5 10.5t-10.5 4.5h-78q-6 0 -10.5 -4.5t-4.5 -10.5v-282q0 -76 -9.5 -131t-34.5 -104t-74.5 -74.5t-123.5 -25.5t-123 25.5t-73.5 74.5t-34 104t-9.5 131v282q0 6 -4.5 10.5t-10.5 4.5h-78q-6 0 -10.5 -4.5t-4.5 -10.5v-282q0 -74 9 -135.5t32.5 -120
t62 -98.5t100.5 -64.5t144 -24.5t144.5 24t101 64t62.5 98.5t33 120t9 136.5zM751 710v-282q0 -70 -7.5 -128t-30 -115.5t-58.5 -96.5t-97 -63.5t-142 -24.5t-141.5 24.5t-96.5 64t-58 97t-29.5 115t-7.5 127.5v282h78v-282q0 -223 87 -297q61 -53 168 -53t169 53
q88 75 88 297v282h78z" />
    <glyph glyph-name="V" unicode="V" horiz-adv-x="1032" 
d="M562 -14l401 717q5 9 1.5 15.5t-14.5 6.5h-88q-10 0 -13 -8l-328 -585l-333 585q-5 8 -13 8h-92q-11 0 -14.5 -6.5t1.5 -15.5l411 -715q1 -2 5.5 -5t6.5 -3l55 -2q9 0 14 8zM950 710l-401 -717l-55 2l-411 715h92l346 -608l341 608h88z" />
    <glyph glyph-name="W" unicode="W" horiz-adv-x="1196" 
d="M793 -20l8 -1h28q13 0 18 1h8q1 1 3.5 1.5t3.5 0.5q4 0 9 9l257 714q3 8 -1 14t-13 6h-83q-11 0 -14 -10l-190 -531l-183 531q-1 3 -5.5 6.5t-8.5 3.5h-64q-4 0 -8.5 -3.5t-5.5 -6.5l-183 -531l-189 531q-1 3 -5.5 6.5t-8.5 3.5h-83q-9 0 -13 -6t-1 -14l256 -715
q3 -10 14 -10q6 0 17.5 -0.5t17.5 -0.5h26q4 0 8.5 3.5t5.5 6.5l184 538l184 -537q2 -7 11 -10zM821 -6h-20l-5 1l-198 578l-198 -579h-26q-5 0 -15 0.5t-15 0.5h-5l-256 715h83l203 -571l197 571h64l197 -571l204 571h83l-257 -714l-4 -1q-5 0 -16 -0.5t-16 -0.5z" />
    <glyph glyph-name="X" unicode="X" horiz-adv-x="932" 
d="M467 276l266 -286q5 -5 11 -5h106q12 0 15.5 8t-4.5 17l-321 345l321 345q8 9 4.5 17t-15.5 8h-101q-9 0 -11 -5l-271 -288l-271 288q-2 5 -11 5h-102q-12 0 -15.5 -8t4.5 -17l321 -345l-321 -345q-8 -9 -4.5 -17t15.5 -8h104q9 0 11 5zM744 0l-277 298l-280 -298h-104
l331 355l-331 355h102l282 -300l282 300h101l-330 -355l330 -355h-106z" />
    <glyph glyph-name="Y" unicode="Y" horiz-adv-x="938" 
d="M470 435l-271 285q-3 5 -11 5h-105q-12 0 -15.5 -8t4.5 -17l343 -365v-335q0 -6 4.5 -10.5t10.5 -4.5h77q6 0 10.5 4.5t4.5 10.5v333l345 367q8 9 4.5 17t-15.5 8h-106q-8 0 -11 -5zM188 710l282 -297l280 297h106l-349 -371v-339h-77v341l-347 369h105z" />
    <glyph glyph-name="Z" unicode="Z" horiz-adv-x="824" 
d="M83 -15h657q6 0 10.5 4.5t4.5 10.5v80q0 6 -4.5 10.5t-10.5 4.5h-499l512 542q4 4 4 10v63q0 6 -4.5 10.5t-10.5 4.5h-659q-6 0 -10.5 -4.5t-4.5 -10.5v-81q0 -6 4.5 -10.5t10.5 -4.5l501 2l-512 -543q-4 -4 -4 -10v-63q0 -6 4.5 -10.5t10.5 -4.5zM740 0h-657v63l536 568
l-536 -2v81h659v-63l-536 -567h534v-80z" />
    <glyph glyph-name="bracketleft" unicode="[" horiz-adv-x="502" 
d="M174 5v674h245q6 0 10.5 4.5t4.5 10.5v79q0 6 -4.5 10.5t-10.5 4.5h-336q-6 0 -10.5 -4.5t-4.5 -10.5v-863q0 -6 4.5 -10.5t10.5 -4.5h336q6 0 10.5 4.5t4.5 10.5v80q0 6 -4.5 10.5t-10.5 4.5h-245zM159 694v-704h260v-80h-336v863h336v-79h-260z" />
    <glyph glyph-name="backslash" unicode="\" horiz-adv-x="767" 
d="M70 767l508 -864q7 -7 13 -7h94q10 0 14 7t-1 16l-511 864q-7 7 -13 7h-91q-11 0 -14.5 -6.5t1.5 -16.5zM591 -89l-508 864h91l511 -864h-94z" />
    <glyph glyph-name="bracketright" unicode="]" horiz-adv-x="502" 
d="M68 773v-81q0 -6 4.5 -10.5t10.5 -4.5h245v-673h-245q-6 0 -10.5 -4.5t-4.5 -10.5v-79q0 -6 4.5 -10.5t10.5 -4.5h336q6 0 10.5 4.5t4.5 10.5v863q0 6 -4.5 10.5t-10.5 4.5h-336q-6 0 -10.5 -4.5t-4.5 -10.5zM83 692v81h336v-863h-336v79h260v703h-260z" />
    <glyph glyph-name="asciicircum" unicode="^" horiz-adv-x="592" 
d="M521 282l-184 410q-5 9 -14 9h-69q-10 0 -14 -9l-169 -411q-3 -7 -3 -18v-27q0 -6 4.5 -10.5t10.5 -4.5h73q10 0 14 9l121 298l132 -298q5 -9 14 -9h72q6 0 10.5 4.5t4.5 10.5v6q0 2 0.5 8t0.5 9q0 12 -4 23zM323 686l184 -410q2 -3 2 -9v-7v-18v-6h-72l-147 330
l-134 -330h-73v27q0 8 2 12l169 411h69z" />
    <glyph glyph-name="underscore" unicode="_" horiz-adv-x="1034" 
d="M68 44v-82q0 -6 4.5 -10.5t10.5 -4.5h869q6 0 10.5 4.5t4.5 10.5v82q0 6 -4.5 10.5t-10.5 4.5h-869q-6 0 -10.5 -4.5t-4.5 -10.5zM83 -38v82h869v-82h-869z" />
    <glyph glyph-name="grave" unicode="`" horiz-adv-x="450" 
d="M383 720v45q0 6 -7 13l-206 130l-8 2h-79q-6 0 -10.5 -4.5t-4.5 -10.5v-44q0 -6 7 -13l221 -131l8 -2h64q6 0 10.5 4.5t4.5 10.5zM368 765v-45h-64l-221 131v44h79z" />
    <glyph glyph-name="a" unicode="a" horiz-adv-x="983" 
d="M328 240l326 1l142 -248q5 -8 13 -8h92q11 0 14.5 6.5t-1.5 16.5l-410 710q-5 9 -13 9t-13 -10l-408 -710q-5 -9 -1.5 -15.5t14.5 -6.5h90q8 0 13 8zM663 256l-344 -1l-146 -255h-90l408 710l410 -710h-92zM619 331l-128 223l-128 -223h256zM491 524l102 -178h-204z" />
    <glyph glyph-name="b" unicode="b" 
d="M492 724h-409q-6 0 -10.5 -4.5t-4.5 -10.5v-709q0 -6 4.5 -10.5t10.5 -4.5h411q48 0 84.5 3t82 15.5t74.5 34t49.5 61.5t20.5 95q0 114 -78 176q68 52 68 149q0 55 -19.5 94.5t-47.5 60t-72 32.5t-80 15t-84 3zM83 709h409q49 0 84.5 -3t76.5 -14t66.5 -31t43 -56
t17.5 -86q0 -101 -79 -149q89 -55 89 -176q0 -69 -36 -115q-26 -36 -77 -54.5t-88 -21.5t-95 -3h-411v709zM161 408h341q43 0 71.5 3t61 13t49.5 33.5t17 60.5q0 74 -69 98q-28 9 -69 11q-24 2 -72 2h-330v-221zM502 423h-326v191h315q44 0 67 -1q38 -2 65 -10
q63 -20 63 -85q0 -61 -60 -81q-40 -14 -124 -14zM691 270q-15 27 -44 40.5t-53 15.5t-67 2h-366v-248h349q35 0 58.5 1.5t53 7.5t47 18t29.5 34t12 53q0 43 -19 76zM176 313h351q85 0 126.5 -23.5t41.5 -95.5q0 -65 -59 -85q-36 -14 -126 -14h-334v218z" />
    <glyph glyph-name="c" unicode="c" horiz-adv-x="908" 
d="M485 725q-199 0 -308 -86.5t-109 -282.5q0 -197 109 -283.5t308 -86.5q46 0 93 6t100 19.5t96.5 42.5t64.5 70q6 9 -3 18l-58 56q-7 7 -14 5t-10 -11q-18 -52 -114 -77q-69 -20 -155 -20q-158 0 -233 56.5t-75 204.5t75 203.5t233 55.5q85 0 155 -19q96 -25 114 -77
q3 -9 10 -11t14 5l58 56q10 10 2 20l-3 4q-14 20 -16 22q-6 9 -21 22q-54 48 -140 68t-173 20zM83 356q0 185 101.5 269.5t300.5 84.5q45 0 90.5 -5.5t95 -18.5t90.5 -39.5t62 -62.5l3 -4l-58 -56l-4 8q-57 98 -279 98q-167 0 -245 -61t-78 -213q0 -153 78 -214.5t245 -61.5
q89 0 168 22t111 77l4 8l58 -56l-3 -5q-40 -68 -137.5 -96.5t-200.5 -28.5q-199 0 -300.5 84.5t-101.5 270.5z" />
    <glyph glyph-name="d" unicode="d" horiz-adv-x="887" 
d="M413 725h-330q-6 0 -10.5 -4.5t-4.5 -10.5v-710q0 -6 4.5 -10.5t10.5 -4.5h330q406 0 406 369q0 371 -406 371zM83 710h330q230 0 324 -120q67 -88 67 -236q0 -354 -391 -354h-330v710zM161 80h252q192 0 261 89q51 65 51 187q0 121 -51 186q-69 88 -261 88h-252v-550z
M413 95h-237v520h237q151 0 224 -57.5t73 -201.5t-73 -202.5t-224 -58.5z" />
    <glyph glyph-name="e" unicode="e" horiz-adv-x="824" 
d="M176 614h566q6 0 10.5 4.5t4.5 10.5v80q0 6 -4.5 10.5t-10.5 4.5h-659q-6 0 -10.5 -4.5t-4.5 -10.5v-709q0 -6 4.5 -10.5t10.5 -4.5h657q6 0 10.5 4.5t4.5 10.5v80q0 6 -4.5 10.5t-10.5 4.5h-564v218h428q6 0 10.5 4.5t4.5 10.5v80q0 6 -4.5 10.5t-10.5 4.5h-428v191z
M742 629h-581v-221h443v-80h-443v-248h579v-80h-657v709h659v-80z" />
    <glyph glyph-name="f" unicode="f" horiz-adv-x="824" 
d="M176 614h566q6 0 10.5 4.5t4.5 10.5v80q0 6 -4.5 10.5t-10.5 4.5h-659q-6 0 -10.5 -4.5t-4.5 -10.5v-709q0 -6 4.5 -10.5t10.5 -4.5h78q6 0 10.5 4.5t4.5 10.5v313h428q6 0 10.5 4.5t4.5 10.5v80q0 6 -4.5 10.5t-10.5 4.5h-428v191zM742 629h-581v-221h443v-80h-443v-328
h-78v709h659v-80z" />
    <glyph glyph-name="g" unicode="g" horiz-adv-x="908" 
d="M485 725q-417 0 -417 -369q0 -197 109 -283.5t308 -86.5q46 0 93 6t100 19.5t96.5 42.5t64.5 70l2 7v277q0 6 -4.5 10.5t-10.5 4.5h-511q-6 0 -10.5 -4.5t-4.5 -10.5v-80q0 -6 4.5 -10.5t10.5 -4.5h408v-157q-73 -61 -238 -61q-158 0 -233 56.5t-75 204.5t75 203.5
t233 55.5q85 0 155 -19q96 -25 114 -77q3 -9 10 -11t14 5l58 56q10 10 2 20l-3 4q-94 132 -350 132zM83 356q0 185 102 269.5t300 84.5q45 0 90.5 -5.5t95 -18.5t90.5 -39.5t62 -62.5l3 -4l-58 -56l-4 8q-57 98 -279 98q-167 0 -245 -61t-78 -213q0 -153 78 -214.5
t245 -61.5q177 0 253 69v179h-423v80h511v-277l-3 -5q-40 -68 -137.5 -96.5t-200.5 -28.5q-199 0 -300.5 84.5t-101.5 270.5z" />
    <glyph glyph-name="h" unicode="h" 
d="M696 313v-313q0 -6 4.5 -10.5t10.5 -4.5h79q6 0 10.5 4.5t4.5 10.5v710q0 6 -4.5 10.5t-10.5 4.5h-79q-6 0 -10.5 -4.5t-4.5 -10.5v-287h-520v287q0 6 -4.5 10.5t-10.5 4.5h-78q-6 0 -10.5 -4.5t-4.5 -10.5v-710q0 -6 4.5 -10.5t10.5 -4.5h78q6 0 10.5 4.5t4.5 10.5v313
h520zM711 0v328h-550v-328h-78v710h78v-302h550v302h79v-710h-79z" />
    <glyph glyph-name="i" unicode="i" horiz-adv-x="243" 
d="M83 -15h78q6 0 10.5 4.5t4.5 10.5v710q0 6 -4.5 10.5t-10.5 4.5h-78q-6 0 -10.5 -4.5t-4.5 -10.5v-710q0 -6 4.5 -10.5t10.5 -4.5zM161 0h-78v710h78v-710z" />
    <glyph glyph-name="j" unicode="j" horiz-adv-x="818" 
d="M750 428v282q0 6 -4.5 10.5t-10.5 4.5h-78q-6 0 -10.5 -4.5t-4.5 -10.5v-282q0 -76 -9.5 -131t-34 -104t-74 -74.5t-123.5 -25.5q-156 0 -206 116q-4 8 -15 49v2l-2 5q-4 9 -14 9h-81q-18 0 -15 -19q35 -137 113.5 -203.5t219.5 -66.5q82 0 144.5 24t101 64t62 99
t32.5 120t9 136zM735 710v-282q0 -71 -7.5 -128.5t-29.5 -115t-58 -96.5t-97 -63.5t-142 -24.5q-260 0 -316 251l-2 8h81l2 -5q37 -176 235 -176q110 0 169 53q87 75 87 297v282h78z" />
    <glyph glyph-name="k" unicode="k" horiz-adv-x="936" 
d="M838 13l-598 361l621 323q13 7 10 17.5t-17 10.5h-156q-9 0 -19 -5l-503 -261l-1 251q0 6 -4.5 10.5t-10.5 4.5h-77q-6 0 -10.5 -4.5t-4.5 -10.5v-710q0 -6 4.5 -10.5t10.5 -4.5h78q6 0 10.5 4.5t4.5 10.5v289l503 -302l8 -2h143q14 0 17 10.5t-9 17.5zM209 375l621 -375
h-143l-526 316v-316h-78v710h77l1 -276l525 273q6 3 12 3h9h147z" />
    <glyph glyph-name="l" unicode="l" horiz-adv-x="823" 
d="M740 95h-564v615q0 6 -4.5 10.5t-10.5 4.5h-78q-6 0 -10.5 -4.5t-4.5 -10.5v-710q0 -6 4.5 -10.5t10.5 -4.5h657q6 0 10.5 4.5t4.5 10.5v80q0 6 -4.5 10.5t-10.5 4.5zM161 80h579v-80h-657v710h78v-630z" />
    <glyph glyph-name="m" unicode="m" horiz-adv-x="938" 
d="M445 96l56 -1q8 0 13 7l247 389v-491q0 -6 4.5 -10.5t10.5 -4.5h78q6 0 10.5 4.5t4.5 10.5v710q0 6 -4.5 10.5t-10.5 4.5h-63q-6 0 -13 -7l-305 -478l-311 478q-7 7 -13 7h-66q-6 0 -10.5 -4.5t-4.5 -10.5v-710q0 -6 4.5 -10.5t10.5 -4.5h79q6 0 10.5 4.5t4.5 10.5v490
l255 -387q7 -7 13 -7zM501 110l-56 1l-283 429v-540h-79v710h66l324 -498l318 498h63v-710h-78v542z" />
    <glyph glyph-name="n" unicode="n" 
d="M176 547l541 -557q3 -5 11 -5h62q6 0 10.5 4.5t4.5 10.5v710q0 6 -4.5 10.5t-10.5 4.5h-79q-6 0 -10.5 -4.5t-4.5 -10.5v-546l-541 556q-3 5 -11 5h-61q-6 0 -10.5 -4.5t-4.5 -10.5v-710q0 -6 4.5 -10.5t10.5 -4.5h78q6 0 10.5 4.5t4.5 10.5v547zM728 0l-567 584v-584
h-78v710h61l567 -583v583h79v-710h-62z" />
    <glyph glyph-name="o" unicode="o" horiz-adv-x="968" 
d="M68 355q0 -198 108 -285t309 -87q199 0 307.5 87.5t108.5 284.5q0 101 -29 173.5t-85 115t-130 62t-172 19.5q-199 0 -308 -87t-109 -283zM485 -2q-200 0 -301 85t-101 272q0 185 102 270t300 85q200 0 300.5 -84t100.5 -271q0 -186 -101.5 -271.5t-299.5 -85.5zM485 78
q165 0 243 62.5t78 214.5q0 153 -77 214t-244 61t-245 -61t-78 -214t78.5 -215t244.5 -62zM791 355q0 -147 -75 -204.5t-231 -57.5q-158 0 -233 56.5t-75 205.5q0 148 75 204t233 56t232 -55.5t74 -204.5z" />
    <glyph glyph-name="p" unicode="p" horiz-adv-x="863" 
d="M492 725h-409q-6 0 -10.5 -4.5t-4.5 -10.5v-710q0 -6 4.5 -10.5t10.5 -4.5h80q6 0 10.5 4.5t4.5 10.5l-2 285h316q48 0 84 3t80 15t72 33t47.5 60.5t19.5 94.5v29q0 55 -19.5 94.5t-47.5 60t-72 32.5t-80 15t-84 3zM83 710h409q49 0 84.5 -3t76.5 -14.5t67 -31t43 -55.5
t17 -86v-29q0 -50 -17.5 -86t-43 -56t-66.5 -31.5t-76.5 -14.5t-84.5 -3h-331l2 -300h-80v710zM161 381h351q37 0 61.5 2t55 10t48 26.5t22.5 47.5q2 11 2 33v19q0 27 -7.5 46.5t-24.5 31t-32.5 18.5t-43.5 10t-45 3.5t-50 0.5h-337v-248zM512 396h-336v218h322q43 0 66 -1
q37 -2 62 -10q60 -21 60 -84v-26q0 -16 -2 -23q-8 -47 -63 -64q-34 -10 -109 -10z" />
    <glyph glyph-name="q" unicode="q" horiz-adv-x="999" 
d="M725 29l72 -77q3 -5 11 -5h109q12 0 15.5 8t-4.5 17l-113 121q86 94 86 262q0 101 -29 173.5t-85 115t-130 62t-172 19.5q-199 0 -308 -87t-109 -283q0 -198 108 -285t309 -87q143 0 240 46zM808 -38l-80 85q-94 -49 -243 -49q-200 0 -301 85t-101 272q0 185 102 270
t300 85q200 0 300.5 -84t100.5 -271q0 -173 -92 -262l123 -131h-109zM542 363l198 -212q66 65 66 204q0 153 -77 214t-244 61t-245 -61t-78 -214t78.5 -215t244.5 -62q110 0 186 30l-237 255h108zM740 173l-187 200q-5 5 -11 5h-108q-12 0 -15.5 -8t4.5 -17l222 -239
q-67 -21 -160 -21q-158 0 -233 56.5t-75 205.5q0 148 75 204t233 56t232 -55.5t74 -204.5q0 -121 -51 -182z" />
    <glyph glyph-name="r" unicode="r" horiz-adv-x="887" 
d="M492 725h-409q-6 0 -10.5 -4.5t-4.5 -10.5v-710q0 -6 4.5 -10.5t10.5 -4.5h80q6 0 10.5 4.5t4.5 10.5l-2 285h232l276 -295q5 -5 11 -5h108q12 0 15.5 8t-4.5 17l-258 277q50 3 89 13t75 32t55.5 62t19.5 97v29q0 55 -19.5 94.5t-47.5 60t-72 32.5t-80 15t-84 3zM83 710
h409q49 0 84.5 -3t76.5 -14.5t67 -31t43 -55.5t17 -86v-29q0 -57 -20.5 -95.5t-59.5 -58t-80.5 -27.5t-96.5 -9l280 -301h-108l-280 300h-254l2 -300h-80v710zM161 381h351q37 0 61.5 2t55 10t48 26.5t22.5 47.5q2 11 2 33v19q0 27 -7.5 46.5t-24.5 31t-32.5 18.5t-43.5 10
t-45 3.5t-50 0.5h-337v-248zM512 396h-336v218h322q43 0 66 -1q37 -2 62 -10q60 -21 60 -84v-26q0 -16 -2 -23q-8 -47 -63 -64q-34 -10 -109 -10z" />
    <glyph glyph-name="s" unicode="s" horiz-adv-x="851" 
d="M373 -15h108q48 0 82.5 2.5t79 14t72.5 32t48 59t20 92.5q0 51 -3 68q-7 42 -34 76q-48 61 -155 75q-62 9 -193 5q-115 -2 -162 13q-60 19 -60 78q0 28 1 42q3 20 13 34q17 24 73 34q33 5 93 5h135q34 0 54 -1q35 -2 57 -8q58 -15 65 -59q2 -14 2 -65q0 -6 4.5 -10.5
t10.5 -4.5h78q6 0 10.5 4.5t4.5 10.5q0 67 -3 89q-5 37 -33 73q-42 53 -125 71q-34 7 -71 9q-24 1 -69 1h-107q-47 0 -81.5 -2.5t-79 -14t-72.5 -31.5t-48 -58.5t-20 -92.5q0 -46 3 -69q7 -43 33 -76q48 -61 156 -75q49 -7 193 -5q114 2 161 -12q60 -21 60 -80q0 -36 -2 -46
q-7 -43 -62 -58q-35 -10 -107 -10h-141q-35 0 -55 1q-33 2 -57 7q-59 15 -66 60q-2 14 -2 65q0 6 -4.5 10.5t-10.5 4.5h-79q-6 0 -10.5 -4.5t-4.5 -10.5v-44q0 -26 4 -46q7 -35 24 -62t43 -43t52 -26.5t61 -14.5t59 -5.5t57 -1.5zM481 0h-108q-58 0 -93 2.5t-83.5 20.5
t-74.5 52q-24 33 -30 66q-4 20 -4 59v28h79v-32q0 -23 2 -35q3 -23 18 -39.5t32 -24.5t46.5 -12t47 -4.5t49.5 -0.5h141q35 0 59 2t54.5 9.5t48.5 25t22 44.5q2 11 2 33v15q0 73 -69 94q-28 9 -69 11q-25 1 -72 1h-110q-58 0 -93 2.5t-84 20.5t-76 52q-26 32 -30 69
q-3 17 -3 52v15q0 49 17.5 84t43 54t66.5 30t76 13.5t83 2.5h107q43 0 68.5 -1.5t65.5 -7.5t69.5 -22.5t49.5 -43.5q24 -30 30 -66q3 -21 3 -61v-26h-78v30q0 24 -2 37q-5 28 -23 46t-51 25t-56 8.5t-61 1.5h-135q-144 0 -178 -45q-17 -23 -17 -70v-15q0 -72 70 -93
q28 -9 69 -11q25 -1 72 -1h109q43 0 69 -1.5t65 -8t68.5 -23t50.5 -42.5q25 -31 31 -69q3 -17 3 -51v-15q0 -41 -11.5 -72.5t-33.5 -51t-47 -32.5t-61 -19t-65.5 -8t-68.5 -2z" />
    <glyph glyph-name="t" unicode="t" horiz-adv-x="878" 
d="M810 629v81q0 6 -4.5 10.5t-10.5 4.5h-712q-6 0 -10.5 -4.5t-4.5 -10.5v-81q0 -6 4.5 -10.5t10.5 -4.5h302l-1 -614q0 -6 4.5 -10.5t10.5 -4.5h79q6 0 10.5 4.5t4.5 10.5v614h302q6 0 10.5 4.5t4.5 10.5zM795 710v-81h-317v-629h-79l1 629h-317v81h712z" />
    <glyph glyph-name="u" unicode="u" horiz-adv-x="833" 
d="M766 428v282q0 6 -4.5 10.5t-10.5 4.5h-78q-6 0 -10.5 -4.5t-4.5 -10.5v-282q0 -76 -9.5 -131t-34.5 -104t-74.5 -74.5t-123.5 -25.5t-123 25.5t-73.5 74.5t-34 104t-9.5 131v282q0 6 -4.5 10.5t-10.5 4.5h-78q-6 0 -10.5 -4.5t-4.5 -10.5v-282q0 -74 9 -135.5t32.5 -120
t62 -98.5t100.5 -64.5t144 -24.5t144.5 24t101 64t62.5 98.5t33 120t9 136.5zM751 710v-282q0 -70 -7.5 -128t-30 -115.5t-58.5 -96.5t-97 -63.5t-142 -24.5t-141.5 24.5t-96.5 64t-58 97t-29.5 115t-7.5 127.5v282h78v-282q0 -223 87 -297q61 -53 168 -53t169 53
q88 75 88 297v282h78z" />
    <glyph glyph-name="v" unicode="v" horiz-adv-x="1032" 
d="M562 -14l401 717q5 9 1.5 15.5t-14.5 6.5h-88q-10 0 -13 -8l-328 -585l-333 585q-5 8 -13 8h-92q-11 0 -14.5 -6.5t1.5 -15.5l411 -715q1 -2 5.5 -5t6.5 -3l55 -2q9 0 14 8zM950 710l-401 -717l-55 2l-411 715h92l346 -608l341 608h88z" />
    <glyph glyph-name="w" unicode="w" horiz-adv-x="1196" 
d="M793 -20l8 -1h28q13 0 18 1h8q1 1 3.5 1.5t3.5 0.5q4 0 9 9l257 714q3 8 -1 14t-13 6h-83q-11 0 -14 -10l-190 -531l-183 531q-1 3 -5.5 6.5t-8.5 3.5h-64q-4 0 -8.5 -3.5t-5.5 -6.5l-183 -531l-189 531q-1 3 -5.5 6.5t-8.5 3.5h-83q-9 0 -13 -6t-1 -14l256 -715
q3 -10 14 -10q6 0 17.5 -0.5t17.5 -0.5h26q4 0 8.5 3.5t5.5 6.5l184 538l184 -537q2 -7 11 -10zM821 -6h-20l-5 1l-198 578l-198 -579h-26q-5 0 -15 0.5t-15 0.5h-5l-256 715h83l203 -571l197 571h64l197 -571l204 571h83l-257 -714l-4 -1q-5 0 -16 -0.5t-16 -0.5z" />
    <glyph glyph-name="x" unicode="x" horiz-adv-x="932" 
d="M467 276l266 -286q5 -5 11 -5h106q12 0 15.5 8t-4.5 17l-321 345l321 345q8 9 4.5 17t-15.5 8h-101q-9 0 -11 -5l-271 -288l-271 288q-2 5 -11 5h-102q-12 0 -15.5 -8t4.5 -17l321 -345l-321 -345q-8 -9 -4.5 -17t15.5 -8h104q9 0 11 5zM744 0l-277 298l-280 -298h-104
l331 355l-331 355h102l282 -300l282 300h101l-330 -355l330 -355h-106z" />
    <glyph glyph-name="y" unicode="y" horiz-adv-x="938" 
d="M470 435l-271 285q-3 5 -11 5h-105q-12 0 -15.5 -8t4.5 -17l343 -365v-335q0 -6 4.5 -10.5t10.5 -4.5h77q6 0 10.5 4.5t4.5 10.5v333l345 367q8 9 4.5 17t-15.5 8h-106q-8 0 -11 -5zM188 710l282 -297l280 297h106l-349 -371v-339h-77v341l-347 369h105z" />
    <glyph glyph-name="z" unicode="z" horiz-adv-x="824" 
d="M83 -15h657q6 0 10.5 4.5t4.5 10.5v80q0 6 -4.5 10.5t-10.5 4.5h-499l512 542q4 4 4 10v63q0 6 -4.5 10.5t-10.5 4.5h-659q-6 0 -10.5 -4.5t-4.5 -10.5v-81q0 -6 4.5 -10.5t10.5 -4.5l501 2l-512 -543q-4 -4 -4 -10v-63q0 -6 4.5 -10.5t10.5 -4.5zM740 0h-657v63l536 568
l-536 -2v81h659v-63l-536 -567h534v-80z" />
    <glyph glyph-name="braceleft" unicode="{" horiz-adv-x="747" 
d="M667 783q-108 16 -162 16q-124 0 -178.5 -49.5t-54.5 -172.5v-69q0 -46 -8 -63q-14 -34 -75 -45q-42 -8 -106 -6q-6 0 -10.5 -4.5t-4.5 -10.5v-73q0 -6 4.5 -10.5t10.5 -4.5q61 2 109 -8q63 -13 75 -49q4 -16 4 -27q1 -11 1 -31q0 -107 2 -123q7 -51 26.5 -85.5t52 -52
t68 -24t84.5 -6.5q72 0 162 15q13 2 13 15v82q0 8 -5 12.5t-13 2.5q-77 -19 -162 -19q-73 0 -96.5 21t-23.5 92v65q0 41 -5 68q-12 67 -56 103q28 22 42.5 56.5t16.5 60t2 69.5q0 67 1 78q2 32 10 49q20 35 109 35t162 -18q8 -2 13 2.5t5 12.5v81q0 13 -13 15zM143 380
q30 2 56 6q63 14 79 53q9 21 9 79v59q0 114 49 160.5t169 46.5q77 0 154 -15l6 -1v-81l-9 2q-76 16 -156 16q-98 0 -122 -43q-10 -21 -13 -55v-79q0 -75 -11 -109q-17 -50 -62 -77q44 -26 58.5 -69t14.5 -103v-64q0 -76 27 -102t108 -26q76 0 156 17l9 2v-82l-6 -1
q-79 -14 -154 -14q-99 0 -152 32.5t-64 122.5q-2 16 -2 121q0 43 -6 63q-16 44 -78 57q-25 5 -58 7q-12 1 -32.5 2t-23.5 1h-6v73h7q15 1 53 1z" />
    <glyph glyph-name="bar" unicode="|" horiz-adv-x="245" 
d="M68 801v-914q0 -6 4.5 -10.5t10.5 -4.5h80q6 0 10.5 4.5t4.5 10.5v914q0 6 -4.5 10.5t-10.5 4.5h-80q-6 0 -10.5 -4.5t-4.5 -10.5zM83 -113v914h80v-914h-80z" />
    <glyph glyph-name="braceright" unicode="}" horiz-adv-x="747" 
d="M372 444q12 -67 56 -102q-58 -44 -60 -155q0 -10 1 -42t0 -48q0 -43 -13 -68q-12 -21 -45 -30q-25 -6 -64 -6q-77 0 -161 19q-8 2 -13 -2.5t-5 -12.5v-82q0 -13 13 -15q88 -15 161 -15q121 0 177.5 49.5t56.5 171.5q0 10 -1 32.5t-1 34.5q0 40 7 61q13 36 75 49
q42 10 109 8q6 0 10.5 4.5t4.5 10.5v73q0 6 -4.5 10.5t-10.5 4.5q-61 -2 -107 5q-62 13 -75 44q-8 22 -8 66q0 106 -2 122q-13 97 -71.5 132.5t-159.5 35.5q-53 0 -161 -16q-13 -2 -13 -15v-81q0 -8 5 -12.5t13 -2.5q80 18 161 18q75 0 98 -21t23 -93q0 -10 -0.5 -32
t-0.5 -33q0 -41 5 -67zM369 22q10 17 13 55q1 23 1 78q0 75 10 109q17 53 62 78q-44 26 -58.5 69t-14.5 102q0 11 0.5 32t0.5 31q0 77 -27 103t-109 26q-81 0 -155 -16l-9 -2v81l6 1q77 15 153 15q98 0 151.5 -33t64.5 -122q2 -16 2 -120q0 -47 9 -71q15 -38 79 -52
q26 -4 57 -6q37 0 52 -1h8v-73h-7q-3 0 -23.5 -1t-32.5 -2q-33 -2 -57 -7q-63 -13 -78 -57q-8 -24 -8 -71q0 -10 1 -30.5t1 -31.5q0 -95 -35 -141q-30 -40 -75 -52.5t-109 -12.5q-74 0 -153 14l-6 1v82l9 -2q79 -17 155 -17q98 0 122 44z" />
    <glyph glyph-name="asciitilde" unicode="~" horiz-adv-x="667" 
d="M68 362v-60q0 -6 4.5 -10.5t10.5 -4.5h48q9 0 14 9q12 26 34 49.5t39 23.5q19 0 43 -15q13 -7 52 -35q77 -56 135 -56q83 0 135 82q1 2 2.5 4.5t3.5 5.5t3 5q7 14 7 23v60q0 6 -4.5 10.5t-10.5 4.5h-48q-6 0 -9 -3q-5 -3 -9 -10q-2 -2 -8 -12q-1 -2 -6.5 -11.5
t-9.5 -14.5q-22 -30 -46 -30q-19 0 -43 15q-11 6 -51 35q-77 56 -136 56q-74 0 -133 -82q-1 -1 -4.5 -6.5t-5.5 -9.5q-7 -11 -7 -23zM83 302v60q0 6 6 18q1 2 2.5 4t3 4.5t2.5 3.5q53 76 121 76q55 0 130 -55q39 -28 53 -36q24 -15 47 -15q26 0 49 26q11 11 21 26
q8 12 15 26l3 3h48v-60q0 -7 -6 -17q-4 -6 -8 -13q-52 -75 -122 -75q-53 0 -128 54q-32 25 -53 36q-27 16 -49 16q-25 0 -49 -27q-10 -10 -20 -25q-4 -5 -9.5 -14.5t-6.5 -11.5l-2 -4h-48z" />
    <glyph glyph-name="cent" unicode="&#xa2;" horiz-adv-x="698" 
d="M425 184v316q95 -11 121 -69q10 -18 25 -5l56 57q5 8 3 17l-3 7q-55 87 -202 101v154q0 6 -4.5 10.5t-10.5 4.5h-83q-6 0 -10.5 -4.5t-4.5 -10.5v-154q-244 -24 -244 -265q0 -244 244 -267v-132q0 -6 4.5 -10.5t10.5 -4.5h83q6 0 10.5 4.5t4.5 10.5v132q146 14 202 101
l3 7q2 9 -3 17l-56 56q-12 12 -23 -2q-26 -36 -52.5 -51t-70.5 -20zM410 516v-348q107 9 145 71l5 7l56 -56l-2 -5q-55 -85 -204 -95v-146h-83v146q-244 16 -244 253q0 235 244 251v168h83v-168q149 -10 204 -95l2 -5l-56 -57l-5 9q-39 63 -145 70zM327 168v348
q-88 -6 -127 -47t-39 -127t39 -127t127 -47zM312 500v-316q-72 8 -104 44.5t-32 113.5t32 113.5t104 44.5z" />
    <glyph glyph-name="sterling" unicode="&#xa3;" horiz-adv-x="929" 
d="M198 395h-115q-6 0 -10.5 -4.5t-4.5 -10.5v-81q0 -6 4.5 -10.5t10.5 -4.5h115v-191l-116 -9q-14 -2 -14 -15v-69q0 -6 4.5 -10.5t10.5 -4.5h763q6 0 10.5 4.5t4.5 10.5v81q0 6 -4.5 10.5t-10.5 4.5h-539v188h448q6 0 10.5 4.5t4.5 10.5v81q0 6 -4.5 10.5t-10.5 4.5h-448
q2 128 49 169t183 41q154 0 281 -62q8 -4 14.5 0t6.5 14v90q0 5 -4 9.5t-8 5.5h-3q-151 53 -287 53q-181 0 -259.5 -72t-81.5 -248zM83 380h130q0 58 5 99q10 66 36.5 110.5t70.5 68t94.5 33t119.5 9.5q157 0 282 -52l5 -1v-90l-11 5q-135 58 -276 58q-78 0 -125 -11
t-74.5 -41t-37.5 -73t-10 -115h463v-81h-463v-218h554v-81h-763v69l130 10v220h-130v81z" />
    <glyph glyph-name="yen" unicode="&#xa5;" horiz-adv-x="986" 
d="M441 261v-34h-266q-6 0 -10.5 -4.5t-4.5 -10.5v-79q0 -6 4.5 -10.5t10.5 -4.5h266v-118q0 -6 4.5 -10.5t10.5 -4.5h78q6 0 10.5 4.5t4.5 10.5v118h264q6 0 10.5 4.5t4.5 10.5v79q0 6 -4.5 10.5t-10.5 4.5h-264v34h264q6 0 10.5 4.5t4.5 10.5v78q0 6 -4.5 10.5t-10.5 4.5
h-192l293 307q8 9 4.5 17t-15.5 8h-109q-8 0 -11 -5l-288 -303l-292 303q-3 5 -11 5h-109q-13 0 -16 -8.5t5 -16.5l296 -307h-193q-6 0 -10.5 -4.5t-4.5 -10.5v-78q0 -6 4.5 -10.5t10.5 -4.5h266zM456 212v64h-281v78h228l-320 332h109l303 -315l299 315h109l-317 -332h227
v-78h-279v-64h279v-79h-279v-133h-78v133h-281v79h281z" />
    <glyph glyph-name="dieresis" unicode="&#xa8;" horiz-adv-x="471" 
d="M68 835v-97q0 -6 4.5 -10.5t10.5 -4.5h98q6 0 10.5 4.5t4.5 10.5v97q0 6 -4.5 10.5t-10.5 4.5h-98q-6 0 -10.5 -4.5t-4.5 -10.5zM275 835v-97q0 -6 4.5 -10.5t10.5 -4.5h99q6 0 10.5 4.5t4.5 10.5v97q0 6 -4.5 10.5t-10.5 4.5h-99q-6 0 -10.5 -4.5t-4.5 -10.5zM83 738v97
h98v-97h-98zM290 738v97h99v-97h-99z" />
    <glyph glyph-name="copyright" unicode="&#xa9;" horiz-adv-x="1039" 
d="M68 341q0 -233 109 -337.5t343 -104.5t342.5 105t108.5 337q0 233 -108.5 337.5t-342.5 104.5q-233 0 -342.5 -105t-109.5 -337zM520 -86q-233 0 -335 103t-102 324t102.5 324t334.5 103q233 0 334.5 -102.5t101.5 -324.5q0 -221 -102 -324t-334 -103zM520 -6
q199 0 278.5 79t79.5 268q0 190 -79.5 269t-278.5 79t-279 -79.5t-80 -268.5t79.5 -268t279.5 -79zM863 341q0 -186 -77 -259t-266 -73q-190 0 -267 73t-77 259t77.5 259.5t266.5 73.5t266 -73t77 -260zM527 463q97 0 194 -66q9 -7 16 -3t7 15v94q0 9 -6 12q-37 27 -99 42.5
t-112 15.5q-255 0 -255 -232t255 -232q50 0 112 15.5t99 42.5q6 3 6 12v94q0 11 -7 15t-16 -3q-97 -66 -194 -66q-77 0 -111 26t-34 96t34 96t111 26zM729 409l-12 8q-92 61 -190 61q-84 0 -122 -30.5t-38 -106.5t38 -106.5t122 -30.5q98 0 190 61l12 8v-94l-3 -2
q-38 -25 -94 -39t-105 -14q-240 0 -240 217t240 217q49 0 105 -14t94 -39l3 -2v-94z" />
    <glyph glyph-name="guillemotleft" unicode="&#xab;" horiz-adv-x="741" 
d="M202 350l236 201q10 8 6.5 17t-16.5 9h-116q-6 0 -10 -4l-229 -194q-5 -5 -5 -11v-37q0 -6 5 -11l229 -192q4 -4 10 -4h117q13 0 16.5 9t-6.5 17zM430 350l236 201q10 8 6.5 17t-16.5 9h-115q-6 0 -10 -4l-230 -194q-5 -5 -5 -11v-37q0 -2 5 -12l230 -192l10 -3h118
q13 0 16.5 9t-6.5 18zM428 562l-249 -212l250 -211h-117l-229 192v37l229 194h116zM656 562l-249 -212l252 -211h-118l-230 192v37l230 194h115z" />
    <glyph glyph-name="registered" unicode="&#xae;" horiz-adv-x="671" 
d="M68 468q0 -132 68 -202t200 -70q133 0 200.5 69.5t67.5 202.5t-67.5 202.5t-200.5 69.5q-132 0 -200 -70t-68 -202zM336 211q-253 0 -253 257t253 257t253 -257t-253 -257zM211 599h151q114 0 114 -90q0 -56 -42 -78l53 -45v-38q25 40 25 120q0 95 -39 137.5t-137 42.5
t-137.5 -43t-39.5 -137t39.5 -137t137.5 -43q110 0 148 55h-64l-85 73h-48v-73h-76v256zM492 402l-33 28q32 28 32 79q0 105 -129 105h-127q37 19 101 19q90 0 125.5 -37t35.5 -128q0 -40 -5 -66zM196 577v-218q-22 38 -22 109t22 109zM370 494h13q7 0 9 2q6 2 6 13
q0 8 -3 11q-1 0 -3 0.5t-4 0.5h-12h-89v-27h83zM225 328h62q6 0 10.5 4.5t4.5 10.5v58h27l81 -69q4 -4 10 -4h28q-38 -25 -112 -25q-73 0 -111 25z" />
    <glyph glyph-name="macron" unicode="&#xaf;" horiz-adv-x="597" 
d="M68 835v-78q0 -6 4.5 -10.5t10.5 -4.5h432q6 0 10.5 4.5t4.5 10.5v78q0 6 -4.5 10.5t-10.5 4.5h-432q-6 0 -10.5 -4.5t-4.5 -10.5zM83 757v78h432v-78h-432z" />
    <glyph glyph-name="degree" unicode="&#xb0;" horiz-adv-x="634" 
d="M68 500q0 -218 249 -218t249 218q0 217 -249 217t-249 -217zM317 297q-234 0 -234 203q0 202 234 202t234 -202q0 -203 -234 -203zM317 376q82 0 119 25.5t37 98.5q0 72 -37 97.5t-119 25.5t-119 -25.5t-37 -97.5q0 -73 37 -98.5t119 -25.5zM458 500q0 -66 -32.5 -87.5
t-108.5 -21.5t-108.5 21.5t-32.5 87.5t32.5 87t108.5 21t108.5 -21t32.5 -87z" />
    <glyph glyph-name="acute" unicode="&#xb4;" horiz-adv-x="450" 
d="M155 707l221 131q7 7 7 13v44q0 6 -4.5 10.5t-10.5 4.5h-80l-8 -2l-205 -130q-7 -7 -7 -13v-45q0 -6 4.5 -10.5t10.5 -4.5h64zM368 851l-221 -131h-64v45l205 130h80v-44z" />
    <glyph glyph-name="cedilla" unicode="&#xb8;" horiz-adv-x="485" 
d="M296 70l-224 -237q-8 -9 -4.5 -17t15.5 -8h108q6 0 11 5l212 237q8 9 4.5 17t-15.5 8h-96q-9 0 -11 -5zM83 -177l224 237h96l-212 -237h-108z" />
    <glyph glyph-name="guillemotright" unicode="&#xbb;" horiz-adv-x="740" 
d="M444 332v36q0 6 -5 11l-229 194q-4 4 -10 4h-117q-13 0 -16.5 -9t6.5 -17l236 -201l-235 -200q-10 -8 -6.5 -17t16.5 -9h116q6 0 10 4l229 193q5 5 5 11zM673 332v36q0 6 -5 11l-230 194q-4 4 -10 4h-116q-13 0 -16.5 -9t6.5 -17l236 -201l-235 -200q-10 -8 -6.5 -17
t16.5 -9h115q6 0 10 4l230 193q5 5 5 11zM429 368v-36l-229 -193h-116l248 211l-249 212h117zM658 368v-36l-230 -193h-115l248 211l-249 212h116z" />
    <glyph glyph-name="multiply" unicode="&#xd7;" horiz-adv-x="674" 
d="M337 435l-200 203q-14 12 -24 -3l-43 -69q-6 -11 2 -19l188 -190l-188 -189q-8 -8 -2 -19l42 -69q10 -15 24 -3l201 204l200 -203q14 -12 24 3l44 69q6 11 -2 19l-189 189l189 190q8 8 2 19l-43 69q-10 15 -24 3zM126 627l211 -213l212 214l43 -69l-199 -201l199 -200
l-44 -69l-211 213l-212 -214l-42 69l198 200l-198 201z" />
    <glyph glyph-name="divide" unicode="&#xf7;" horiz-adv-x="766" 
d="M320 631v-103q0 -6 4.5 -10.5t10.5 -4.5h96q6 0 10.5 4.5t4.5 10.5v103q0 6 -4.5 10.5t-10.5 4.5h-96q-6 0 -10.5 -4.5t-4.5 -10.5zM335 528v103h96v-103h-96zM68 383v-81q0 -6 4.5 -10.5t10.5 -4.5h600q6 0 10.5 4.5t4.5 10.5v81q0 6 -4.5 10.5t-10.5 4.5h-600
q-6 0 -10.5 -4.5t-4.5 -10.5zM83 302v81h600v-81h-600zM320 158v-103q0 -6 4.5 -10.5t10.5 -4.5h96q6 0 10.5 4.5t4.5 10.5v103q0 6 -4.5 10.5t-10.5 4.5h-96q-6 0 -10.5 -4.5t-4.5 -10.5zM335 55v103h96v-103h-96z" />
    <glyph glyph-name="circumflex" unicode="&#x2c6;" horiz-adv-x="577" 
d="M509 720v43q0 9 -6 12l-180 135q-3 3 -9 3h-52q-6 0 -9 -3l-179 -135q-6 -3 -6 -12v-43q0 -6 4.5 -10.5t10.5 -4.5h64q6 0 9 3l132 92l133 -92q3 -3 9 -3h64q6 0 10.5 4.5t4.5 10.5zM494 763v-43h-64l-142 98l-141 -98h-64v43l179 135h52z" />
    <glyph glyph-name="caron" unicode="&#x2c7;" horiz-adv-x="577" 
d="M421 901l-133 -92l-132 92q-3 3 -9 3h-64q-6 0 -10.5 -4.5t-4.5 -10.5v-42q0 -9 6 -12l179 -137q3 -3 9 -3h52q6 0 9 3l180 137q6 3 6 12v42q0 6 -4.5 10.5t-10.5 4.5h-64q-6 0 -9 -3zM288 791l142 98h64v-42l-180 -137h-52l-179 137v42h64z" />
    <glyph glyph-name="breve" unicode="&#x2d8;" horiz-adv-x="566" 
d="M421 900q-11 -30 -56 -52.5t-83 -22.5q-36 0 -81.5 23.5t-56.5 52.5q-1 3 -5.5 6.5t-8.5 3.5h-47q-6 0 -10.5 -4.5t-4.5 -10.5v-64l2 -8q29 -48 91.5 -78.5t120.5 -30.5q33 0 76.5 13t84.5 40t54 60l1 5v62q0 6 -4.5 10.5t-10.5 4.5h-48q-9 0 -14 -10zM282 810
q45 0 87 22t64 59l2 4h48v-62l-1 -2q-26 -44 -85 -72.5t-115 -28.5q-54 0 -113.5 29t-85.5 73v64h47l2 -4q23 -36 64.5 -59t85.5 -23z" />
    <glyph glyph-name="dotaccent" unicode="&#x2d9;" horiz-adv-x="266" 
d="M68 840v-102q0 -6 4.5 -10.5t10.5 -4.5h100q6 0 10.5 4.5t4.5 10.5v102q0 6 -4.5 10.5t-10.5 4.5h-100q-6 0 -10.5 -4.5t-4.5 -10.5zM83 738v102h100v-102h-100z" />
    <glyph glyph-name="ring" unicode="&#x2da;" horiz-adv-x="561" 
d="M68 808q0 -166 213 -166t213 166q0 165 -213 165t-213 -165zM281 657q-44 0 -77 6.5t-62 23t-44 47t-15 74.5q0 84 53 117t145 33q44 0 77 -6.5t62 -22.5t44 -46.5t15 -74.5q0 -85 -53 -118t-145 -33zM281 738q30 0 46.5 1.5t35.5 8t27.5 21.5t8.5 39t-9 38.5t-27.5 21
t-35.5 8.5t-46 2q-38 0 -60.5 -3.5t-41 -19.5t-18.5 -47q0 -24 9 -39t28.5 -21.5t36.5 -8t46 -1.5zM321 754q-13 -1 -40 -1t-40 1q-20 2 -35 6q-30 12 -30 48t31 47q20 8 74 8t74 -8q29 -10 29 -47q0 -38 -29 -48q-13 -4 -34 -6z" />
    <glyph glyph-name="ogonek" unicode="&#x2db;" horiz-adv-x="488" 
d="M183 -67q4 3 14 9q23 12 52 26q15 7 36.5 17t37 17t22.5 11q10 5 10 13t-10 13l-79 42q-2 1 -7 1t-7 -1q-13 -7 -52 -23.5t-59 -27.5q-73 -40 -73 -103q0 -66 67 -91q38 -14 109 -14q65 0 160 25l5 1q4 1 8 5.5t4 9.5v85q0 9 -6 13t-14 1q-92 -33 -157 -33q-26 0 -42 2
q-9 0 -19 2zM234 -23q-68 -32 -73 -42q-2 -2 -2 -5v-4q1 -1 1 -2q1 -1 11 -4q12 -3 26 -3q19 -3 47 -3q66 0 151 30l11 4v-85l-5 -1q-75 -25 -157 -25q-30 0 -51.5 2.5t-50 10t-44 27.5t-15.5 50q0 28 14 48q16 25 74 53q19 10 84 38l4 2l79 -42l-12 -6q-8 -3 -92 -43z" />
    <glyph glyph-name="tilde" unicode="&#x2dc;" horiz-adv-x="581" 
d="M68 810v-57q0 -6 4.5 -10.5t10.5 -4.5h48q9 0 14 9q7 18 26 40t29 22q13 0 30 -11q10 -5 43 -27q66 -42 109 -42q68 0 119 78q6 8 8 12q5 8 5 19v57q0 6 -4.5 10.5t-10.5 4.5h-49q-10 0 -14 -9q-7 -18 -26 -40t-30 -22t-29 11q-8 4 -42 27q-69 42 -110 42
q-42 0 -68.5 -20t-51.5 -58q-2 -4 -3 -5l-4 -7q-4 -8 -4 -19zM83 753v57q0 8 3 14l6 9q22 34 46 52.5t61 18.5q41 0 103 -41q6 -4 21 -13.5t22 -13.5q24 -12 35 -12q18 0 39 24q7 8 15 22q3 4 5.5 7.5t5 7.5t3.5 6l2 4h49v-57q0 -6 -4 -14l-6 -9q-23 -34 -47 -52.5
t-60 -18.5q-42 0 -103 41q-33 22 -43 27q-24 12 -36 12q-17 0 -38 -24q-2 -2 -16 -22l-13 -21l-2 -4h-48z" />
    <glyph glyph-name="hungarumlaut" unicode="&#x2dd;" horiz-adv-x="577" 
d="M321 708l182 140q6 3 6 12v43q0 6 -4.5 10.5t-10.5 4.5h-73l-9 -3l-69 -56v1v43q0 6 -4.5 10.5t-10.5 4.5h-74l-10 -3l-171 -140q-5 -10 -5 -12v-43q0 -6 4.5 -10.5t10.5 -4.5h63l4 1q4 2 5 2l82 63q0 -1 -2 -4q-1 -3 -1 -4v-43q0 -6 4.5 -10.5t10.5 -4.5h63l4 1q4 2 5 2
zM328 860l-182 -140h-63v43l171 140h74v-43zM494 860l-182 -140h-63v43l172 140h73v-43z" />
    <glyph glyph-name="uni0326" unicode="&#x326;" horiz-adv-x="0" 
d="M-210 -163l-90 -114q-7 -9 -3.5 -16.5t15.5 -7.5h93q2 0 12 5q7 9 20.5 25t17.5 21q23 27 37 48q40 59 40 118v25q-2 15 -3 27q-4 12 -15 12h-79q-6 0 -10.5 -4.5t-4.5 -9.5q-1 -9 0.5 -24.5t1.5 -21.5q0 -43 -32 -83zM-288 -286l90 114q35 43 35 92q0 13 -2 37v8h79
l1 -6q2 -30 2 -43q0 -41 -15.5 -72.5t-46.5 -68.5l-50 -61h-93z" />
    <glyph glyph-name="endash" unicode="&#x2013;" horiz-adv-x="793" 
d="M68 386v-81q0 -6 4.5 -10.5t10.5 -4.5h627q6 0 10.5 4.5t4.5 10.5v81q0 6 -4.5 10.5t-10.5 4.5h-627q-6 0 -10.5 -4.5t-4.5 -10.5zM83 305v81h627v-81h-627z" />
    <glyph glyph-name="emdash" unicode="&#x2014;" horiz-adv-x="1169" 
d="M68 386v-81q0 -6 4.5 -10.5t10.5 -4.5h1004q6 0 10.5 4.5t4.5 10.5v81q0 6 -4.5 10.5t-10.5 4.5h-1004q-6 0 -10.5 -4.5t-4.5 -10.5zM83 305v81h1004v-81h-1004z" />
    <glyph glyph-name="quoteleft" unicode="&#x2018;" horiz-adv-x="458" 
d="M275 708l-205 -342q-5 -9 -1 -16t14 -7h96q8 0 13 8l196 342q5 9 1.5 15.5t-14.5 6.5h-87q-6 0 -13 -7zM83 358l205 342h87l-196 -342h-96z" />
    <glyph glyph-name="quoteright" unicode="&#x2019;" horiz-adv-x="457" 
d="M266 707l-196 -342q-5 -9 -1.5 -15.5t14.5 -6.5h87q6 0 13 7l204 342q5 9 1 16t-14 7h-95q-8 0 -13 -8zM83 358l196 342h95l-204 -342h-87z" />
    <glyph glyph-name="quotedblleft" unicode="&#x201c;" horiz-adv-x="647" 
d="M275 708l-205 -342q-5 -9 -1 -16t14 -7h96q8 0 13 8l196 342q5 9 1.5 15.5t-14.5 6.5h-87q-6 0 -13 -7zM463 708l-204 -342q-5 -9 -1 -16t14 -7h95q8 0 13 8l197 342q5 9 1.5 15.5t-14.5 6.5h-88q-6 0 -13 -7zM83 358l205 342h87l-196 -342h-96zM272 358l204 342h88
l-197 -342h-95z" />
    <glyph glyph-name="quotedblright" unicode="&#x201d;" horiz-adv-x="646" 
d="M266 707l-196 -342q-5 -9 -1.5 -15.5t14.5 -6.5h87q6 0 13 7l204 342q5 9 1 16t-14 7h-95q-8 0 -13 -8zM455 707l-196 -342q-5 -9 -1.5 -15.5t14.5 -6.5h87q6 0 13 7l204 342q5 9 1 16t-14 7h-95q-8 0 -13 -8zM83 358l196 342h95l-204 -342h-87zM272 358l196 342h95
l-204 -342h-87z" />
    <glyph glyph-name="ellipsis" unicode="&#x2026;" horiz-adv-x="757" 
d="M68 104v-104q0 -6 4.5 -10.5t10.5 -4.5h97q6 0 10.5 4.5t4.5 10.5v104q0 6 -4.5 10.5t-10.5 4.5h-97q-6 0 -10.5 -4.5t-4.5 -10.5zM313 104v-104q0 -6 4.5 -10.5t10.5 -4.5h97q6 0 10.5 4.5t4.5 10.5v104q0 6 -4.5 10.5t-10.5 4.5h-97q-6 0 -10.5 -4.5t-4.5 -10.5z
M562 104v-104q0 -6 4.5 -10.5t10.5 -4.5h97q6 0 10.5 4.5t4.5 10.5v104q0 6 -4.5 10.5t-10.5 4.5h-97q-6 0 -10.5 -4.5t-4.5 -10.5zM83 0v104h97v-104h-97zM328 0v104h97v-104h-97zM577 0v104h97v-104h-97z" />
    <glyph glyph-name="guilsinglleft" unicode="&#x2039;" horiz-adv-x="512" 
d="M202 350l236 201q10 8 6.5 17t-16.5 9h-116q-6 0 -10 -4l-229 -194q-5 -5 -5 -11v-37q0 -6 5 -11l229 -192q4 -4 10 -4h117q13 0 16.5 9t-6.5 17zM428 562l-249 -212l250 -211h-117l-229 192v37l229 194h116z" />
    <glyph glyph-name="guilsinglright" unicode="&#x203a;" horiz-adv-x="512" 
d="M444 332v36q0 6 -5 11l-229 194q-4 4 -10 4h-117q-13 0 -16.5 -9t6.5 -17l236 -201l-235 -200q-10 -8 -6.5 -17t16.5 -9h116q6 0 10 4l229 193q5 5 5 11zM429 368v-36l-229 -193h-116l248 211l-249 212h117z" />
    <glyph glyph-name="Euro" unicode="&#x20ac;" horiz-adv-x="940" 
d="M161 319h-78q-6 0 -10.5 -4.5t-4.5 -10.5v-79q0 -6 4.5 -10.5t10.5 -4.5h90q29 -137 119.5 -188.5t240.5 -51.5q196 0 328 66l1 1l3 2q7 2 7 12v92q0 11 -6.5 14.5t-15.5 -1.5q-132 -75 -317 -75q-52 0 -86.5 4t-69.5 17t-57.5 39.5t-34.5 68.5h460q6 0 10.5 4.5
t4.5 10.5v79q0 6 -4.5 10.5t-10.5 4.5h-476q-1 8 -1 24q0 13 1 19h476q6 0 10.5 4.5t4.5 10.5v78q0 6 -4.5 10.5t-10.5 4.5h-461q24 83 82 109t167 26q89 0 161.5 -17t155.5 -56q8 -4 14.5 0t6.5 14v90q0 10 -9 14q-158 65 -329 65q-70 0 -126 -11t-106 -37.5t-83 -76
t-46 -120.5h-89q-6 0 -10.5 -4.5t-4.5 -10.5v-78q0 -6 4.5 -10.5t10.5 -4.5h78v-43zM83 304h93v39v34h-93v78h102q12 82 53 135q49 66 121.5 88t173.5 22q163 0 318 -62l5 -2v-90l-11 5q-151 69 -312 69q-121 0 -183.5 -33t-84.5 -132h480v-78h-491q0 -6 -0.5 -17.5
t-0.5 -16.5q0 -7 0.5 -20t0.5 -19h491v-79h-480q12 -50 35 -82.5t59.5 -48.5t76 -22t97.5 -6q176 0 313 71l11 6v-92l-3 -2q-132 -64 -321 -64q-153 0 -238 52.5t-110 187.5h-102v79z" />
    <glyph glyph-name="trademark" unicode="&#x2122;" horiz-adv-x="1100" 
d="M519 599l1 -302q0 -6 4.5 -10.5t10.5 -4.5h77q6 0 10.5 4.5t4.5 10.5v182l106 -189q3 -8 13 -8h58q8 0 13 8l107 189v-182q0 -6 4.5 -10.5t10.5 -4.5h79q6 0 10.5 4.5t4.5 10.5v398q0 6 -4.5 10.5t-10.5 4.5h-80q-10 0 -13 -8l-150 -267l-150 267q-3 8 -13 8h-78
q-3 0 -7 -2q-2 2 -6 2h-438q-6 0 -10.5 -4.5t-4.5 -10.5v-81q0 -6 4.5 -10.5t10.5 -4.5h164v-302q0 -6 4.5 -10.5t10.5 -4.5h78q6 0 10.5 4.5t4.5 10.5v302h164zM521 695v-81h-181v-317h-78v317h-179v81h438zM938 695h80v-398h-79v239l-135 -239h-58l-134 239v-239h-77
l-1 398h78l163 -291z" />
    <glyph glyph-name="minus" unicode="&#x2212;" horiz-adv-x="759" 
d="M68 383v-81q0 -6 4.5 -10.5t10.5 -4.5h594q6 0 10.5 4.5t4.5 10.5v81q0 6 -4.5 10.5t-10.5 4.5h-594q-6 0 -10.5 -4.5t-4.5 -10.5zM83 302v81h594v-81h-594z" />
    <glyph glyph-name="_FSHallmark" horiz-adv-x="930" 
d="M94 584v88h745v-88h-745zM832 417h-90q0 11 -6 20q-5 6 -17 16q-14 7 -21 9q-8 2 -21 2q-25 0 -42 -10q-20 -11 -20 -26q0 -27 17 -36q23 -13 40 -16l32 -7q5 -1 15 -3.5t12 -3.5q18 -6 27 -6q11 -1 22 -6l19 -9q18 -12 28 -25q8 -14 11 -39q2 -26 -10 -45
q-23 -40 -64 -53q-47 -14 -86 -14q-33 0 -60 8q-30 9 -52 25t-38 43q-14 22 -14 58l86 -1q0 -5 4 -13q1 -14 13 -24q11 -11 22 -15q15 -8 43 -8q30 0 47 10q18 9 18 23q0 25 -71 43q-60 14 -109 39q-45 23 -45 74q0 44 29 67q29 22 66 36q25 7 61 7q50 0 86 -16
q39 -19 59 -60q9 -27 9 -44zM192 452v-83h179v-83h-179v-121h-98v371h313v-84h-215zM399 210q0 19 13 32q11 12 32 12q19 0 35 -13q15 -12 15 -31q0 -18 -15 -31q-15 -12 -35 -12q-15 0 -31 14q-14 12 -14 29zM91 30v89h747v-89h-747z" />
    <glyph glyph-name="_Fontastica" horiz-adv-x="709" 
d="M163 590v-228h320v-85h-320v-160h-94q-1 2 -1 5v552h414v-84h-319zM223 119v84h321v228h-321v85h321v158h94v-555h-415zM544 63q-5 -3 -5 -9q0 -8 3 -12q4 -4 10 -4q8 0 16 4l4 -4q-6 -9 -20 -9q-9 0 -17 5q-7 9 -8 17q0 12 7 19q8 8 18 8t20 -8l-4 -7q-4 2 -6 5h-8h-2
q-3 0 -8 -5zM102 56v-8h-21v-19h-12v48h35v-9h-23v-12h21zM147 77q16 0 23 -13q8 -8 3 -22q-6 -13 -21 -13l-6 -3q-7 0 -10 3q-15 7 -15 21q0 12 7 20q7 7 19 7zM230 44v33h9v-48h-3h-3q-3 0 -8 5l-2 2q-2 3 -2 5q-3 3 -5 6q-8 10 -10 12v-30h-10v48h8q4 -1 6 -6
q8 -8 11 -12q5 -10 9 -15zM284 68v-39h-9v39h-15v9h40v-9h-16zM408 54q10 0 10 -10q2 -11 -9 -15h-8q-16 0 -23 7q1 1 1 2l1 1q0 2 1 3l15 -4h7l3 3q0 8 -11 9q-1 0 -2 1t-4 1q-8 1 -8 11q-2 8 7 12q6 2 10 2q13 0 20 -4l-5 -9q0 1 -3 1q-1 0 -2 1q-1 2 -3 2h-2h-7
q-3 0 -3 -3q-1 -1 3 -6q3 -1 7 -3t5 -2zM460 68v-39h-11v39h-15v9h42v-9h-16zM495 29v48h12v-48h-12zM608 77h12l10 -23l6 -13q2 -7 5 -12h-11l-4 10h-23l-4 -10h-11q11 20 20 48zM320 29h-9l19 46h11l6 -11q3 -4 5 -11q0 -1 1.5 -3t2 -4.5t0.5 -4.5t1 -4t2 -4.5t1 -3.5h-10
q-1 2 -1 5l-1 2q-1 1 -1 3h-22q-2 -1 -2 -5v-2q-2 -1 -3 -3zM161 52v1q0 7 -3 11t-12 4h-3q-7 -5 -9 -8q-5 -6 -1 -12q3 -11 14 -11q3 0 4 1q10 1 10 14zM335 65l-8 -17h16q-1 0 -1 2t-1 2l-1 2l-1 2q-1 2 -1 5l-1 1q-1 2 -2 3zM614 65l-7 -17h15q-2 1 -2 4q0 4 -2 4
q-1 2 -1 5q-1 1 -2 3z" />
    </font>
</defs>
</svg>
