<svg xmlns="http://www.w3.org/2000/svg">
<defs>
<font id="Neon-Black" horiz-adv-x="893" >
  <font-face 
    font-family="Neon Black"
    font-weight="900"
    font-stretch="normal"
    units-per-em="1000"
    panose-1="0 0 10 0 0 0 0 0 0 0"
    ascent="800"
    descent="-200"
    x-height="713"
    cap-height="713"
    bbox="-326 -278 1139 954"
    underline-thickness="50"
    underline-position="-200"
    unicode-range="U+000D-2212"
  />
<missing-glyph horiz-adv-x="581" 
d="M83 682h416v-664h-416v664zM467 46v604h-353v-604h353zM203 166h-34l103 222l-103 222h34l90 -191l86 191h34l-101 -222l101 -222h-34l-86 191zM395 106q-2 -1 -2 -6q0 -3 2 -5q1 -2 6 -2q4 0 7 2l2 -2q-3 -6 -9 -6q-2 0 -5.5 1t-4.5 1q-2 2 -2.5 5.5t-1.5 4.5q-2 5 3 10
q4 4 11 4q5 0 9 -4l-2 -3l-2 1q-1 0 -1 1t-4 1q-4 -1 -6 -3zM149 98v-10h-8v24h20v-3h-12v-8h9v-3h-9zM178 88q-9 2 -9 11q0 8 4 10q3 3 9 3q9 0 14 -5q2 -10 1 -12q-1 -6 -10 -8l-5 -1q-2 0 -4 2zM227 96v16h5v-24h-1q-1 -1 -2 -1l-1 1q-2 1 -3 1l-1 2q-1 2 -2 2l-2 4
q-1 2 -4 3l-1 2v-14h-6v24h5l1 -1q1 -1 2 -1l2 -3q2 -3 3 -5q4 -4 5 -6zM244 109v3h21v-3h-8v-21h-5v21h-8zM293 100l1 -2q2 -2 2 -4q0 -5 1 -6h-6v1l-1 1q0 1 -1 3h-11q-1 0 -1 -4q-1 0 -2 -1h-5l11 24h6q0 -4 2 -5q4 -6 4 -7zM323 100q4 0 4 -5q3 -5 -4 -7q0 -1 -5 -1
q-3 0 -12 3q2 1 2 3v2l9 -2h3h1q0 5 -6 6q0 -1 -1 0q0 1 -2 1q-4 0 -4 6q0 4 3 6h6q9 0 10 -1l-1 -4h-3l-2 1q-1 0 -1 1h-3q-3 0 -3 -2t3 -5q2 0 6 -2zM337 109v3h22v-3h-9v-21h-6v21h-7zM368 88v24h7v-24h-7zM427 93l-2 -5h-6q7 10 10 24h7l5 -12l3 -6q1 -3 4 -6h-7l-2 5
h-12zM176 103q-2 -3 0 -5q0 -7 6 -7q3 0 3 2q6 0 6 7q0 5 -3 7q0 2 -6 2q0 -1 -2 -1l-1 -2zM279 98q8 0 8 2l-2 1v4q-1 0 -1 1t-1 1zM432 107l-4 -9q8 0 8 2v1v2q0 2 -1 2t-2 1z" />
    <glyph glyph-name=".notdef" horiz-adv-x="581" 
d="M83 682h416v-664h-416v664zM467 46v604h-353v-604h353zM203 166h-34l103 222l-103 222h34l90 -191l86 191h34l-101 -222l101 -222h-34l-86 191zM395 106q-2 -1 -2 -6q0 -3 2 -5q1 -2 6 -2q4 0 7 2l2 -2q-3 -6 -9 -6q-2 0 -5.5 1t-4.5 1q-2 2 -2.5 5.5t-1.5 4.5q-2 5 3 10
q4 4 11 4q5 0 9 -4l-2 -3l-2 1q-1 0 -1 1t-4 1q-4 -1 -6 -3zM149 98v-10h-8v24h20v-3h-12v-8h9v-3h-9zM178 88q-9 2 -9 11q0 8 4 10q3 3 9 3q9 0 14 -5q2 -10 1 -12q-1 -6 -10 -8l-5 -1q-2 0 -4 2zM227 96v16h5v-24h-1q-1 -1 -2 -1l-1 1q-2 1 -3 1l-1 2q-1 2 -2 2l-2 4
q-1 2 -4 3l-1 2v-14h-6v24h5l1 -1q1 -1 2 -1l2 -3q2 -3 3 -5q4 -4 5 -6zM244 109v3h21v-3h-8v-21h-5v21h-8zM293 100l1 -2q2 -2 2 -4q0 -5 1 -6h-6v1l-1 1q0 1 -1 3h-11q-1 0 -1 -4q-1 0 -2 -1h-5l11 24h6q0 -4 2 -5q4 -6 4 -7zM323 100q4 0 4 -5q3 -5 -4 -7q0 -1 -5 -1
q-3 0 -12 3q2 1 2 3v2l9 -2h3h1q0 5 -6 6q0 -1 -1 0q0 1 -2 1q-4 0 -4 6q0 4 3 6h6q9 0 10 -1l-1 -4h-3l-2 1q-1 0 -1 1h-3q-3 0 -3 -2t3 -5q2 0 6 -2zM337 109v3h22v-3h-9v-21h-6v21h-7zM368 88v24h7v-24h-7zM427 93l-2 -5h-6q7 10 10 24h7l5 -12l3 -6q1 -3 4 -6h-7l-2 5
h-12zM176 103q-2 -3 0 -5q0 -7 6 -7q3 0 3 2q6 0 6 7q0 5 -3 7q0 2 -6 2q0 -1 -2 -1l-1 -2zM279 98q8 0 8 2l-2 1v4q-1 0 -1 1t-1 1zM432 107l-4 -9q8 0 8 2v1v2q0 2 -1 2t-2 1z" />
    <glyph glyph-name=".null" horiz-adv-x="0" 
 />
    <glyph glyph-name="nonmarkingreturn" horiz-adv-x="333" 
 />
    <glyph glyph-name="CR" unicode="&#xd;" horiz-adv-x="90" 
 />
    <glyph glyph-name="space" unicode=" " horiz-adv-x="483" 
 />
    <glyph glyph-name="exclam" unicode="!" horiz-adv-x="290" 
d="M204 691h-114l8 -509h99zM208 124h-125v-124h125v124z" />
    <glyph glyph-name="quotedbl" unicode="&#x22;" horiz-adv-x="473" 
d="M236 704h-112l-41 -374h101zM390 704h-112l-42 -374h102z" />
    <glyph glyph-name="numbersign" unicode="#" horiz-adv-x="942" 
d="M109 412h184l-34 -134h-176v-98h151l-45 -180h107l46 180h174l-45 -180h107l46 180h209v98h-184l34 134h177v99h-151l46 178h-110l-46 -178h-172l45 178h-109l-45 -178h-209v-99zM575 412l-34 -134h-174l34 134h174z" />
    <glyph glyph-name="dollar" unicode="$" horiz-adv-x="808" 
d="M457 670v135h-111v-135q-130 -2 -196.5 -39.5t-66.5 -136.5v-14q0 -101 63.5 -142.5t196.5 -41.5l3 1v-178h-2q-115 0 -139 33q-12 16 -12 53v44h-105v-45q0 -33 4 -49q5 -32 29 -61q35 -44 90.5 -58t134.5 -14v-123h111v123q63 0 109 8t83.5 27t56.5 54t19 86v15
q0 100 -65 141.5t-197 41.5h-6v177h6q31 0 51 -1.5t44 -7t38 -18.5t18 -33q1 -9 1 -28v-42h105v43q0 35 -4 52q-17 76 -84.5 104.5t-174.5 28.5zM326 572h20l-1 -177q-32 0 -50 1t-41.5 5t-35.5 12t-21 23t-9 37v15q0 17 2 24q7 37 41 48.5t95 11.5zM470 119h-13v178h4
q32 0 50 -1t42 -5t36.5 -12t21.5 -23.5t9 -37.5v-14q0 -17 -1 -25q-7 -38 -45.5 -49t-103.5 -11z" />
    <glyph glyph-name="percent" unicode="%" horiz-adv-x="1158" 
d="M313 703q-230 0 -230 -194q0 -195 230 -195t230 195q0 194 -230 194zM1014 690h-147l-724 -690h148zM313 605q71 0 97.5 -21t26.5 -75q0 -56 -26 -76t-98 -20t-98.5 20.5t-26.5 75.5q0 54 27 75t98 21zM845 375q-230 0 -230 -194q0 -195 230 -195q231 0 231 195
q0 194 -231 194zM845 277q72 0 98.5 -20.5t26.5 -75.5t-26.5 -75t-98.5 -20t-98 20t-26 75t26 75.5t98 20.5z" />
    <glyph glyph-name="ampersand" unicode="&#x26;" horiz-adv-x="825" 
d="M560 121l106 -101l77 69l-123 120q28 57 36 118l1 6l-94 5l-3 -5q-8 -20 -21 -47q-73 69 -164 160q49 37 78.5 73t29.5 77q0 48 -45.5 85.5t-108.5 37.5q-71 0 -113.5 -41.5t-42.5 -96.5q0 -52 51 -122q-141 -124 -141 -239q0 -81 67.5 -149t172.5 -68q123 0 237 118z
M371 598q0 -23 -63 -74q-24 38 -24 60q0 17 12 28t33 11q16 0 29 -7.5t13 -17.5zM197 219q0 79 93 163q23 -25 70 -68t61 -57q22 -21 64 -63q-54 -70 -132 -92q-17 -5 -30 -5q-55 0 -90.5 38.5t-35.5 83.5z" />
    <glyph glyph-name="quotesingle" unicode="'" horiz-adv-x="318" 
d="M236 704h-112l-41 -374h101z" />
    <glyph glyph-name="parenleft" unicode="(" horiz-adv-x="483" 
d="M401 716v60h-87l-3 -1q-25 -16 -63 -48q-81 -73 -123 -176.5t-42 -206.5q0 -210 144 -358q48 -52 85 -73l2 -1h87v60l-3 2q-100 63 -153.5 163.5t-53.5 206.5t53.5 206.5t153.5 163.5z" />
    <glyph glyph-name="parenright" unicode=")" horiz-adv-x="482" 
d="M175 772l-6 4h-86v-60l3 -2q100 -63 153 -163.5t53 -206.5t-53.5 -207t-152.5 -163l-3 -2v-60h85l2 1q34 18 86 73q143 150 143 358q0 103 -42.5 206.5t-123.5 176.5q-23 21 -58 45z" />
    <glyph glyph-name="asterisk" unicode="*" horiz-adv-x="766" 
d="M284 690h-125l133 -199l-209 1v-100l209 2l-133 -200h125l99 155l100 -155h124l-132 200l208 -2v100l-208 -1l132 199h-124l-100 -155z" />
    <glyph glyph-name="plus" unicode="+" horiz-adv-x="761" 
d="M433 652h-106v-257h-244v-102h244v-258h106v258h245v102h-245v257z" />
    <glyph glyph-name="comma" unicode="," horiz-adv-x="407" 
d="M324 119h-124l-192 -367h119z" />
    <glyph glyph-name="hyphen" unicode="-" horiz-adv-x="630" 
d="M548 398h-465v-101h465v101z" />
    <glyph glyph-name="period" unicode="." horiz-adv-x="291" 
d="M209 123h-126v-123h126v123z" />
    <glyph glyph-name="slash" unicode="/" horiz-adv-x="805" 
d="M722 776h-122l-517 -863h125z" />
    <glyph glyph-name="zero" unicode="0" horiz-adv-x="964" 
d="M152 590q-69 -87 -69 -234q0 -148 69 -234q55 -68 136 -95t194 -27q114 0 194.5 27t135.5 95q69 86 69 234q0 147 -69 234q-55 68 -135.5 95t-194.5 27q-112 0 -193.5 -27t-136.5 -95zM721 536q53 -63 53 -180t-53 -180q-62 -75 -239 -75t-239 75q-52 62 -52 180t52 180
q63 75 239 75q177 0 239 -75z" />
    <glyph glyph-name="one" unicode="1" horiz-adv-x="448" 
d="M365 0v712h-81l-201 -123v-116l175 108v-581h107z" />
    <glyph glyph-name="two" unicode="2" horiz-adv-x="878" 
d="M491 713h-102q-71 0 -122.5 -8t-95 -28t-65.5 -59t-22 -96v-53h108v5q0 7 -0.5 21t-0.5 21q0 59 41.5 78t127.5 19h131q142 0 174 -44q15 -20 15 -56q0 -35 -15 -54q-16 -21 -97 -44q-4 -1 -134 -30q-106 -23 -164 -50q-104 -46 -145.5 -120.5t-41.5 -176.5v-38h712v101
h-601q7 41 29 72.5t57.5 51.5t72 33t87.5 24q8 2 77 16.5t102 24.5q94 26 133 75q36 48 36 115q0 108 -76.5 154t-220.5 46z" />
    <glyph glyph-name="three" unicode="3" horiz-adv-x="866" 
d="M381 0h105q95 0 158.5 14.5t103.5 64.5q36 45 36 112q0 56 -12 95.5t-53 69.5q65 49 65 154q0 79 -36 125q-21 27 -50.5 43.5t-68 23.5t-68 9t-75.5 2h-105q-70 0 -121 -8.5t-93 -29t-63 -59t-21 -94.5v-53h108v5q0 64 1 70q4 23 19 37.5t41 21t49.5 8.5t57.5 2h138
q36 0 57.5 -1t47.5 -6t40 -14.5t24 -27t10 -43.5v-14q0 -43 -14 -62q-13 -18 -45 -27t-55.5 -10t-62.5 -1h-308v-100h292q50 0 73 -2q40 -2 62 -9q58 -19 58 -81v-14q0 -43 -14 -63q-13 -17 -45 -26t-55.5 -10t-62.5 -1h-134q-30 0 -47.5 0.5t-42.5 4.5t-40 11t-27.5 20.5
t-15.5 32.5q-2 9 -2 27l1 48h-108v-38q0 -40 3 -60q8 -40 33 -69q40 -49 104 -63.5t158 -14.5z" />
    <glyph glyph-name="four" unicode="4" horiz-adv-x="1018" 
d="M296 292l546 423h-168l-591 -458v-67h559v-190h107v190h186v102h-186v207h-107v-207h-346z" />
    <glyph glyph-name="five" unicode="5" horiz-adv-x="862" 
d="M104 306q230 29 337 29q181 0 213 -39q18 -22 18 -66q0 -34 -14 -58t-35.5 -37.5t-56.5 -21.5t-67 -10t-76 -2q-190 0 -329 70l-11 6v-115l3 -2q119 -61 337 -61q110 0 191 20.5t126 81.5q39 53 39 129q0 51 -15.5 88.5t-42 60t-69.5 35.5t-89.5 17.5t-110.5 4.5
q-118 0 -249 -16v192h557v101h-665v-408z" />
    <glyph glyph-name="six" unicode="6" horiz-adv-x="907" 
d="M459 0q86 0 148.5 10t113.5 35t77 72t26 116q0 68 -25.5 114.5t-75.5 71.5t-112 35t-147 10q-188 0 -272 -54q11 105 76 153.5t207 48.5q8 0 25.5 0.5t26.5 0.5q43 0 70 -2.5t55 -11.5t41.5 -28t13.5 -50v-53h108v47q0 34 -4 51q-10 46 -38 77t-72 45.5t-88 19.5t-104 5
h-34q-115 0 -194.5 -26.5t-132.5 -96.5q-65 -85 -65 -242q0 -60 5 -102.5t18.5 -85t40 -69.5t67.5 -49t102 -32t143 -10zM227 306q44 56 237 56q190 0 231 -52q21 -27 21 -77q0 -36 -13.5 -61t-34 -39t-56.5 -21.5t-67 -9t-80 -1.5q-57 0 -97 4t-81 16.5t-62.5 40.5
t-21.5 70t24 74z" />
    <glyph glyph-name="seven" unicode="7" horiz-adv-x="924" 
d="M319 0l523 653v62h-759v-101h594l-493 -614h135z" />
    <glyph glyph-name="eight" unicode="8" horiz-adv-x="891" 
d="M721 358q81 54 81 152q0 163 -202 195q-51 8 -155 8t-155 -9q-201 -30 -201 -194q0 -98 81 -152q-87 -52 -87 -155q0 -43 13.5 -76.5t40 -55t58 -36t75 -22t84 -10.5t91.5 -3q63 0 110 4t97.5 16.5t82.5 34t53 59t21 89.5q0 103 -88 155zM528 407h-166q-42 0 -86 12.5
t-61 35.5q-18 22 -18 55t17 56q24 32 109 42q40 5 135 5q185 0 219 -47q18 -22 18 -56q0 -31 -18 -55q-17 -23 -61.5 -35.5t-87.5 -12.5zM362 305h166q45 0 91.5 -12.5t63.5 -35.5q18 -22 18 -54q0 -67 -87 -90q-34 -8 -84 -11q-30 -1 -85 -1t-84 1q-52 4 -83 11
q-87 22 -87 90q0 33 17 54q18 23 64 35.5t90 12.5z" />
    <glyph glyph-name="nine" unicode="9" horiz-adv-x="907" 
d="M448 713q-69 0 -121.5 -6t-100 -21.5t-78 -41.5t-48 -67t-17.5 -97q0 -55 17 -95.5t47 -66t76.5 -41t99 -21.5t120.5 -6q188 0 271 53q-11 -106 -76 -154t-207 -48h-51q-43 0 -70 2.5t-55 10.5t-41.5 27t-13.5 48v56h-109v-39q0 -32 4 -59q8 -39 33 -68
q41 -50 107.5 -64.5t162.5 -14.5h33q116 0 195.5 26.5t132.5 96.5q65 83 65 242q0 177 -56 247q-47 60 -128 80.5t-192 20.5zM678 407q-44 -56 -235 -56q-190 0 -231 52q-22 28 -22 77q0 36 14 61.5t34 39t56.5 21t67.5 9t80 1.5q57 0 97 -4t81 -16.5t62.5 -40t21.5 -69.5
q0 -43 -26 -75z" />
    <glyph glyph-name="colon" unicode=":" horiz-adv-x="291" 
d="M209 466h-126v-124h126v124zM209 124h-126v-124h126v124z" />
    <glyph glyph-name="semicolon" unicode=";" horiz-adv-x="407" 
d="M299 464h-125v-122h125v122zM324 119h-124l-192 -367h119z" />
    <glyph glyph-name="less" unicode="&#x3c;" horiz-adv-x="667" 
d="M584 125l-360 219l360 219v121l-501 -308v-65l501 -309v123z" />
    <glyph glyph-name="equal" unicode="=" horiz-adv-x="767" 
d="M685 532h-602v-101h602v101zM685 279h-602v-100h602v100z" />
    <glyph glyph-name="greater" unicode="&#x3e;" horiz-adv-x="667" 
d="M584 311v65l-501 308v-121l360 -219l-360 -219v-123z" />
    <glyph glyph-name="question" unicode="?" horiz-adv-x="850" 
d="M433 702q-194 0 -346 -47l-4 -2v-105l9 3q177 51 341 51q181 0 211 -45q15 -20 15 -57q0 -31 -15 -51q-16 -25 -92 -35q-37 -5 -117 -8l-103 -6h-7v-218h106v121q46 2 76 4.5t68.5 8t63.5 14t51.5 23.5t42 35t25 49t9.5 66q0 61 -25.5 101.5t-74 61t-103.5 28.5t-131 8z
M440 124h-125v-124h125v124z" />
    <glyph glyph-name="at" unicode="@" horiz-adv-x="1156" 
d="M729 326v-12h-189q-116 0 -179 -34.5t-63 -121.5q0 -167 239 -167q130 0 219 66q43 -66 130 -66q40 0 72 14t51.5 39t33 53t19.5 61.5t8.5 59t2.5 51.5q0 101 -26 178.5t-83 136.5t-155.5 89.5t-235.5 30.5q-133 0 -241.5 -39t-172.5 -121q-76 -99 -76 -273
q0 -129 51 -266l1 -5h115l-3 8q-56 142 -56 264q0 139 54 211q46 60 135.5 90t191.5 30q249 0 337 -114q58 -76 58 -220q0 -61 -13 -107q-21 -70 -68 -70q-30 0 -44 27q-8 17 -8 51v146q0 99 -53 145.5t-181 46.5q-120 0 -250 -40l-5 -1v-108l11 4q131 47 245 47
q74 0 101 -15.5t27 -68.5zM728 179v-2q-3 -3 -3 -5l-6 -8q-57 -74 -179 -74q-30 0 -51.5 2.5t-42 9t-31.5 20.5t-11 36q0 20 10 33q10 14 56 21q26 3 71 3h187v-36z" />
    <glyph glyph-name="A" unicode="A" horiz-adv-x="1002" 
d="M205 0l135 233h320l136 -233h123l-418 715l-418 -715h122zM397 330l104 177l102 -177h-206z" />
    <glyph glyph-name="B" unicode="B" 
d="M502 713h-419v-713h420q62 0 103.5 4t90 23.5t76.5 55.5q37 47 37 117q0 112 -80 171q70 51 70 145q0 110 -75.5 153.5t-222.5 43.5zM511 419h-321v192h323q36 0 58.5 -1.5t48 -6.5t39.5 -15t23.5 -28.5t9.5 -44.5q0 -31 -13.5 -51t-41 -29.5t-55.5 -12.5t-71 -3z
M190 101v218h346q41 0 63 -2t46.5 -13.5t38.5 -34.5q17 -28 17 -69q0 -33 -13 -53.5t-40 -30t-55.5 -12.5t-73.5 -3h-329z" />
    <glyph glyph-name="C" unicode="C" horiz-adv-x="930" 
d="M804 628q-101 85 -310 85q-112 0 -192.5 -25t-128 -73t-69 -111.5t-21.5 -146.5t21.5 -146.5t69 -111.5t128 -73t192.5 -25q209 0 310 85q22 18 42 51l2 3l-79 75l-5 -9q0 -1 -2 -4t-2 -5q-50 -96 -266 -96q-169 0 -236 61.5t-67 194.5t67 194.5t236 61.5q215 0 266 -96
q0 -1 2 -4t2 -5l5 -10l79 76l-2 3q-20 33 -42 51z" />
    <glyph glyph-name="D" unicode="D" horiz-adv-x="907" 
d="M423 713h-340v-713h340q401 0 401 356q0 151 -68 234q-100 123 -333 123zM423 101h-233v512h233q179 0 245 -81q48 -58 48 -175q0 -119 -48 -175q-65 -81 -245 -81z" />
    <glyph glyph-name="E" unicode="E" horiz-adv-x="845" 
d="M190 419v192h573v102h-680v-713h678v101h-571v218h436v100h-436z" />
    <glyph glyph-name="F" unicode="F" horiz-adv-x="845" 
d="M190 419v192h573v102h-680v-713h107v319h436v100h-436z" />
    <glyph glyph-name="G" unicode="G" horiz-adv-x="930" 
d="M804 628q-101 85 -310 85q-218 0 -314.5 -92.5t-96.5 -262.5q0 -171 96 -264t315 -93q209 0 310 85q22 18 42 51l2 3v279h-536v-100h418v-158q-72 -60 -236 -60q-169 0 -236 61.5t-67 194.5t67 194.5t236 61.5q214 0 266 -96q0 -1 2 -4t2 -5l5 -10l79 76l-2 3
q-20 33 -42 51z" />
    <glyph glyph-name="H" unicode="H" 
d="M190 319h512v-319h108v713h-108v-294h-512v294h-107v-713h107v319z" />
    <glyph glyph-name="I" unicode="I" horiz-adv-x="272" 
d="M83 713v-713h107v713h-107z" />
    <glyph glyph-name="J" unicode="J" horiz-adv-x="841" 
d="M758 427v286h-106v-286q0 -213 -82 -281q-59 -48 -156 -48q-98 0 -153.5 46.5t-66.5 124.5v6h-111l1 -7q10 -57 33 -103t61 -84t98.5 -59.5t137.5 -21.5q89 0 154.5 28.5t101 70t56.5 103t26.5 112.5t5.5 113z" />
    <glyph glyph-name="K" unicode="K" horiz-adv-x="989" 
d="M689 0h189l-631 376l660 337h-197q-17 0 -25 -4l-496 -254l-1 258h-105v-713h107l-1 296z" />
    <glyph glyph-name="L" unicode="L" horiz-adv-x="844" 
d="M761 0v101h-571v612h-107v-713h678z" />
    <glyph glyph-name="M" unicode="M" horiz-adv-x="957" 
d="M191 490l255 -382l73 -1l248 383v-490h106v713h-86l-305 -470l-309 470h-90v-713h108v490z" />
    <glyph glyph-name="N" unicode="N" 
d="M189 0l1 545l536 -545h84v713h-108v-544l-537 544h-82v-713h106z" />
    <glyph glyph-name="O" unicode="O" horiz-adv-x="987" 
d="M494 713q-219 0 -315 -93t-96 -264t95.5 -264.5t315.5 -93.5q219 0 315 94t96 264q0 84 -21.5 147.5t-68.5 111.5t-127.5 73t-193.5 25zM494 613q170 0 236.5 -61.5t66.5 -195.5q0 -133 -67.5 -195t-235.5 -62q-170 0 -236.5 62t-66.5 195q0 134 66.5 195.5t236.5 61.5z
" />
    <glyph glyph-name="P" unicode="P" horiz-adv-x="882" 
d="M502 713h-419v-713h108l-1 293h312q148 0 223 42.5t75 152.5v29q0 110 -75.5 153t-222.5 43zM521 393h-331v219h317q38 0 60 -1t49 -6.5t41.5 -15t24.5 -28t10 -45.5v-25q0 -26 -8.5 -44t-22 -28.5t-36.5 -16.5t-46.5 -7.5t-57.5 -1.5z" />
    <glyph glyph-name="Q" unicode="Q" horiz-adv-x="1031" 
d="M731 41l75 -79h143l-131 139q87 91 87 255q0 84 -21.5 147.5t-68.5 111.5t-127.5 73t-193.5 25q-219 0 -315 -93t-96 -264t95.5 -264.5t315.5 -93.5q142 0 237 43zM746 177l-188 199h-143l241 -255q-66 -22 -162 -22q-170 0 -236.5 62t-66.5 195q0 134 66.5 195.5
t236.5 61.5t236.5 -61.5t66.5 -195.5q0 -118 -51 -179z" />
    <glyph glyph-name="R" unicode="R" horiz-adv-x="920" 
d="M502 713h-419v-713h108l-1 293h227l276 -293h145l-278 293q120 7 180 54t60 141v29q0 110 -75.5 153t-222.5 43zM521 393h-331v219h317q38 0 60 -1t49 -6.5t41.5 -15t24.5 -28t10 -45.5v-25q0 -26 -8.5 -44t-22 -28.5t-36.5 -16.5t-46.5 -7.5t-57.5 -1.5z" />
    <glyph glyph-name="S" unicode="S" horiz-adv-x="871" 
d="M383 0h108q70 0 121 8.5t92.5 29t62.5 58.5t21 95v15q0 80 -35 123q-40 49 -104.5 63.5t-157.5 14.5h-108q-50 0 -73 1q-43 4 -62 10q-57 17 -57 80l-1 14q0 44 14 63q30 38 162 38h134q30 0 48 -0.5t43 -4.5t40 -11t27.5 -20.5t15.5 -32.5q2 -11 2 -32v-43h107v37
q0 40 -4 60q-6 36 -31 69q-40 50 -104 64t-159 14h-105q-146 0 -221.5 -41t-75.5 -149v-15q0 -81 35 -123q28 -35 75.5 -53t86 -21.5t100.5 -3.5h108q50 0 73 -2q35 -2 62 -9q58 -20 58 -81v-15q0 -20 -1 -30q-4 -23 -19 -38t-41.5 -21t-49.5 -8t-58 -2h-140q-38 0 -60 1.5
t-51 7.5t-44.5 21t-19.5 39q-2 9 -2 30v45h-107v-39q0 -39 4 -59q6 -37 31 -68q40 -50 103 -64.5t157 -14.5z" />
    <glyph glyph-name="T" unicode="T" horiz-adv-x="897" 
d="M502 612h313v101h-732v-101h312v-612h107v612z" />
    <glyph glyph-name="U" unicode="U" horiz-adv-x="854" 
d="M771 427v286h-106v-286q0 -214 -83 -281q-60 -48 -155 -48q-96 0 -155 48q-82 66 -82 281v286h-107v-286q0 -62 5.5 -112.5t26.5 -112t56.5 -103.5t100.5 -70.5t154 -28.5q65 0 117 15t87.5 38.5t62 59.5t41 72t23.5 81t11.5 81.5t2.5 79.5z" />
    <glyph glyph-name="V" unicode="V" horiz-adv-x="1065" 
d="M501 -5l74 -2l408 720h-119l-325 -574l-333 574h-123z" />
    <glyph glyph-name="W" unicode="W" horiz-adv-x="1221" 
d="M610 524l184 -529h6q5 0 15 -0.5t15 -0.5q15 0 43 2l5 1l261 716h-113l-190 -523l-182 523h-87l-182 -523l-190 523h-112l261 -717h5q26 -2 40 -2h38z" />
    <glyph glyph-name="X" unicode="X" horiz-adv-x="980" 
d="M222 0l269 281l266 -281h140l-336 356l336 357h-136l-270 -283l-271 283h-137l337 -357l-337 -356h139z" />
    <glyph glyph-name="Y" unicode="Y" horiz-adv-x="986" 
d="M762 713l-268 -281l-270 281h-141l357 -374v-339h105v338l359 375h-142z" />
    <glyph glyph-name="Z" unicode="Z" horiz-adv-x="845" 
d="M83 77v-77h678v101h-512l514 536v76h-680v-102l514 3z" />
    <glyph glyph-name="bracketleft" unicode="[" horiz-adv-x="527" 
d="M445 13h-257v662h257v99h-362v-862h362v101z" />
    <glyph glyph-name="backslash" unicode="\" horiz-adv-x="805" 
d="M206 776h-123l515 -863h124z" />
    <glyph glyph-name="bracketright" unicode="]" horiz-adv-x="527" 
d="M445 774h-362v-100h256v-662h-256v-100h362v862z" />
    <glyph glyph-name="asciicircum" unicode="^" horiz-adv-x="616" 
d="M530 284l-185 406h-90l-169 -408q-3 -4 -3 -14v-38h98l121 295l134 -295h96v5q1 10 1 29q0 13 -3 20z" />
    <glyph glyph-name="underscore" unicode="_" horiz-adv-x="1052" 
d="M969 65h-886v-102h886v102z" />
    <glyph glyph-name="grave" unicode="`" horiz-adv-x="476" 
d="M311 701h82v60l-211 132h-99v-60z" />
    <glyph glyph-name="a" unicode="a" horiz-adv-x="1002" 
d="M205 0l135 233h320l136 -233h123l-418 715l-418 -715h122zM397 330l104 177l102 -177h-206z" />
    <glyph glyph-name="b" unicode="b" 
d="M502 713h-419v-713h420q62 0 103.5 4t90 23.5t76.5 55.5q37 47 37 117q0 112 -80 171q70 51 70 145q0 110 -75.5 153.5t-222.5 43.5zM511 419h-321v192h323q36 0 58.5 -1.5t48 -6.5t39.5 -15t23.5 -28.5t9.5 -44.5q0 -31 -13.5 -51t-41 -29.5t-55.5 -12.5t-71 -3z
M190 101v218h346q41 0 63 -2t46.5 -13.5t38.5 -34.5q17 -28 17 -69q0 -33 -13 -53.5t-40 -30t-55.5 -12.5t-73.5 -3h-329z" />
    <glyph glyph-name="c" unicode="c" horiz-adv-x="930" 
d="M804 628q-101 85 -310 85q-112 0 -192.5 -25t-128 -73t-69 -111.5t-21.5 -146.5t21.5 -146.5t69 -111.5t128 -73t192.5 -25q209 0 310 85q22 18 42 51l2 3l-79 75l-5 -9q0 -1 -2 -4t-2 -5q-50 -96 -266 -96q-169 0 -236 61.5t-67 194.5t67 194.5t236 61.5q215 0 266 -96
q0 -1 2 -4t2 -5l5 -10l79 76l-2 3q-20 33 -42 51z" />
    <glyph glyph-name="d" unicode="d" horiz-adv-x="907" 
d="M423 713h-340v-713h340q401 0 401 356q0 151 -68 234q-100 123 -333 123zM423 101h-233v512h233q179 0 245 -81q48 -58 48 -175q0 -119 -48 -175q-65 -81 -245 -81z" />
    <glyph glyph-name="e" unicode="e" horiz-adv-x="845" 
d="M190 419v192h573v102h-680v-713h678v101h-571v218h436v100h-436z" />
    <glyph glyph-name="f" unicode="f" horiz-adv-x="845" 
d="M190 419v192h573v102h-680v-713h107v319h436v100h-436z" />
    <glyph glyph-name="g" unicode="g" horiz-adv-x="930" 
d="M804 628q-101 85 -310 85q-218 0 -314.5 -92.5t-96.5 -262.5q0 -171 96 -264t315 -93q209 0 310 85q22 18 42 51l2 3v279h-536v-100h418v-158q-72 -60 -236 -60q-169 0 -236 61.5t-67 194.5t67 194.5t236 61.5q214 0 266 -96q0 -1 2 -4t2 -5l5 -10l79 76l-2 3
q-20 33 -42 51z" />
    <glyph glyph-name="h" unicode="h" 
d="M190 319h512v-319h108v713h-108v-294h-512v294h-107v-713h107v319z" />
    <glyph glyph-name="i" unicode="i" horiz-adv-x="272" 
d="M83 713v-713h107v713h-107z" />
    <glyph glyph-name="j" unicode="j" horiz-adv-x="841" 
d="M758 427v286h-106v-286q0 -213 -82 -281q-59 -48 -156 -48q-98 0 -153.5 46.5t-66.5 124.5v6h-111l1 -7q10 -57 33 -103t61 -84t98.5 -59.5t137.5 -21.5q89 0 154.5 28.5t101 70t56.5 103t26.5 112.5t5.5 113z" />
    <glyph glyph-name="k" unicode="k" horiz-adv-x="989" 
d="M689 0h189l-631 376l660 337h-197q-17 0 -25 -4l-496 -254l-1 258h-105v-713h107l-1 296z" />
    <glyph glyph-name="l" unicode="l" horiz-adv-x="844" 
d="M761 0v101h-571v612h-107v-713h678z" />
    <glyph glyph-name="m" unicode="m" horiz-adv-x="957" 
d="M191 490l255 -382l73 -1l248 383v-490h106v713h-86l-305 -470l-309 470h-90v-713h108v490z" />
    <glyph glyph-name="n" unicode="n" 
d="M189 0l1 545l536 -545h84v713h-108v-544l-537 544h-82v-713h106z" />
    <glyph glyph-name="o" unicode="o" horiz-adv-x="987" 
d="M494 713q-219 0 -315 -93t-96 -264t95.5 -264.5t315.5 -93.5q219 0 315 94t96 264q0 84 -21.5 147.5t-68.5 111.5t-127.5 73t-193.5 25zM494 613q170 0 236.5 -61.5t66.5 -195.5q0 -133 -67.5 -195t-235.5 -62q-170 0 -236.5 62t-66.5 195q0 134 66.5 195.5t236.5 61.5z
" />
    <glyph glyph-name="p" unicode="p" horiz-adv-x="882" 
d="M502 713h-419v-713h108l-1 293h312q148 0 223 42.5t75 152.5v29q0 110 -75.5 153t-222.5 43zM521 393h-331v219h317q38 0 60 -1t49 -6.5t41.5 -15t24.5 -28t10 -45.5v-25q0 -26 -8.5 -44t-22 -28.5t-36.5 -16.5t-46.5 -7.5t-57.5 -1.5z" />
    <glyph glyph-name="q" unicode="q" horiz-adv-x="1031" 
d="M731 41l75 -79h143l-131 139q87 91 87 255q0 84 -21.5 147.5t-68.5 111.5t-127.5 73t-193.5 25q-219 0 -315 -93t-96 -264t95.5 -264.5t315.5 -93.5q142 0 237 43zM746 177l-188 199h-143l241 -255q-66 -22 -162 -22q-170 0 -236.5 62t-66.5 195q0 134 66.5 195.5
t236.5 61.5t236.5 -61.5t66.5 -195.5q0 -118 -51 -179z" />
    <glyph glyph-name="r" unicode="r" horiz-adv-x="920" 
d="M502 713h-419v-713h108l-1 293h227l276 -293h145l-278 293q120 7 180 54t60 141v29q0 110 -75.5 153t-222.5 43zM521 393h-331v219h317q38 0 60 -1t49 -6.5t41.5 -15t24.5 -28t10 -45.5v-25q0 -26 -8.5 -44t-22 -28.5t-36.5 -16.5t-46.5 -7.5t-57.5 -1.5z" />
    <glyph glyph-name="s" unicode="s" horiz-adv-x="871" 
d="M383 0h108q70 0 121 8.5t92.5 29t62.5 58.5t21 95v15q0 80 -35 123q-40 49 -104.5 63.5t-157.5 14.5h-108q-50 0 -73 1q-43 4 -62 10q-57 17 -57 80l-1 14q0 44 14 63q30 38 162 38h134q30 0 48 -0.5t43 -4.5t40 -11t27.5 -20.5t15.5 -32.5q2 -11 2 -32v-43h107v37
q0 40 -4 60q-6 36 -31 69q-40 50 -104 64t-159 14h-105q-146 0 -221.5 -41t-75.5 -149v-15q0 -81 35 -123q28 -35 75.5 -53t86 -21.5t100.5 -3.5h108q50 0 73 -2q35 -2 62 -9q58 -20 58 -81v-15q0 -20 -1 -30q-4 -23 -19 -38t-41.5 -21t-49.5 -8t-58 -2h-140q-38 0 -60 1.5
t-51 7.5t-44.5 21t-19.5 39q-2 9 -2 30v45h-107v-39q0 -39 4 -59q6 -37 31 -68q40 -50 103 -64.5t157 -14.5z" />
    <glyph glyph-name="t" unicode="t" horiz-adv-x="897" 
d="M502 612h313v101h-732v-101h312v-612h107v612z" />
    <glyph glyph-name="u" unicode="u" horiz-adv-x="854" 
d="M771 427v286h-106v-286q0 -214 -83 -281q-60 -48 -155 -48q-96 0 -155 48q-82 66 -82 281v286h-107v-286q0 -62 5.5 -112.5t26.5 -112t56.5 -103.5t100.5 -70.5t154 -28.5q65 0 117 15t87.5 38.5t62 59.5t41 72t23.5 81t11.5 81.5t2.5 79.5z" />
    <glyph glyph-name="v" unicode="v" horiz-adv-x="1065" 
d="M501 -5l74 -2l408 720h-119l-325 -574l-333 574h-123z" />
    <glyph glyph-name="w" unicode="w" horiz-adv-x="1221" 
d="M610 524l184 -529h6q5 0 15 -0.5t15 -0.5q15 0 43 2l5 1l261 716h-113l-190 -523l-182 523h-87l-182 -523l-190 523h-112l261 -717h5q26 -2 40 -2h38z" />
    <glyph glyph-name="x" unicode="x" horiz-adv-x="980" 
d="M222 0l269 281l266 -281h140l-336 356l336 357h-136l-270 -283l-271 283h-137l337 -357l-337 -356h139z" />
    <glyph glyph-name="y" unicode="y" horiz-adv-x="986" 
d="M762 713l-268 -281l-270 281h-141l357 -374v-339h105v338l359 375h-142z" />
    <glyph glyph-name="z" unicode="z" horiz-adv-x="845" 
d="M83 77v-77h678v101h-512l514 536v76h-680v-102l514 3z" />
    <glyph glyph-name="braceleft" unicode="{" horiz-adv-x="769" 
d="M514 785q-70 0 -117 -14.5t-71 -45t-33 -66t-9 -87.5q0 -10 0.5 -29t0.5 -28q0 -52 -9 -73q-16 -37 -76 -45q-30 -5 -56 -5q-10 0 -28.5 -0.5t-26.5 -0.5l-6 -1v-91h6q2 0 57 -3q31 -2 57 -6q62 -10 75 -49q6 -17 6 -55v-67q0 -53 9 -89t33 -67t70.5 -46t117.5 -15
q83 0 166 17l6 1v104l-9 -2q-85 -20 -168 -20q-78 0 -98.5 23.5t-20.5 88.5q0 10 0.5 31t0.5 32q0 55 -12.5 96.5t-51.5 70.5q29 20 43.5 53.5t17 57t2.5 62.5q0 65 2 84q3 50 26.5 67.5t90.5 17.5q73 0 168 -19l9 -2v102l-6 1q-83 17 -166 17z" />
    <glyph glyph-name="bar" unicode="|" horiz-adv-x="274" 
d="M191 802h-108v-912h108v912z" />
    <glyph glyph-name="braceright" unicode="}" horiz-adv-x="769" 
d="M378 510q0 -54 12.5 -96t51.5 -70q-29 -20 -43.5 -53.5t-17 -57t-2.5 -62.5q0 -65 -2 -84q-3 -50 -27 -67.5t-90 -17.5q-83 0 -168 20l-9 1v-103l5 -1q85 -17 167 -17q69 0 116 14t78 55q36 47 36 144q0 9 -0.5 29.5t-0.5 29.5q0 68 22.5 92t104.5 29q46 2 69 4h6v91
l-7 1q-16 1 -54 1q-26 0 -56 5q-61 8 -76 44q-4 8 -8 32v33v63q0 52 -9 88.5t-33 67t-70.5 45.5t-117.5 15q-82 0 -167 -17l-5 -1v-102l9 2q95 19 168 19q78 0 98.5 -24t20.5 -90q0 -10 -0.5 -31t-0.5 -31z" />
    <glyph glyph-name="asciitilde" unicode="~" horiz-adv-x="689" 
d="M83 364v-70h72l1 3q2 3 13 20.5t19 27.5q26 29 44 29q15 0 42 -15l25 -16q4 -3 13 -10t14 -10q76 -53 132 -53q78 0 133 80q8 10 11 15q5 10 5 19v70h-72l-2 -3q-26 -40 -32 -48q-24 -29 -43 -29q-15 0 -42 15q-9 5 -51 36q-75 54 -133 54q-76 0 -134 -81l-10 -15
q-5 -10 -5 -19z" />
    <glyph glyph-name="cent" unicode="&#xa2;" horiz-adv-x="723" 
d="M434 188v312q92 -9 126 -76l5 -10l76 76l-2 3q-24 47 -79.5 73t-125.5 33v165h-111v-165q-240 -22 -240 -255t240 -255v-144h111v144q69 6 125 33t80 73l2 3l-76 76l-5 -10q-34 -67 -126 -76zM323 500v-312q-77 8 -104.5 47t-27.5 109t27.5 109t104.5 47z" />
    <glyph glyph-name="sterling" unicode="&#xa3;" horiz-adv-x="948" 
d="M211 392h-128v-101h129v-193l-129 -9v-89h783v101h-547v190h456v101h-456q2 72 12 106q18 64 69 84.5t148 20.5q144 0 286 -64l11 -6v114l-3 1q-132 56 -294 56q-103 0 -171 -21.5t-103 -65.5t-49 -96.5t-14 -128.5z" />
    <glyph glyph-name="yen" unicode="&#xa5;" horiz-adv-x="1034" 
d="M188 269h277v-40h-277v-99h277v-130h107v130h276v99h-276v40h276v99h-210l313 322h-145l-287 -299l-291 299h-145l315 -322h-210v-99z" />
    <glyph glyph-name="dieresis" unicode="&#xa8;" horiz-adv-x="497" 
d="M209 835h-126v-117h126v117zM414 835h-127v-117h127v117z" />
    <glyph glyph-name="copyright" unicode="&#xa9;" horiz-adv-x="1057" 
d="M529 770q-106 0 -185.5 -22t-129 -59t-79.5 -93t-41 -116t-11 -136q0 -77 11 -137.5t41 -116.5t79 -93t128.5 -59t186.5 -22t186.5 22t128 59t78.5 93t41 116.5t11 137.5t-11 137t-40.5 116t-78 92.5t-128.5 58.5t-187 22zM848 504q19 -62 19 -160q0 -118 -28 -183
q-34 -82 -110 -113t-200 -31t-200.5 31t-110.5 113q-27 66 -27 183q0 98 19 160q31 93 108 129t211 36t211 -36t108 -129zM392 344q0 64 30.5 92t113.5 28q58 0 103 -18t98 -54l13 -8v121l-2 2q-36 26 -97.5 42.5t-114.5 16.5q-251 0 -251 -222q0 -223 251 -223
q53 0 114.5 16t97.5 42l2 2v121l-13 -9q-54 -36 -98.5 -54t-102.5 -18q-83 0 -113.5 28.5t-30.5 94.5z" />
    <glyph glyph-name="guillemotleft" unicode="&#xab;" horiz-adv-x="782" 
d="M473 135l-261 217l259 217h-154l-234 -195v-45l234 -194h156zM699 135l-261 217l259 217h-155l-234 -195v-45l234 -194h157z" />
    <glyph glyph-name="registered" unicode="&#xae;" horiz-adv-x="671" 
d="M336 211q253 0 253 257t-253 257t-253 -257t253 -257zM362 599h-151v-256h76v73h48l85 -73h64q-38 -55 -148 -55q-98 0 -137.5 43t-39.5 137t39.5 137t137.5 43t137 -42.5t39 -137.5q0 -80 -25 -120v38l-53 45q42 22 42 78q0 90 -114 90zM370 494h-83v27h89h12
q2 0 4 -0.5t3 -0.5q3 -3 3 -11q0 -11 -6 -13q-2 -2 -9 -2h-13z" />
    <glyph glyph-name="macron" unicode="&#xaf;" horiz-adv-x="621" 
d="M539 835h-456v-99h456v99z" />
    <glyph glyph-name="degree" unicode="&#xb0;" horiz-adv-x="657" 
d="M329 706q-246 0 -246 -209q0 -208 246 -208t246 208q0 209 -246 209zM329 606q80 0 109.5 -23.5t29.5 -85.5q0 -61 -29.5 -84.5t-109.5 -23.5q-81 0 -110 23t-29 85q0 63 29 86t110 23z" />
    <glyph glyph-name="acute" unicode="&#xb4;" horiz-adv-x="476" 
d="M83 701h83l227 132v60h-98l-212 -132v-60z" />
    <glyph glyph-name="cedilla" unicode="&#xb8;" horiz-adv-x="539" 
d="M456 81h-131l-242 -254h143z" />
    <glyph glyph-name="guillemotright" unicode="&#xbb;" horiz-adv-x="781" 
d="M238 135l235 195v44l-235 195h-155l260 -217l-259 -217h154zM463 135l235 195v44l-235 195h-154l259 -217l-259 -217h154z" />
    <glyph glyph-name="multiply" unicode="&#xd7;" horiz-adv-x="702" 
d="M563 644l-212 -211l-211 210l-57 -90l194 -194l-194 -194l56 -90l211 211l212 -210l58 90l-195 193l195 195z" />
    <glyph glyph-name="divide" unicode="&#xf7;" horiz-adv-x="788" 
d="M456 636h-124v-122h124v122zM705 395h-622v-101h622v101zM456 176h-124v-123h124v123z" />
    <glyph glyph-name="circumflex" unicode="&#x2c6;" horiz-adv-x="601" 
d="M434 700h84v58l-186 138h-64l-185 -138v-58h84l133 91z" />
    <glyph glyph-name="caron" unicode="&#x2c7;" horiz-adv-x="601" 
d="M518 887h-84l-134 -91l-133 91h-84v-57l185 -138h64l186 138v57z" />
    <glyph glyph-name="breve" unicode="&#x2d8;" horiz-adv-x="590" 
d="M508 893h-73l-1 -3q-19 -34 -57 -56.5t-83 -22.5q-43 0 -81 23t-57 56l-2 3h-71v-71q0 -4 1 -5q2 -2 2 -5q6 -6 8 -9q11 -14 15 -17q31 -32 83 -54t102 -22q52 0 104.5 21.5t83.5 53.5q0 1 5.5 6.5t8.5 10.5q6 6 7 10q3 3 3 4q2 4 2 5v72z" />
    <glyph glyph-name="dotaccent" unicode="&#x2d9;" horiz-adv-x="294" 
d="M212 840h-129v-122h129v122z" />
    <glyph glyph-name="ring" unicode="&#x2da;" horiz-adv-x="585" 
d="M293 954q-210 0 -210 -157t210 -157q106 0 158 38t52 119q0 157 -210 157zM293 854q55 0 78.5 -10t23.5 -47t-22.5 -47t-79.5 -10q-55 0 -78.5 10t-23.5 47q0 35 24 46t78 11z" />
    <glyph glyph-name="ogonek" unicode="&#x2db;" horiz-adv-x="514" 
d="M188 -56q14 12 81 42q22 11 57.5 27t41.5 19l9 4l-105 55l-4 -2q-83 -37 -92 -41q-59 -29 -78 -56q-15 -22 -15 -51q0 -100 174 -100q85 0 170 29l4 2v107l-11 -4q-96 -36 -163 -36q-9 0 -39 2q-9 0 -30 3z" />
    <glyph glyph-name="tilde" unicode="&#x2dc;" horiz-adv-x="605" 
d="M83 800v-67h71l1 3q3 4 12.5 18.5t14.5 21.5q12 14 18 18q8 7 13 7q9 0 31 -11q7 -4 21 -13t20 -13q63 -40 107 -40q69 0 119 74q12 16 12 28v67h-72l-2 -3q-25 -38 -27 -40q-10 -13 -17 -19q-9 -6 -14 -6q-10 0 -29 11q-16 8 -42 26q-65 40 -108 40q-69 0 -118 -75
q-11 -18 -11 -27z" />
    <glyph glyph-name="hungarumlaut" unicode="&#x2dd;" horiz-adv-x="601" 
d="M260 901h94v-57l-187 -143h-84v57zM425 901h93v-58l-188 -142h-83v57z" />
    <glyph glyph-name="uni0326" unicode="&#x326;" horiz-adv-x="0" 
d="M-223 -149l-103 -129h126l3 3q69 81 78 95q37 58 37 109q0 18 -4 54v6h-108l1 -6q2 -34 2 -49q0 -44 -32 -83z" />
    <glyph glyph-name="endash" unicode="&#x2013;" horiz-adv-x="814" 
d="M731 398h-648v-101h648v101z" />
    <glyph glyph-name="emdash" unicode="&#x2014;" horiz-adv-x="1186" 
d="M1103 398h-1020v-101h1020v101z" />
    <glyph glyph-name="quoteleft" unicode="&#x2018;" horiz-adv-x="500" 
d="M417 704h-118l-216 -356h127z" />
    <glyph glyph-name="quoteright" unicode="&#x2019;" horiz-adv-x="499" 
d="M416 704h-126l-207 -356h117z" />
    <glyph glyph-name="quotedblleft" unicode="&#x201c;" horiz-adv-x="686" 
d="M417 704h-118l-216 -356h127zM604 704h-119l-216 -356h127z" />
    <glyph glyph-name="quotedblright" unicode="&#x201d;" horiz-adv-x="685" 
d="M416 704h-126l-207 -356h117zM602 704h-126l-207 -356h118z" />
    <glyph glyph-name="ellipsis" unicode="&#x2026;" horiz-adv-x="779" 
d="M209 124h-126v-124h126v124zM449 124h-125v-124h125v124zM696 124h-126v-124h126v124z" />
    <glyph glyph-name="guilsinglleft" unicode="&#x2039;" horiz-adv-x="556" 
d="M473 135l-261 217l259 217h-154l-234 -195v-45l234 -194h156z" />
    <glyph glyph-name="guilsinglright" unicode="&#x203a;" horiz-adv-x="555" 
d="M238 135l235 195v44l-235 195h-155l260 -217l-259 -217h154z" />
    <glyph glyph-name="Euro" unicode="&#x20ac;" horiz-adv-x="959" 
d="M175 318h-92v-100h103q25 -121 108.5 -176.5t246.5 -55.5q199 0 332 67l3 2v116l-11 -6q-82 -42 -155.5 -60.5t-168.5 -18.5q-111 0 -167 28t-78 104h470v100h-485v26v22h485v99h-471q21 80 76.5 109t169.5 29q91 0 164 -17.5t159 -57.5l11 -5v114l-4 2q-162 65 -330 65
q-106 0 -180 -24t-123 -89q-39 -50 -53 -126h-102v-99h91q0 -31 1 -48z" />
    <glyph glyph-name="trademark" unicode="&#x2122;" horiz-adv-x="1117" 
d="M1034 289v409h-102l-152 -265l-150 265h-547v-101h176v-308h107v308h162l1 -308h106v188l107 -188h77l108 190v-190h107z" />
    <glyph glyph-name="minus" unicode="&#x2212;" horiz-adv-x="781" 
d="M698 395h-615v-102h615v102z" />
    <glyph glyph-name="_FSHallmark" horiz-adv-x="930" 
d="M839 584h-745v88h745v-88zM832 417h-90q0 11 -6 20q-5 6 -17 16q-14 7 -21 9q-8 2 -21 2q-25 0 -42 -10q-20 -11 -20 -26q0 -27 17 -36q23 -13 40 -16l32 -7q5 -1 15 -3.5t12 -3.5q18 -6 27 -6q11 -1 22 -6l19 -9q18 -12 28 -25q8 -14 11 -39q2 -26 -10 -45
q-23 -40 -64 -53q-47 -14 -86 -14q-33 0 -60 8q-30 9 -52 25t-38 43q-14 22 -14 58l86 -1q0 -5 4 -13q1 -14 13 -24q11 -11 22 -15q15 -8 43 -8q30 0 47 10q18 9 18 23q0 25 -71 43q-60 14 -109 39q-45 23 -45 74q0 44 29 67q29 22 66 36q25 7 61 7q50 0 86 -16
q39 -19 59 -60q9 -27 9 -44zM407 452h-215v-83h179v-83h-179v-121h-98v371h313v-84zM399 210q0 19 13 32q11 12 32 12q19 0 35 -13q15 -12 15 -31q0 -18 -15 -31q-15 -12 -35 -12q-15 0 -31 14q-14 12 -14 29zM838 30h-747v89h747v-89z" />
    <glyph glyph-name="_Fontastica" horiz-adv-x="709" 
d="M482 590h-319v-228h320v-85h-320v-160h-94q-1 2 -1 5v552h414v-84zM638 119h-415v84h321v228h-321v85h321v158h94v-555zM544 63q-5 -3 -5 -9q0 -8 3 -12q4 -4 10 -4q8 0 16 4l4 -4q-6 -9 -20 -9q-9 0 -17 5q-7 9 -8 17q0 12 7 19q8 8 18 8t20 -8l-4 -7q-4 2 -6 5h-8h-2
q-3 0 -8 -5zM81 56h21v-8h-21v-19h-12v48h35v-9h-23v-12zM147 77q16 0 23 -13q8 -8 3 -22q-6 -13 -21 -13l-6 -3q-7 0 -10 3q-15 7 -15 21q0 12 7 20q7 7 19 7zM230 44v33h9v-48h-3h-3q-3 0 -8 5l-2 2q-2 3 -2 5q-3 3 -5 6q-8 10 -10 12v-30h-10v48h8q4 -1 6 -6q8 -8 11 -12
q5 -10 9 -15zM300 68h-16v-39h-9v39h-15v9h40v-9zM408 54q10 0 10 -10q2 -11 -9 -15h-8q-16 0 -23 7q1 1 1 2l1 1q0 2 1 3l15 -4h7l3 3q0 8 -11 9q-1 0 -2 1t-4 1q-8 1 -8 11q-2 8 7 12q6 2 10 2q13 0 20 -4l-5 -9q0 1 -3 1q-1 0 -2 1q-1 2 -3 2h-2h-7q-3 0 -3 -3
q-1 -1 3 -6q3 -1 7 -3t5 -2zM476 68h-16v-39h-11v39h-15v9h42v-9zM507 29h-12v48h12v-48zM608 77h12l10 -23l6 -13q2 -7 5 -12h-11l-4 10h-23l-4 -10h-11q11 20 20 48zM320 29h-9l19 46h11l6 -11q3 -4 5 -11q0 -1 1.5 -3t2 -4.5t0.5 -4.5t1 -4t2 -4.5t1 -3.5h-10q-1 2 -1 5
l-1 2q-1 1 -1 3h-22q-2 -1 -2 -5v-2q-2 -1 -3 -3zM161 52v1q0 7 -3 11t-12 4h-3q-7 -5 -9 -8q-5 -6 -1 -12q3 -11 14 -11q3 0 4 1q10 1 10 14zM335 65l-8 -17h16q-1 0 -1 2t-1 2l-1 2l-1 2q-1 2 -1 5l-1 1q-1 2 -2 3zM614 65l-7 -17h15q-2 1 -2 4q0 4 -2 4q-1 2 -1 5
q-1 1 -2 3z" />
    </font>
</defs>
</svg>
