<svg xmlns="http://www.w3.org/2000/svg">
<defs>
<font id="Neon-Italic" horiz-adv-x="854" >
  <font-face 
    font-family="Neon"
    font-weight="400"
    font-style="italic"
    font-stretch="normal"
    units-per-em="1000"
    panose-1="0 0 5 0 0 0 0 0 0 0"
    ascent="800"
    descent="-200"
    x-height="706"
    cap-height="706"
    bbox="-351 -296 1143 962"
    underline-thickness="50"
    underline-position="-200"
    slope="-9"
    unicode-range="U+000D-2212"
  />
<missing-glyph horiz-adv-x="581" 
d="M132 682h416l-105 -664h-416zM416 46l95 604h-353l-95 -604h353zM417 610h34l-136 -222l66 -222h-34l-56 191l-120 -191h-34l138 222l-68 222h34l60 -191zM349 109q4 4 11 4q5 0 9 -4l-3 -3l-2 2q0 1 -4 1q-5 -1 -7 -3l-3 -6q0 -3 1 -5t6 -2q4 0 7 2l2 -2q-4 -6 -10 -6
q-2 0 -5.5 1t-4.5 1q-1 2 -1.5 5.5t-0.5 4.5q0 6 5 10zM96 88l4 24h20v-3h-12l-2 -8h9v-3h-9l-2 -10h-8zM141 112q9 0 13 -5q2 -8 -1 -12q-1 -6 -11 -8l-5 -1q-2 0 -4 2q-9 2 -7 11q3 9 6 10q3 3 9 3zM184 96l2 16h5l-4 -24h-1q-1 -1 -2 -1l-2 1q-1 1 -2 1q0 4 -2 4v2t-1 2
l-4 4l-3 -13h-6l4 24h5q1 0 1 -1q1 -1 2 -1l4 -8zM203 109v3h21v-3h-8l-4 -21h-5l4 21h-8zM247 107q3 -5 3 -7l2 -2q1 -2 0 -4v-6h-6v1l-1 4h-11q-1 0 -1 -2l-1 -2q-1 0 -2 -1h-5l15 24h6q0 -4 1 -5zM270 112h6q9 0 10 -1l-2 -4h-3l-1 1q-1 0 -1 1h-3q-2 0 -4 -2q0 -2 3 -5
q1 0 5 -2q4 0 3 -5q3 -5 -5 -7q0 -1 -5 -1t-11 3q2 1 2 3v2l9 -2h3h1q1 5 -5 6q0 -1 -1 0q0 1 -2 1q-4 0 -3 6q2 5 4 6zM296 109v3h22v-3h-9l-4 -21h-6l4 21h-7zM323 88l4 24h7l-4 -24h-7zM398 100q2 -2 2 -6l3 -6h-7l-1 5h-12l-3 -5h-6q10 12 14 24h7zM148 100q2 4 -2 7
l-5 2q0 -1 -2 -1l-5 -5q-3 -3 -1 -5q-1 -7 5 -7q3 0 3 2q7 0 7 7zM236 98q8 0 8 2l-2 1l1 4q-1 0 -1 1t-1 1zM393 101v4q-1 0 -2 1l-1 1l-5 -9q8 0 8 2v1z" />
    <glyph glyph-name=".notdef" horiz-adv-x="581" 
d="M132 682h416l-105 -664h-416zM416 46l95 604h-353l-95 -604h353zM417 610h34l-136 -222l66 -222h-34l-56 191l-120 -191h-34l138 222l-68 222h34l60 -191zM349 109q4 4 11 4q5 0 9 -4l-3 -3l-2 2q0 1 -4 1q-5 -1 -7 -3l-3 -6q0 -3 1 -5t6 -2q4 0 7 2l2 -2q-4 -6 -10 -6
q-2 0 -5.5 1t-4.5 1q-1 2 -1.5 5.5t-0.5 4.5q0 6 5 10zM96 88l4 24h20v-3h-12l-2 -8h9v-3h-9l-2 -10h-8zM141 112q9 0 13 -5q2 -8 -1 -12q-1 -6 -11 -8l-5 -1q-2 0 -4 2q-9 2 -7 11q3 9 6 10q3 3 9 3zM184 96l2 16h5l-4 -24h-1q-1 -1 -2 -1l-2 1q-1 1 -2 1q0 4 -2 4v2t-1 2
l-4 4l-3 -13h-6l4 24h5q1 0 1 -1q1 -1 2 -1l4 -8zM203 109v3h21v-3h-8l-4 -21h-5l4 21h-8zM247 107q3 -5 3 -7l2 -2q1 -2 0 -4v-6h-6v1l-1 4h-11q-1 0 -1 -2l-1 -2q-1 0 -2 -1h-5l15 24h6q0 -4 1 -5zM270 112h6q9 0 10 -1l-2 -4h-3l-1 1q-1 0 -1 1h-3q-2 0 -4 -2q0 -2 3 -5
q1 0 5 -2q4 0 3 -5q3 -5 -5 -7q0 -1 -5 -1t-11 3q2 1 2 3v2l9 -2h3h1q1 5 -5 6q0 -1 -1 0q0 1 -2 1q-4 0 -3 6q2 5 4 6zM296 109v3h22v-3h-9l-4 -21h-6l4 21h-7zM323 88l4 24h7l-4 -24h-7zM398 100q2 -2 2 -6l3 -6h-7l-1 5h-12l-3 -5h-6q10 12 14 24h7zM148 100q2 4 -2 7
l-5 2q0 -1 -2 -1l-5 -5q-3 -3 -1 -5q-1 -7 5 -7q3 0 3 2q7 0 7 7zM236 98q8 0 8 2l-2 1l1 4q-1 0 -1 1t-1 1zM393 101v4q-1 0 -2 1l-1 1l-5 -9q8 0 8 2v1z" />
    <glyph glyph-name=".null" horiz-adv-x="0" 
 />
    <glyph glyph-name="nonmarkingreturn" horiz-adv-x="333" 
 />
    <glyph glyph-name="CR" unicode="&#xd;" horiz-adv-x="90" 
 />
    <glyph glyph-name="space" unicode=" " horiz-adv-x="483" 
 />
    <glyph glyph-name="exclam" unicode="!" horiz-adv-x="234" 
d="M196 682h-56l-70 -488h43zM106 79h-69l-13 -79h69z" />
    <glyph glyph-name="quotedbl" unicode="&#x22;" horiz-adv-x="414" 
d="M224 695h-54l-90 -344h44zM383 695h-54l-91 -344h44z" />
    <glyph glyph-name="numbersign" unicode="#" horiz-adv-x="905" 
d="M55 191h163l-77 -191h48l79 191h240l-77 -191h48l79 191h210l8 53h-197l79 194h176l8 53h-163l77 189h-50l-77 -189h-240l76 189h-50l-76 -189h-210l-8 -53h197l-79 -194h-176zM608 438l-79 -194h-241l79 194h241z" />
    <glyph glyph-name="dollar" unicode="$" horiz-adv-x="767" 
d="M332 -108l21 131q56 0 86 2q51 2 94 16q104 31 122 142l2 11q5 28 5 49q0 28 -10 49.5t-28 34.5t-38 21.5t-47 12.5t-47.5 5t-47.5 1h-36l38 241q12 1 36 1q134 0 162 -47q10 -19 10 -40q0 -17 -5 -44l-1 -8h47l1 8q1 5 2.5 15.5t2.5 15.5t1 15.5t1 15.5q-1 27 -11 48
t-29 33.5t-38.5 20.5t-47.5 11.5t-47.5 4.5t-46.5 1h-29l23 144h-54l-23 -144q-57 0 -85 -1q-52 -3 -93 -16q-102 -33 -118 -142l-2 -11q-5 -27 -5 -49q0 -41 19.5 -68t56 -38t66.5 -14.5t73 -3.5h33l-38 -242h-31q-135 0 -162 47q-8 15 -10 39q0 13 6 45l1 7h-48l-1 -7
q-1 -5 -2.5 -15.5t-2.5 -15.5q-2 -20 -1 -31q0 -29 15 -54q14 -22 36.5 -36.5t53 -20.5t53.5 -7.5t55 -1.5h30l-21 -131h54zM392 608l-38 -241h-19q-46 0 -70 1q-43 4 -65 12q-64 22 -52 96l2 12q5 28 7 35q9 28 28 46t47 26t52.5 10.5t57.5 2.5h50zM399 316h24q47 0 71 -2
q35 -1 64 -12q65 -23 53 -96l-2 -12q-4 -21 -7 -34q-9 -29 -30 -47.5t-52 -26t-55.5 -10t-59.5 -2.5h-44z" />
    <glyph glyph-name="percent" unicode="%" horiz-adv-x="1129" 
d="M341 695q-101 0 -160 -41t-75 -139q-16 -99 30 -139.5t148 -40.5q101 0 160.5 41t75.5 139q16 97 -31 138.5t-148 41.5zM995 681h-71l-801 -681h72zM333 644q80 0 114.5 -27.5t23.5 -101.5q-12 -75 -54.5 -102t-123.5 -27t-116 27.5t-23 101.5q11 74 55 101.5t124 27.5z
M835 347q-101 0 -160.5 -42t-74.5 -139q-16 -98 30.5 -139t147.5 -41t160.5 41.5t75.5 138.5q15 97 -32 139t-147 42zM827 294q82 0 116 -27t23 -101q-12 -74 -55.5 -101t-124.5 -27t-115.5 27t-22.5 101q11 74 54 101t125 27z" />
    <glyph glyph-name="ampersand" unicode="&#x26;" horiz-adv-x="774" 
d="M644 69l-102 122q43 63 55 104l3 8l-42 2l-3 -5q-7 -12 -21.5 -36.5t-22.5 -36.5q-92 107 -187 223q16 11 48 35q92 67 101 122q4 28 -14 57q-31 48 -99 48q-54 0 -97 -33t-52 -86q-9 -54 40 -134q-175 -134 -194 -251q-10 -71 32 -132q24 -35 65 -54t87 -19q25 0 61 9
q112 33 204 133l95 -111zM324 509q-25 -18 -27 -19q-14 25 -23 47q-12 36 -8 58q4 31 28.5 49.5t57.5 18.5q28 0 49 -15t17 -38q-7 -40 -94 -101zM114 207q17 105 163 213q23 -34 93 -114q22 -22 37 -41q51 -62 70 -81q-80 -96 -185 -126q-24 -8 -44 -8q-65 0 -104.5 46.5
t-29.5 110.5z" />
    <glyph glyph-name="quotesingle" unicode="'" horiz-adv-x="255" 
d="M224 695h-54l-90 -344h44z" />
    <glyph glyph-name="parenleft" unicode="(" horiz-adv-x="432" 
d="M223 -90l5 -4h49l3 25l-2 2q-91 76 -130 179.5t-20 227.5q41 249 279 406l3 2l4 25h-49l-2 -2q-117 -76 -190.5 -189t-94.5 -242q-34 -214 83 -365q30 -36 62 -65z" />
    <glyph glyph-name="parenright" unicode=")" horiz-adv-x="431" 
d="M294 340q-39 -249 -277 -407l-4 -2l-3 -25h48l4 4q51 35 82 65q166 151 199 365q20 129 -17.5 241.5t-128.5 189.5l-2 2h-48l-4 -25l3 -2q188 -158 148 -406z" />
    <glyph glyph-name="asterisk" unicode="*" horiz-adv-x="724" 
d="M90 417l238 2l-171 -213h59l151 194l90 -194h58l-102 213l235 -2l9 53l-236 -2l169 213h-58l-151 -194l-90 194h-59l104 -213l-237 2z" />
    <glyph glyph-name="plus" unicode="+" horiz-adv-x="719" 
d="M74 312h252l-44 -274h48l44 274h253l9 55h-253l43 274h-48l-43 -274h-252z" />
    <glyph glyph-name="comma" unicode="," horiz-adv-x="323" 
d="M193 74h-61l-224 -337h56z" />
    <glyph glyph-name="hyphen" unicode="-" horiz-adv-x="584" 
d="M501 371h-418l-9 -55h418z" />
    <glyph glyph-name="period" unicode="." horiz-adv-x="235" 
d="M106 78h-69l-13 -78h69z" />
    <glyph glyph-name="slash" unicode="/" horiz-adv-x="726" 
d="M708 773h-58l-640 -866h61z" />
    <glyph glyph-name="zero" unicode="0" horiz-adv-x="928" 
d="M183 587q-80 -89 -103 -235q-23 -147 29 -234q41 -69 117 -93.5t179 -24.5q105 0 188 24.5t146 93.5q80 86 103 234q24 148 -29 235q-28 48 -79 75t-100.5 34.5t-116.5 7.5q-103 0 -187 -24.5t-147 -92.5zM766 560q47 -79 26 -208q-20 -127 -92 -207q-84 -91 -286 -91
q-203 0 -257 91q-47 78 -27 207q21 129 93 208q82 90 285 90t258 -90z" />
    <glyph glyph-name="one" unicode="1" horiz-adv-x="396" 
d="M108 529l199 115l-102 -644h50l112 704h-44l-206 -118z" />
    <glyph glyph-name="two" unicode="2" horiz-adv-x="839" 
d="M526 706h-105q-38 0 -65 -1.5t-64 -6.5t-63.5 -17t-53 -30.5t-43 -49t-23.5 -71.5l-5 -32h51l2 8q4 33 9 50q11 26 26 43q50 53 191 53h136q163 0 195 -59q15 -26 8 -74q-8 -45 -32 -71q-23 -28 -124 -58q-36 -10 -146 -32q-101 -22 -180.5 -55.5t-132.5 -94.5
q-62 -73 -80 -194l-3 -14h673l9 56h-623q16 68 60 119q44 53 117 81t182 52q113 23 163 39q85 25 117 64q40 44 51 108q8 48 -3.5 83.5t-34 55t-59.5 31t-71 14.5t-79 3z" />
    <glyph glyph-name="three" unicode="3" horiz-adv-x="827" 
d="M666 72q39 43 48 104l5 27q16 109 -66 150q95 40 113 150l2 13q4 25 6 53q-3 39 -19 65q-28 49 -104 63q-39 7 -66 7q-23 2 -64 2h-108q-46 0 -78 -2t-74.5 -12t-70.5 -28t-51 -52t-31 -82l-5 -32h50l2 8q4 33 9 50q8 25 25 43q48 53 193 53h128q53 0 78 -2q43 -2 73 -13
q72 -26 59 -108l-2 -16q-8 -52 -33 -81q-21 -24 -60.5 -36t-68 -14t-73.5 -2h-287l-9 -54h271q53 0 79 -2q41 -2 73 -13q72 -26 59 -108l-3 -16q-8 -52 -33 -80q-21 -24 -60.5 -36.5t-68 -14.5t-73.5 -2h-137q-43 0 -71.5 2t-63 14.5t-48.5 36.5q-11 19 -11 43q0 14 6 50
l1 7h-50l-1 -7q-4 -25 -5 -34q-3 -18 -2 -32q0 -34 18 -63q16 -25 42 -40.5t64 -21.5t62.5 -7.5t65.5 -1.5h108q41 0 65 1q30 1 68 8q80 14 124 63z" />
    <glyph glyph-name="four" unicode="4" horiz-adv-x="983" 
d="M56 202h577l-32 -202h50l32 202h191l9 55h-191l35 221h-50l-35 -221h-465l635 451h-84l-666 -473z" />
    <glyph glyph-name="five" unicode="5" horiz-adv-x="823" 
d="M43 116l-10 -61l4 -2q115 -54 308 -54q235 0 315 95q44 53 56 124q12 75 -14 120q-14 25 -45 41.5t-75 22.5t-72.5 7.5t-69.5 1.5q-128 0 -291 -21l42 261h574l8 55h-624l-59 -377h8q194 27 322 27q204 0 236 -53q19 -32 11 -85q-7 -44 -30.5 -75.5t-53 -48.5t-73 -26.5
t-77 -11.5t-79.5 -2q-191 0 -302 57z" />
    <glyph glyph-name="six" unicode="6" horiz-adv-x="869" 
d="M127 337l2 16q26 162 115.5 230t257.5 68q9 0 26.5 0.5t26.5 0.5q156 0 187 -53q13 -21 11 -44q1 -10 -6 -50l-1 -7h51l1 7l6 34q2 23 1 32q0 30 -17 62q-16 25 -44 41t-67 22.5t-66 8t-66 1.5h-35q-69 0 -119.5 -7t-109 -34.5t-102.5 -77.5q-75 -84 -100 -243
q-29 -179 13 -248q56 -96 289 -96q47 0 81.5 2t79.5 9t77.5 22t64 38.5t51.5 61.5t28 88q13 79 -16 131q-49 88 -290 88q-50 0 -86 -2.5t-86 -11.5t-90 -31.5t-68 -57.5zM167 314q67 72 282 72q212 0 252 -69q22 -39 12 -96q-5 -34 -19.5 -60.5t-31.5 -44t-45 -29.5
t-50.5 -18t-58.5 -9.5t-58 -4t-60 -0.5q-45 0 -79 2.5t-75.5 12.5t-66.5 26.5t-39.5 48.5t-7.5 75q8 50 45 94z" />
    <glyph glyph-name="seven" unicode="7" horiz-adv-x="887" 
d="M128 653h639l-612 -653h66l631 676l5 31h-721z" />
    <glyph glyph-name="eight" unicode="8" horiz-adv-x="853" 
d="M201 353q-127 -42 -147 -164q-6 -39 2 -69t24 -49.5t45 -33.5t54.5 -21t64.5 -11t62.5 -4.5t60.5 -0.5q38 0 61 0.5t64.5 4t68.5 10.5t61 21t55.5 33.5t39.5 50t24 69.5q20 121 -95 164q58 21 95 63t46 100q20 126 -94 166q-62 24 -214 24q-34 0 -53 -0.5t-55.5 -2.5
t-59 -7t-54 -13.5t-52 -23t-41.5 -33.5t-34 -47t-18 -63q-9 -58 15 -100t74 -63zM514 380h-171q-50 0 -100.5 16t-67.5 47q-19 30 -12 73q8 46 34 74q38 43 136 55q42 6 154 6q54 0 90.5 -2t84.5 -16.5t64 -42.5q17 -32 10 -74t-33 -73q-29 -31 -84 -47t-105 -16zM681 261
q16 -31 10 -72q-13 -90 -124 -118q-41 -12 -100 -15q-17 -1 -91 -1t-91 1q-58 4 -93 15q-101 27 -88 118q6 40 35 72q28 32 85.5 48t109.5 16h171q52 0 105 -16t71 -48z" />
    <glyph glyph-name="nine" unicode="9" horiz-adv-x="869" 
d="M737 370l-3 -17q-26 -163 -115 -230.5t-258 -67.5q-8 0 -25.5 -0.5t-26.5 -0.5q-157 0 -188 53q-10 19 -12 44q1 13 7 50l1 7h-51l-1 -7q-5 -30 -5 -34q-3 -19 -2 -33q0 -32 19 -62q16 -25 43.5 -41t66.5 -22t65 -7.5t66 -1.5h34q107 0 188.5 24t144.5 95q75 86 101 243
q28 177 -14 248q-57 96 -290 96q-40 0 -69.5 -1t-68.5 -6.5t-68 -14t-60.5 -25t-52.5 -39.5t-38 -57.5t-24 -77.5q-13 -82 15 -131q49 -88 291 -88q238 0 318 90q4 4 12 14zM695 392q-64 -72 -280 -72q-214 0 -252 68q-21 38 -13 97q5 34 19.5 60.5t32 44t45.5 29.5t50.5 18
t58.5 9.5t58 4t60 0.5q45 0 79 -2.5t75 -12.5t66 -26.5t39.5 -48.5t7.5 -75q-8 -55 -46 -94z" />
    <glyph glyph-name="colon" unicode=":" horiz-adv-x="235" 
d="M164 443h-69l-13 -79h69zM106 79h-69l-13 -79h69z" />
    <glyph glyph-name="semicolon" unicode=";" horiz-adv-x="323" 
d="M242 441h-68l-12 -77h68zM193 74h-61l-224 -337h56z" />
    <glyph glyph-name="less" unicode="&#x3c;" horiz-adv-x="622" 
d="M81 360l-6 -42l410 -289l10 64l-354 246l432 246l10 64z" />
    <glyph glyph-name="equal" unicode="=" horiz-adv-x="725" 
d="M666 513h-560l-9 -55h560zM623 245h-560l-9 -55h560z" />
    <glyph glyph-name="greater" unicode="&#x3e;" horiz-adv-x="622" 
d="M471 339l-432 -246l-10 -64l502 289l6 42l-410 289l-10 -64z" />
    <glyph glyph-name="question" unicode="?" horiz-adv-x="810" 
d="M419 379q-13 -1 -39.5 -2.5t-39.5 -2.5h-7l-29 -181h49l20 127q140 9 168 14q118 17 162 70q36 40 47 105q10 61 -14 105q-45 80 -272 80q-182 0 -331 -43l-6 -1l-9 -57l10 3q161 44 328 44q203 0 235 -61q15 -27 8 -73q-6 -39 -30 -68q-30 -35 -117 -49q-24 -3 -133 -10
zM345 79h-69l-13 -79h69z" />
    <glyph glyph-name="at" unicode="@" horiz-adv-x="1127" 
d="M510 281q-35 0 -60.5 -2t-59 -10t-56 -22t-41 -41t-24.5 -65t2.5 -66t26 -44t46 -25.5t56 -12.5t61.5 -3q68 0 135.5 23t116.5 70q5 -43 32.5 -68t74.5 -25q40 0 74 19t55.5 47t38 66.5t25 71t13.5 65.5q37 231 -70 333.5t-347 102.5q-283 0 -425 -157
q-91 -101 -118 -276q-19 -119 4 -257v-5h54l-2 10q-25 136 -6 253q24 154 99 239q65 71 171 105t214 34q277 0 352 -133q52 -91 25 -249q-5 -35 -14.5 -68t-26.5 -68t-44.5 -56.5t-61.5 -21.5q-85 0 -67 109l24 156q17 103 -28.5 140.5t-153.5 37.5q-103 0 -233 -36l-6 -1
l-9 -56l10 3q118 37 230 37q41 0 66 -3.5t47.5 -14.5t29.5 -35t1 -62l-6 -39h-225zM715 158q0 -1 -2 -3q-4 -6 -5 -9l-11 -12q-80 -91 -225 -91q-35 0 -60 3t-50.5 12.5t-37 30.5t-6.5 52q5 30 22 50q32 37 163 37h224z" />
    <glyph glyph-name="A" unicode="A" horiz-adv-x="963" 
d="M823 0l-289 705l-510 -705h57l203 279h367l113 -279h59zM518 604l113 -274l-311 -1z" />
    <glyph glyph-name="B" unicode="B" 
d="M538 705h-402l-112 -705h403q40 0 67.5 1.5t68 8t73 23.5t55.5 43q42 46 52 110q10 62 -9 110.5t-69 71.5q103 43 120 155q8 49 -3.5 84t-33.5 53.5t-60.5 29t-71 13t-78.5 2.5zM498 394h-362l40 256h350q36 0 55 -0.5t50.5 -4t47.5 -11.5t33.5 -21.5t22.5 -36.5t0 -54
q-7 -42 -29.5 -69.5t-59.5 -39t-69.5 -15.5t-78.5 -4zM82 55l45 284h387q34 0 54.5 -1.5t47 -7.5t43 -20.5t25.5 -37.5q15 -36 8 -85q-7 -43 -28.5 -71t-57.5 -40.5t-68.5 -16.5t-79.5 -4h-376z" />
    <glyph glyph-name="C" unicode="C" horiz-adv-x="887" 
d="M765 119l-32 36l-5 -6q-88 -94 -302 -94q-173 0 -247 67t-48 231q27 165 122 232t268 67q213 0 272 -94l3 -7l43 36l-3 6q-68 113 -307 113q-193 0 -306 -83t-143 -270t57.5 -269.5t280.5 -82.5q240 0 342 113z" />
    <glyph glyph-name="D" unicode="D" horiz-adv-x="869" 
d="M24 0h321q384 0 439 352q24 148 -29 235q-38 64 -120 91.5t-178 27.5h-321zM177 652h272q203 0 262 -98q44 -73 22 -201q-20 -130 -86 -201q-88 -98 -293 -98h-272z" />
    <glyph glyph-name="E" unicode="E" horiz-adv-x="806" 
d="M136 705l-112 -705h639l9 55h-590l45 284h451l9 55h-451l40 256h591l9 55h-640z" />
    <glyph glyph-name="F" unicode="F" horiz-adv-x="806" 
d="M136 705l-112 -705h49l54 339h451l9 55h-451l40 256h591l9 55h-640z" />
    <glyph glyph-name="G" unicode="G" horiz-adv-x="887" 
d="M765 119l44 275h-486l-9 -55h430l-32 -205q-92 -79 -286 -79q-173 0 -247 67t-48 231q27 165 122 232t268 67q213 0 272 -94l3 -7l43 36l-3 6q-68 113 -307 113q-193 0 -306 -82.5t-143 -269.5q-30 -188 57 -270.5t281 -82.5q240 0 342 113z" />
    <glyph glyph-name="H" unicode="H" 
d="M825 706h-50l-49 -312h-590l49 312h-49l-112 -706h49l54 339h590l-54 -339h50z" />
    <glyph glyph-name="I" unicode="I" horiz-adv-x="215" 
d="M136 706l-112 -706h49l112 706h-49z" />
    <glyph glyph-name="J" unicode="J" horiz-adv-x="795" 
d="M339 52q-204 0 -224 182l-1 5h-52l1 -9q22 -230 266 -230q135 0 229 72q124 96 164 356l44 278h-50l-44 -278q-37 -236 -143 -318q-76 -58 -190 -58z" />
    <glyph glyph-name="K" unicode="K" horiz-adv-x="876" 
d="M748 706l-6 -1l-604 -295l46 296h-48l-112 -706h49l53 339l501 -339h91l-551 375l680 331h-30h-38h-23h-8z" />
    <glyph glyph-name="L" unicode="L" horiz-adv-x="804" 
d="M136 706l-112 -706h639l9 55h-590l103 651h-49z" />
    <glyph glyph-name="M" unicode="M" horiz-adv-x="921" 
d="M729 0h49l112 706h-40l-416 -528l-254 528h-44l-112 -706h51l95 596l234 -481l40 -2l380 486z" />
    <glyph glyph-name="N" unicode="N" 
d="M825 706h-50l-99 -626l-500 626h-40l-112 -706h49l101 627l497 -627h42z" />
    <glyph glyph-name="O" unicode="O" horiz-adv-x="952" 
d="M529 706q-194 0 -306.5 -83t-142.5 -270q-30 -189 56 -272t281 -83q194 0 306.5 84t142.5 271q30 189 -55.5 271t-281.5 82zM521 652q175 0 248.5 -67t46.5 -232q-26 -164 -121.5 -232t-268.5 -68q-174 0 -247.5 67.5t-47.5 232.5t121 232t269 67z" />
    <glyph glyph-name="P" unicode="P" horiz-adv-x="844" 
d="M75 0l48 311h353q46 0 79.5 2.5t75 13t69 29t50.5 53.5t30 84l5 31q8 49 -3.5 84t-33.5 53.5t-60.5 29t-71 13t-78.5 2.5h-402l-112 -706h51zM177 651h350q44 0 66.5 -1t58 -7.5t52 -19t27 -38t4.5 -62.5l-3 -20q-4 -24 -7 -36q-8 -27 -26 -47t-39 -30t-51 -16t-53 -7.5
t-54 -1.5h-371z" />
    <glyph glyph-name="Q" unicode="Q" horiz-adv-x="965" 
d="M747 -40h71l-93 123q23 18 39 35q79 86 102 235q30 189 -55.5 271t-281.5 82q-194 0 -306.5 -83t-142.5 -270q-30 -189 56 -272t281 -83q156 0 261 55zM454 347l193 -255q-88 -39 -221 -39q-174 0 -247.5 67.5t-47.5 232.5t121 232t269 67q175 0 248.5 -67t46.5 -232
q-25 -163 -120 -232l-172 226h-70z" />
    <glyph glyph-name="R" unicode="R" horiz-adv-x="851" 
d="M24 0h51l48 311h280l235 -311h71l-236 311q47 0 79.5 2t75 12.5t70.5 29t51 53.5t31 85l5 31q8 49 -3.5 84t-33.5 53.5t-60.5 29t-71 13t-78.5 2.5h-402zM131 365l46 286h350q44 0 66.5 -1t58 -7.5t52 -19t27 -38t4.5 -62.5l-3 -20q-4 -24 -7 -36q-8 -27 -26 -47t-39 -30
t-51 -16t-53 -7.5t-54 -1.5h-371z" />
    <glyph glyph-name="S" unicode="S" horiz-adv-x="833" 
d="M306 0h108q38 0 64.5 1.5t63 7t62.5 17t51.5 30.5t41.5 49.5t22 70.5l3 17q3 15 5 50q0 37 -19 65q-29 47 -104 63q-42 9 -129 9h-111q-52 0 -79 1q-44 3 -72 14q-72 25 -59 108l2 15q11 58 32 81q48 53 202 53h137q43 0 71.5 -2t63.5 -14.5t48 -36.5q13 -20 11 -43
q1 -9 -4 -50l-2 -8h49l2 8q7 53 6 66q0 32 -17 62q-27 47 -104 63q-39 7 -67 7q-22 2 -64 2h-108q-38 0 -64.5 -1.5t-63 -6.5t-62 -17t-51 -30.5t-41 -49t-22.5 -71.5l-2 -16q-6 -34 -5 -51q-2 -37 16 -65q16 -25 42.5 -41t64.5 -22t62.5 -7.5t65.5 -1.5h111q53 0 79 -2
q43 -2 73 -13q72 -26 59 -108l-3 -17q-2 -15 -8 -35q-10 -32 -33 -53t-57 -30t-61.5 -11.5t-65.5 -2.5h-145q-44 0 -72 2t-64 14.5t-49 36.5q-9 13 -11 43q0 16 6 50l1 7h-50l-1 -7q-4 -24 -5 -34q-2 -25 -1 -32q-2 -32 17 -62q29 -49 104 -63q35 -7 67 -8q21 -1 63 -1z" />
    <glyph glyph-name="T" unicode="T" horiz-adv-x="860" 
d="M128 651h322l-105 -651h51l104 651h322l8 55h-694z" />
    <glyph glyph-name="U" unicode="U" horiz-adv-x="815" 
d="M741 428l44 278h-49l-44 -278q-36 -233 -144 -318q-76 -58 -191 -58t-173 58q-80 82 -43 318l44 278h-49l-44 -278q-11 -71 -13 -128t10 -115t40.5 -97t84 -63.5t134.5 -24.5t142 24t104.5 63t72 96.5t47 115.5t27.5 129z" />
    <glyph glyph-name="V" unicode="V" horiz-adv-x="997" 
d="M455 60l-260 646h-59l290 -711l37 -2l504 713h-54z" />
    <glyph glyph-name="W" unicode="W" horiz-adv-x="1172" 
d="M1143 706h-53l-317 -623l-112 623h-44l-309 -623l-120 623h-52l138 -711h5q12 -2 19 -2h16l312 633l113 -632h4q3 -1 9 -1q7 0 23 2h5z" />
    <glyph glyph-name="X" unicode="X" horiz-adv-x="879" 
d="M471 353l379 353h-63l-344 -317l-244 317h-63l268 -353l-380 -353h66l341 315l239 -315h68z" />
    <glyph glyph-name="Y" unicode="Y" horiz-adv-x="885" 
d="M414 344l-55 -344h48l55 342l394 364h-69l-341 -314l-243 314h-67z" />
    <glyph glyph-name="Z" unicode="Z" horiz-adv-x="806" 
d="M110 55l659 605l7 46h-640l-9 -56l565 3l-660 -607l-8 -46h639l9 55h-562z" />
    <glyph glyph-name="bracketleft" unicode="[" horiz-adv-x="478" 
d="M459 771h-312l-137 -865h312l8 55h-264l120 757h264z" />
    <glyph glyph-name="backslash" unicode="\" horiz-adv-x="726" 
d="M206 773h-59l364 -866h60z" />
    <glyph glyph-name="bracketright" unicode="]" horiz-adv-x="478" 
d="M282 -40h-264l-8 -54h312l137 865h-312l-9 -55h264z" />
    <glyph glyph-name="asciicircum" unicode="^" horiz-adv-x="569" 
d="M351 681h-51l-234 -416v-4v-1l-1 -2l-2 -14h49l204 365l101 -365h49l2 7v2q1 2 1 4v4v5z" />
    <glyph glyph-name="underscore" unicode="_" horiz-adv-x="1019" 
d="M880 16h-853l-9 -55h853z" />
    <glyph glyph-name="grave" unicode="`" horiz-adv-x="425" 
d="M166 897l-3 -24l193 -127h46l3 24l-178 127h-61z" />
    <glyph glyph-name="a" unicode="a" horiz-adv-x="963" 
d="M822 0l-288 705l-510 -705h57l203 279h367l112 -279h59zM518 604l113 -274l-311 -1z" />
    <glyph glyph-name="b" unicode="b" 
d="M538 705h-402l-112 -705h403q40 0 67.5 1.5t68 8t73 23.5t55.5 43q42 46 52 110q10 62 -9 110.5t-69 71.5q103 43 120 155q8 49 -3.5 84t-33.5 53.5t-60.5 29t-71 13t-78.5 2.5zM498 394h-362l40 256h350q36 0 55 -0.5t50.5 -4t47.5 -11.5t33.5 -21.5t22.5 -36.5t0 -54
q-7 -42 -29.5 -69.5t-59.5 -39t-69.5 -15.5t-78.5 -4zM82 55l45 284h387q34 0 54.5 -1.5t47 -7.5t43 -20.5t25.5 -37.5q15 -36 8 -85q-7 -43 -28.5 -71t-57.5 -40.5t-68.5 -16.5t-79.5 -4h-376z" />
    <glyph glyph-name="c" unicode="c" horiz-adv-x="887" 
d="M765 119l-32 36l-5 -6q-88 -94 -302 -94q-173 0 -247 67t-48 231q27 165 122 232t268 67q213 0 272 -94l3 -7l43 36l-3 6q-68 113 -307 113q-193 0 -306 -83t-143 -270t57.5 -269.5t280.5 -82.5q240 0 342 113z" />
    <glyph glyph-name="d" unicode="d" horiz-adv-x="869" 
d="M24 0h321q384 0 439 352q24 148 -29 235q-38 64 -120 91.5t-178 27.5h-321zM177 652h272q203 0 262 -98q44 -73 22 -201q-20 -130 -86 -201q-88 -98 -293 -98h-272z" />
    <glyph glyph-name="e" unicode="e" horiz-adv-x="806" 
d="M136 705l-112 -705h639l9 55h-590l45 284h451l9 55h-451l40 256h591l9 55h-640z" />
    <glyph glyph-name="f" unicode="f" horiz-adv-x="806" 
d="M136 705l-112 -705h49l54 339h451l9 55h-451l40 256h591l9 55h-640z" />
    <glyph glyph-name="g" unicode="g" horiz-adv-x="887" 
d="M765 119l44 275h-486l-9 -55h430l-32 -205q-92 -79 -286 -79q-173 0 -247 67t-48 231q27 165 122 232t268 67q213 0 272 -94l3 -7l43 36l-3 6q-68 113 -307 113q-193 0 -306 -82.5t-143 -269.5q-30 -188 57 -270.5t281 -82.5q240 0 342 113z" />
    <glyph glyph-name="h" unicode="h" 
d="M825 706h-50l-49 -312h-590l49 312h-49l-112 -706h49l54 339h590l-54 -339h50z" />
    <glyph glyph-name="i" unicode="i" horiz-adv-x="215" 
d="M136 706l-112 -706h49l112 706h-49z" />
    <glyph glyph-name="j" unicode="j" horiz-adv-x="795" 
d="M339 52q-204 0 -224 182l-1 5h-52l1 -9q22 -230 266 -230q135 0 229 72q124 96 164 356l44 278h-50l-44 -278q-37 -236 -143 -318q-76 -58 -190 -58z" />
    <glyph glyph-name="k" unicode="k" horiz-adv-x="876" 
d="M748 706l-6 -1l-604 -295l46 296h-48l-112 -706h49l53 339l501 -339h91l-551 375l680 331h-30h-38h-23h-8z" />
    <glyph glyph-name="l" unicode="l" horiz-adv-x="804" 
d="M136 706l-112 -706h639l9 55h-590l103 651h-49z" />
    <glyph glyph-name="m" unicode="m" horiz-adv-x="921" 
d="M729 0h49l112 706h-40l-416 -528l-254 528h-44l-112 -706h51l95 596l234 -481l40 -2l380 486z" />
    <glyph glyph-name="n" unicode="n" 
d="M825 706h-50l-99 -626l-500 626h-40l-112 -706h49l101 627l497 -627h42z" />
    <glyph glyph-name="o" unicode="o" horiz-adv-x="952" 
d="M529 706q-194 0 -306.5 -83t-142.5 -270q-30 -189 56 -272t281 -83q194 0 306.5 84t142.5 271q30 189 -55.5 271t-281.5 82zM521 652q175 0 248.5 -67t46.5 -232q-26 -164 -121.5 -232t-268.5 -68q-174 0 -247.5 67.5t-47.5 232.5t121 232t269 67z" />
    <glyph glyph-name="p" unicode="p" horiz-adv-x="844" 
d="M75 0l48 311h353q46 0 79.5 2.5t75 13t69 29t50.5 53.5t30 84l5 31q8 49 -3.5 84t-33.5 53.5t-60.5 29t-71 13t-78.5 2.5h-402l-112 -706h51zM177 651h350q44 0 66.5 -1t58 -7.5t52 -19t27 -38t4.5 -62.5l-3 -20q-4 -24 -7 -36q-8 -27 -26 -47t-39 -30t-51 -16t-53 -7.5
t-54 -1.5h-371z" />
    <glyph glyph-name="q" unicode="q" horiz-adv-x="965" 
d="M747 -40h71l-93 123q23 18 39 35q79 86 102 235q30 189 -55.5 271t-281.5 82q-194 0 -306.5 -83t-142.5 -270q-30 -189 56 -272t281 -83q156 0 261 55zM454 347l193 -255q-88 -39 -221 -39q-174 0 -247.5 67.5t-47.5 232.5t121 232t269 67q175 0 248.5 -67t46.5 -232
q-25 -163 -120 -232l-172 226h-70z" />
    <glyph glyph-name="r" unicode="r" horiz-adv-x="851" 
d="M24 0h51l48 311h280l235 -311h71l-236 311q47 0 79.5 2t75 12.5t70.5 29t51 53.5t31 85l5 31q8 49 -3.5 84t-33.5 53.5t-60.5 29t-71 13t-78.5 2.5h-402zM131 365l46 286h350q44 0 66.5 -1t58 -7.5t52 -19t27 -38t4.5 -62.5l-3 -20q-4 -24 -7 -36q-8 -27 -26 -47t-39 -30
t-51 -16t-53 -7.5t-54 -1.5h-371z" />
    <glyph glyph-name="s" unicode="s" horiz-adv-x="833" 
d="M306 0h108q38 0 64.5 1.5t63 7t62.5 17t51.5 30.5t41.5 49.5t22 70.5l3 17q3 15 5 50q0 37 -19 65q-29 47 -104 63q-42 9 -129 9h-111q-52 0 -79 1q-44 3 -72 14q-72 25 -59 108l2 15q11 58 32 81q48 53 202 53h137q43 0 71.5 -2t63.5 -14.5t48 -36.5q13 -20 11 -43
q1 -9 -4 -50l-2 -8h49l2 8q7 53 6 66q0 32 -17 62q-27 47 -104 63q-39 7 -67 7q-22 2 -64 2h-108q-38 0 -64.5 -1.5t-63 -6.5t-62 -17t-51 -30.5t-41 -49t-22.5 -71.5l-2 -16q-6 -34 -5 -51q-2 -37 16 -65q16 -25 42.5 -41t64.5 -22t62.5 -7.5t65.5 -1.5h111q53 0 79 -2
q43 -2 73 -13q72 -26 59 -108l-3 -17q-2 -15 -8 -35q-10 -32 -33 -53t-57 -30t-61.5 -11.5t-65.5 -2.5h-145q-44 0 -72 2t-64 14.5t-49 36.5q-9 13 -11 43q0 16 6 50l1 7h-50l-1 -7q-4 -24 -5 -34q-2 -25 -1 -32q-2 -32 17 -62q29 -49 104 -63q35 -7 67 -8q21 -1 63 -1z" />
    <glyph glyph-name="t" unicode="t" horiz-adv-x="860" 
d="M128 651h322l-105 -651h51l104 651h322l8 55h-694z" />
    <glyph glyph-name="u" unicode="u" horiz-adv-x="815" 
d="M741 428l44 278h-49l-44 -278q-36 -233 -144 -318q-76 -58 -191 -58t-173 58q-80 82 -43 318l44 278h-49l-44 -278q-11 -71 -13 -128t10 -115t40.5 -97t84 -63.5t134.5 -24.5t142 24t104.5 63t72 96.5t47 115.5t27.5 129z" />
    <glyph glyph-name="v" unicode="v" horiz-adv-x="997" 
d="M455 60l-260 646h-59l290 -711l37 -2l504 713h-54z" />
    <glyph glyph-name="w" unicode="w" horiz-adv-x="1172" 
d="M1143 706h-53l-317 -623l-112 623h-44l-309 -623l-120 623h-52l138 -711h5q12 -2 19 -2h16l312 633l113 -632h4q3 -1 9 -1q7 0 23 2h5z" />
    <glyph glyph-name="x" unicode="x" horiz-adv-x="879" 
d="M471 353l379 353h-63l-344 -317l-244 317h-63l268 -353l-380 -353h66l341 315l239 -315h68z" />
    <glyph glyph-name="y" unicode="y" horiz-adv-x="885" 
d="M414 344l-55 -344h48l55 342l394 364h-69l-341 -314l-243 314h-67z" />
    <glyph glyph-name="z" unicode="z" horiz-adv-x="806" 
d="M110 55l659 605l7 46h-640l-9 -56l565 3l-660 -607l-8 -46h639l9 55h-562z" />
    <glyph glyph-name="braceleft" unicode="{" horiz-adv-x="727" 
d="M262 236q3 -24 -4 -69q-16 -109 -17 -123q-3 -45 9 -75.5t38.5 -45.5t57.5 -21t76 -6q79 0 143 12l6 2l9 55l-10 -3q-62 -13 -145 -13q-87 0 -115 30.5t-15 115.5q16 102 17 113q8 101 -71 132q35 12 58 31t36 48.5t18.5 52.5t11.5 64q12 70 17 90q17 62 56.5 83
t110.5 21q77 0 141 -14l9 -1l8 53l-6 2q-59 12 -139 12q-115 0 -168 -43.5t-70 -155.5q-2 -10 -5 -36.5t-6 -40.5q-12 -52 -22 -72q-26 -45 -89 -60q-21 -4 -59 -8q-38 -2 -54 -2l-7 -1l-8 -47h6q9 -1 28.5 -2t29.5 -2q30 -2 57 -9q61 -17 67 -67z" />
    <glyph glyph-name="bar" unicode="|" horiz-adv-x="217" 
d="M202 800h-51l-145 -916h51z" />
    <glyph glyph-name="braceright" unicode="}" horiz-adv-x="727" 
d="M19 -35l-9 -55l6 -2q59 -12 139 -12q39 0 65 2.5t60.5 17t58.5 41.5q40 45 54 138q2 12 6 38t5 35q6 41 18 69q23 48 88 66q30 7 61 9q10 1 29.5 2t28.5 2h6l8 47l-7 1q-16 0 -54 2q-27 1 -55 8q-60 15 -71 60q-5 24 3 78q15 90 17 123q5 86 -42 116.5t-139 30.5
q-79 0 -143 -12l-6 -2l-8 -53l9 1q67 14 145 14q88 0 115.5 -31t13.5 -118q-1 -8 -7.5 -48t-8.5 -61q-4 -52 12.5 -84t58.5 -48q-35 -13 -58 -32t-35.5 -49t-18 -52t-12.5 -64q-13 -80 -16 -90q-17 -63 -56.5 -83.5t-111.5 -20.5q-81 0 -141 13z" />
    <glyph glyph-name="asciitilde" unicode="~" horiz-adv-x="645" 
d="M102 317q20 25 32 39t34 28t42 14q26 0 52 -17q11 -5 24 -17q4 -3 12 -10t12 -10q23 -19 35.5 -28t35.5 -19t45 -10q62 0 123 72q2 4 8 10l4 6l1 1q0 2 1 2l1 2q1 1 1 3l8 47h-26l-3 -4q-19 -24 -32 -38.5t-35 -28.5t-42 -14q-25 0 -50 17q-9 4 -24 17q-12 8 -24 20
q-21 18 -35 28t-37 19.5t-45 9.5q-65 0 -123 -73q-5 -5 -7 -9q-3 -2 -5 -6l-1 -1q-1 -2 -2 -2v-4l-8 -48h25z" />
    <glyph glyph-name="cent" unicode="&#xa2;" horiz-adv-x="674" 
d="M349 144l62 391q120 -6 156 -65l4 -8l40 37l-3 4q-43 78 -189 84l28 173h-54l-28 -173q-250 -11 -287 -246q-19 -122 34 -183t175 -66l-24 -150h54l24 150q147 6 215 84l5 4l-29 37l-6 -8q-54 -59 -177 -65zM357 535l-62 -391q-102 5 -142.5 50t-24.5 146t70.5 145.5
t158.5 49.5z" />
    <glyph glyph-name="sterling" unicode="&#xa3;" horiz-adv-x="912" 
d="M165 54l-134 -10l-7 -44h747l9 56h-564l40 253h470l9 55h-470l1 4q23 149 71 201q65 72 238 72q145 0 258 -52l10 -5l9 60l-4 3q-117 48 -264 48q-67 0 -116 -8.5t-96.5 -30.5t-81 -66.5t-52.5 -110.5q-14 -48 -22 -105l-2 -10h-132l-9 -55h132z" />
    <glyph glyph-name="yen" unicode="&#xa5;" horiz-adv-x="932" 
d="M121 138h285l-22 -138h50l22 138h283l9 53h-283l15 95h283l8 52h-249l377 343h-71l-364 -334l-261 334h-71l271 -343h-250l-8 -52h285l-15 -95h-285z" />
    <glyph glyph-name="dieresis" unicode="&#xa8;" horiz-adv-x="446" 
d="M227 836h-70l-12 -72h70zM438 836h-71l-12 -72h71z" />
    <glyph glyph-name="copyright" unicode="&#xa9;" horiz-adv-x="1024" 
d="M158 635q-75 -104 -75 -296q0 -226 100.5 -327t328.5 -101q229 0 329 101.5t100 326.5t-99.5 326t-329.5 101q-256 0 -354 -131zM512 712q208 0 294 -85t86 -288q0 -204 -85.5 -289t-294.5 -85q-207 0 -293 85t-86 289q0 203 86 288t293 85zM519 548q-112 0 -170 -50
t-58 -159q0 -110 57.5 -160.5t170.5 -50.5q106 0 188 48l3 3v61l-12 -7q-79 -50 -179 -50q-91 0 -134.5 35t-43.5 121t43.5 120.5t134.5 34.5q100 0 179 -50l12 -7v61l-3 2q-79 48 -188 48z" />
    <glyph glyph-name="guillemotleft" unicode="&#xab;" horiz-adv-x="696" 
d="M81 359l-4 -24l194 -192h74l-206 204l269 205h-72zM314 359l-4 -24l193 -192h75l-207 204l270 205h-73z" />
    <glyph glyph-name="registered" unicode="&#xae;" horiz-adv-x="650" 
d="M325 722q-242 0 -242 -252t242 -252q243 0 243 252t-243 252zM325 671q106 0 150.5 -47.5t44.5 -153.5t-44.5 -153.5t-150.5 -47.5q-105 0 -149.5 48t-44.5 153t44.5 153t149.5 48zM352 590h-139v-235h47v76h70l87 -76h47v24l-68 56q56 17 56 77q0 47 -26 62.5t-74 15.5z
M355 482h-95v57h98h20q10 -2 14 -3q12 -5 12 -24t-13 -26q-9 -4 -36 -4z" />
    <glyph glyph-name="macron" unicode="&#xaf;" horiz-adv-x="575" 
d="M566 836h-409l-9 -53h409z" />
    <glyph glyph-name="degree" unicode="&#xb0;" horiz-adv-x="612" 
d="M358 698q-108 0 -173 -45t-81 -150t34 -150.5t158 -45.5q109 0 174 45.5t81 150.5t-34 150t-159 45zM350 645q90 0 127 -30t24 -112t-60.5 -112.5t-136.5 -30.5q-90 0 -127 30t-24 113q13 82 60 112t137 30z" />
    <glyph glyph-name="acute" unicode="&#xb4;" horiz-adv-x="425" 
d="M364 897l-218 -127l-3 -24h46l233 127l3 24h-61z" />
    <glyph glyph-name="cedilla" unicode="&#xb8;" horiz-adv-x="425" 
d="M290 34h-59l-236 -217h69z" />
    <glyph glyph-name="guillemotright" unicode="&#xbb;" horiz-adv-x="696" 
d="M112 552l204 -205l-268 -204h72l256 193l3 24l-194 192h-73zM345 552l203 -205l-267 -204h72l256 193l3 24l-194 192h-73z" />
    <glyph glyph-name="multiply" unicode="&#xd7;" horiz-adv-x="646" 
d="M285 356l-237 -210l19 -45l247 218l178 -218l36 45l-171 210l237 210l-20 45l-247 -218l-178 218l-35 -46z" />
    <glyph glyph-name="divide" unicode="&#xf7;" horiz-adv-x="746" 
d="M447 624h-68l-12 -78h68zM664 368h-581l-9 -55h581zM370 134h-68l-13 -78h68z" />
    <glyph glyph-name="circumflex" unicode="&#x2c6;" horiz-adv-x="554" 
d="M339 901l-193 -133l-4 -23h45l166 104l132 -104h45l4 23l-152 133h-43z" />
    <glyph glyph-name="caron" unicode="&#x2c7;" horiz-adv-x="554" 
d="M166 891l-4 -22l151 -134h43l194 134l4 22h-46l-165 -105l-132 105h-45z" />
    <glyph glyph-name="breve" unicode="&#x2d8;" horiz-adv-x="542" 
d="M167 898l-8 -47l1 -1q21 -41 70.5 -68t101.5 -27t110 26t93 68l1 2l7 46h-26l-2 -3q-32 -39 -79 -62t-95 -23t-87.5 23.5t-60.5 62.5l-2 3h-24z" />
    <glyph glyph-name="dotaccent" unicode="&#x2d9;" horiz-adv-x="237" 
d="M229 840h-72l-12 -76h72z" />
    <glyph glyph-name="ring" unicode="&#x2da;" horiz-adv-x="537" 
d="M363 962q-41 0 -72 -5.5t-61 -19.5t-49.5 -43.5t-26.5 -72.5q-6 -35 0.5 -60.5t20.5 -41t38 -24.5t48.5 -12t56.5 -3q87 0 141 29.5t67 111.5t-31.5 111.5t-131.5 29.5zM354 908q32 0 52 -2.5t39.5 -10.5t27 -26.5t2.5 -47.5q-8 -54 -44.5 -70.5t-103.5 -16.5
q-31 0 -52 2.5t-40.5 11t-27 27t-3.5 46.5q9 53 47 70t103 17z" />
    <glyph glyph-name="ogonek" unicode="&#x2db;" horiz-adv-x="464" 
d="M29 -48q-14 -16 -19 -41q-8 -52 45 -70q30 -10 92 -10q77 0 147 22l5 1l9 57l-10 -4q-68 -24 -143 -24q-34 0 -56 2q-4 1 -13.5 2.5t-13.5 2.5q-11 4 -13 9t-1 12q1 9 6 15q7 10 72 42q72 32 89 40l15 6l-46 26l-4 -2q-5 -2 -35.5 -14.5t-48.5 -21.5q-59 -29 -77 -50z
" />
    <glyph glyph-name="tilde" unicode="&#x2dc;" horiz-adv-x="558" 
d="M216 829q23 23 47 23q19 0 38 -12q13 -7 41 -28q57 -42 92 -42q54 0 108 66q2 4 5 6q2 4 3 5q2 2 2 5l7 45h-27l-2 -4q-3 -4 -9.5 -11.5t-9.5 -11.5q-9 -12 -20 -23q-26 -23 -49 -23q-15 0 -37 12q-7 5 -21.5 14.5t-19.5 13.5q-59 42 -93 42q-33 0 -57 -17t-50 -49l-2 -2
q-1 -3 -3 -4q0 -2 -2 -4q-2 -4 -2 -6l-7 -45h25l2 4q7 7 19 23q4 4 22 23z" />
    <glyph glyph-name="hungarumlaut" unicode="&#x2dd;" horiz-adv-x="554" 
d="M333 905l-187 -137l-3 -22h44l196 137l4 22h-54zM502 905l-187 -137l-3 -22h44l196 137l4 22h-54z" />
    <glyph glyph-name="uni0326" unicode="&#x326;" horiz-adv-x="0" 
d="M-262 -200l-89 -96h57l56 57q36 38 55.5 68t25.5 70q0 1 3 29l1 7h-51l-1 -8l-3 -24q-9 -55 -54 -103z" />
    <glyph glyph-name="endash" unicode="&#x2013;" horiz-adv-x="773" 
d="M691 371h-608l-9 -55h608z" />
    <glyph glyph-name="emdash" unicode="&#x2014;" horiz-adv-x="1157" 
d="M1074 371h-991l-9 -55h991z" />
    <glyph glyph-name="quoteleft" unicode="&#x2018;" horiz-adv-x="411" 
d="M380 695h-54l-243 -324h63z" />
    <glyph glyph-name="quoteright" unicode="&#x2019;" horiz-adv-x="410" 
d="M379 695h-62l-234 -324h54z" />
    <glyph glyph-name="quotedblleft" unicode="&#x201c;" horiz-adv-x="604" 
d="M380 695h-54l-243 -324h63zM572 695h-54l-243 -324h62z" />
    <glyph glyph-name="quotedblright" unicode="&#x201d;" horiz-adv-x="603" 
d="M379 695h-62l-234 -324h54zM572 695h-63l-234 -324h54z" />
    <glyph glyph-name="ellipsis" unicode="&#x2026;" horiz-adv-x="737" 
d="M106 79h-69l-13 -79h69zM355 79h-69l-13 -79h69zM609 79h-70l-13 -79h70z" />
    <glyph glyph-name="guilsinglleft" unicode="&#x2039;" horiz-adv-x="464" 
d="M81 359l-4 -24l194 -192h74l-206 204l269 205h-72z" />
    <glyph glyph-name="guilsinglright" unicode="&#x203a;" horiz-adv-x="464" 
d="M112 552l204 -205l-268 -204h72l256 193l3 24l-194 192h-73z" />
    <glyph glyph-name="Euro" unicode="&#x20ac;" horiz-adv-x="923" 
d="M61 233h102q0 -73 19.5 -122.5t60.5 -76.5t93.5 -38t127.5 -11q179 0 321 60l5 2l10 62l-12 -6q-142 -64 -315 -64q-131 0 -193.5 40t-66.5 154h491l9 53h-498q0 2 2 23t4 32l10 49h498l8 52h-491q40 118 114 158.5t208 40.5q162 0 294 -63l9 -4l10 61l-5 1
q-141 59 -300 59q-98 0 -171.5 -21t-131.5 -86q-53 -58 -77 -146h-102l-8 -52h96q-3 -13 -10 -49q-5 -29 -6 -55h-96z" />
    <glyph glyph-name="trademark" unicode="&#x2122;" horiz-adv-x="1086" 
d="M83 635h182v-328h49v328h184v55h-415v-55zM597 690h-55v-383h49v291l160 -291h42l161 292v-292h50v383h-57l-176 -317z" />
    <glyph glyph-name="minus" unicode="&#x2212;" horiz-adv-x="740" 
d="M657 367h-574l-9 -55h574z" />
    <glyph glyph-name="_FSHallmark" horiz-adv-x="930" 
d="M839 584h-745v88h745v-88zM832 417h-90q0 11 -6 20q-5 6 -17 16q-14 7 -21 9q-8 2 -21 2q-25 0 -42 -10q-20 -11 -20 -26q0 -27 17 -36q23 -13 40 -16l32 -7q5 -1 15 -3.5t12 -3.5q18 -6 27 -6q11 -1 22 -6l19 -9q18 -12 28 -25q8 -14 11 -39q2 -26 -10 -45
q-23 -40 -64 -53q-47 -14 -86 -14q-33 0 -60 8q-30 9 -52 25t-38 43q-14 22 -14 58l86 -1q0 -5 4 -13q1 -14 13 -24q11 -11 22 -15q15 -8 43 -8q30 0 47 10q18 9 18 23q0 25 -71 43q-60 14 -109 39q-45 23 -45 74q0 44 29 67q29 22 66 36q25 7 61 7q50 0 86 -16
q39 -19 59 -60q9 -27 9 -44zM371 286h-179v-121h-98v371h313v-84h-215v-83h179v-83zM399 210q0 19 13 32q11 12 32 12q19 0 35 -13q15 -12 15 -31q0 -18 -15 -31q-15 -12 -35 -12q-15 0 -31 14q-14 12 -14 29zM838 30h-747v89h747v-89z" />
    <glyph glyph-name="_Fontastica" horiz-adv-x="709" 
d="M483 277h-320v-160h-94q-1 2 -1 5v552h414v-84h-319v-228h320v-85zM544 431h-321v85h321v158h94v-555h-415v84h321v228zM544 63q-5 -3 -5 -9q0 -8 3 -12q4 -4 10 -4q8 0 16 4l4 -4q-6 -9 -20 -9q-9 0 -17 5q-7 9 -8 17q0 12 7 19q8 8 18 8t20 -8l-4 -7q-4 2 -6 5h-8h-2
q-3 0 -8 -5zM81 29h-12v48h35v-9h-23v-12h21v-8h-21v-19zM147 77q16 0 23 -13q8 -8 3 -22q-6 -13 -21 -13l-6 -3q-7 0 -10 3q-15 7 -15 21q0 12 7 20q7 7 19 7zM230 77h9v-48h-3h-3q-3 0 -8 5l-2 2q-2 3 -2 5q-3 3 -5 6q-8 10 -10 12v-30h-10v48h8q4 -1 6 -6q8 -8 11 -12
q5 -10 9 -15v33zM275 68h-15v9h40v-9h-16v-39h-9v39zM408 54q10 0 10 -10q2 -11 -9 -15h-8q-16 0 -23 7q1 1 1 2l1 1q0 2 1 3l15 -4h7l3 3q0 8 -11 9q-1 0 -2 1t-4 1q-8 1 -8 11q-2 8 7 12q6 2 10 2q13 0 20 -4l-5 -9q0 1 -3 1q-1 0 -2 1q-1 2 -3 2h-2h-7q-3 0 -3 -3
q-1 -1 3 -6q3 -1 7 -3t5 -2zM449 68h-15v9h42v-9h-16v-39h-11v39zM507 29h-12v48h12v-48zM608 77h12l10 -23l6 -13q2 -7 5 -12h-11l-4 10h-23l-4 -10h-11q11 20 20 48zM311 29l19 46h11l6 -11q3 -4 5 -11q0 -1 1.5 -3t2 -4.5t0.5 -4.5t1 -4t2 -4.5t1 -3.5h-10q-1 2 -1 5
l-1 2q-1 1 -1 3h-22q-2 -1 -2 -5v-2q-2 -1 -3 -3h-9zM161 52v1q0 7 -3 11t-12 4h-3q-7 -5 -9 -8q-5 -6 -1 -12q3 -11 14 -11q3 0 4 1q10 1 10 14zM335 65l-8 -17h16q-1 0 -1 2t-1 2l-1 2l-1 2q-1 2 -1 5l-1 1q-1 2 -2 3zM614 65l-7 -17h15q-2 1 -2 4q0 4 -2 4q-1 2 -1 5
q-1 1 -2 3z" />
    </font>
</defs>
</svg>
