<svg xmlns="http://www.w3.org/2000/svg">
<defs>
<font id="Neon-Light" horiz-adv-x="845" >
  <font-face 
    font-family="Neon Light"
    font-weight="300"
    font-stretch="normal"
    units-per-em="1000"
    panose-1="0 0 4 0 0 0 0 0 0 0"
    ascent="800"
    descent="-200"
    x-height="704"
    cap-height="704"
    bbox="-225 -301 1077 965"
    underline-thickness="50"
    underline-position="-200"
    unicode-range="U+000D-2212"
  />
<missing-glyph horiz-adv-x="581" 
d="M83 682h416v-664h-416v664zM467 46v604h-353v-604h353zM203 166h-34l103 222l-103 222h34l90 -191l86 191h34l-101 -222l101 -222h-34l-86 191zM395 106q-2 -1 -2 -6q0 -3 2 -5q1 -2 6 -2q4 0 7 2l2 -2q-3 -6 -9 -6q-2 0 -5.5 1t-4.5 1q-2 2 -2.5 5.5t-1.5 4.5q-2 5 3 10
q4 4 11 4q5 0 9 -4l-2 -3l-2 1q-1 0 -1 1t-4 1q-4 -1 -6 -3zM149 98v-10h-8v24h20v-3h-12v-8h9v-3h-9zM178 88q-9 2 -9 11q0 8 4 10q3 3 9 3q9 0 14 -5q2 -10 1 -12q-1 -6 -10 -8l-5 -1q-2 0 -4 2zM227 96v16h5v-24h-1q-1 -1 -2 -1l-1 1q-2 1 -3 1l-1 2q-1 2 -2 2l-2 4
q-1 2 -4 3l-1 2v-14h-6v24h5l1 -1q1 -1 2 -1l2 -3q2 -3 3 -5q4 -4 5 -6zM244 109v3h21v-3h-8v-21h-5v21h-8zM293 100l1 -2q2 -2 2 -4q0 -5 1 -6h-6v1l-1 1q0 1 -1 3h-11q-1 0 -1 -4q-1 0 -2 -1h-5l11 24h6q0 -4 2 -5q4 -6 4 -7zM323 100q4 0 4 -5q3 -5 -4 -7q0 -1 -5 -1
q-3 0 -12 3q2 1 2 3v2l9 -2h3h1q0 5 -6 6q0 -1 -1 0q0 1 -2 1q-4 0 -4 6q0 4 3 6h6q9 0 10 -1l-1 -4h-3l-2 1q-1 0 -1 1h-3q-3 0 -3 -2t3 -5q2 0 6 -2zM337 109v3h22v-3h-9v-21h-6v21h-7zM368 88v24h7v-24h-7zM427 93l-2 -5h-6q7 10 10 24h7l5 -12l3 -6q1 -3 4 -6h-7l-2 5
h-12zM176 103q-2 -3 0 -5q0 -7 6 -7q3 0 3 2q6 0 6 7q0 5 -3 7q0 2 -6 2q0 -1 -2 -1l-1 -2zM279 98q8 0 8 2l-2 1v4q-1 0 -1 1t-1 1zM432 107l-4 -9q8 0 8 2v1v2q0 2 -1 2t-2 1z" />
    <glyph glyph-name=".notdef" horiz-adv-x="581" 
d="M83 682h416v-664h-416v664zM467 46v604h-353v-604h353zM203 166h-34l103 222l-103 222h34l90 -191l86 191h34l-101 -222l101 -222h-34l-86 191zM395 106q-2 -1 -2 -6q0 -3 2 -5q1 -2 6 -2q4 0 7 2l2 -2q-3 -6 -9 -6q-2 0 -5.5 1t-4.5 1q-2 2 -2.5 5.5t-1.5 4.5q-2 5 3 10
q4 4 11 4q5 0 9 -4l-2 -3l-2 1q-1 0 -1 1t-4 1q-4 -1 -6 -3zM149 98v-10h-8v24h20v-3h-12v-8h9v-3h-9zM178 88q-9 2 -9 11q0 8 4 10q3 3 9 3q9 0 14 -5q2 -10 1 -12q-1 -6 -10 -8l-5 -1q-2 0 -4 2zM227 96v16h5v-24h-1q-1 -1 -2 -1l-1 1q-2 1 -3 1l-1 2q-1 2 -2 2l-2 4
q-1 2 -4 3l-1 2v-14h-6v24h5l1 -1q1 -1 2 -1l2 -3q2 -3 3 -5q4 -4 5 -6zM244 109v3h21v-3h-8v-21h-5v21h-8zM293 100l1 -2q2 -2 2 -4q0 -5 1 -6h-6v1l-1 1q0 1 -1 3h-11q-1 0 -1 -4q-1 0 -2 -1h-5l11 24h6q0 -4 2 -5q4 -6 4 -7zM323 100q4 0 4 -5q3 -5 -4 -7q0 -1 -5 -1
q-3 0 -12 3q2 1 2 3v2l9 -2h3h1q0 5 -6 6q0 -1 -1 0q0 1 -2 1q-4 0 -4 6q0 4 3 6h6q9 0 10 -1l-1 -4h-3l-2 1q-1 0 -1 1h-3q-3 0 -3 -2t3 -5q2 0 6 -2zM337 109v3h22v-3h-9v-21h-6v21h-7zM368 88v24h7v-24h-7zM427 93l-2 -5h-6q7 10 10 24h7l5 -12l3 -6q1 -3 4 -6h-7l-2 5
h-12zM176 103q-2 -3 0 -5q0 -7 6 -7q3 0 3 2q6 0 6 7q0 5 -3 7q0 2 -6 2q0 -1 -2 -1l-1 -2zM279 98q8 0 8 2l-2 1v4q-1 0 -1 1t-1 1zM432 107l-4 -9q8 0 8 2v1v2q0 2 -1 2t-2 1z" />
    <glyph glyph-name=".null" horiz-adv-x="0" 
 />
    <glyph glyph-name="nonmarkingreturn" horiz-adv-x="333" 
 />
    <glyph glyph-name="CR" unicode="&#xd;" horiz-adv-x="90" 
 />
    <glyph glyph-name="space" unicode=" " horiz-adv-x="483" 
 />
    <glyph glyph-name="exclam" unicode="!" horiz-adv-x="219" 
d="M91 679l7 -482h28l7 482h-42zM83 66v-66h54v66h-54z" />
    <glyph glyph-name="quotedbl" unicode="&#x22;" horiz-adv-x="400" 
d="M119 693l-36 -335h30l44 335h-38zM278 693l-36 -335h30l45 335h-39z" />
    <glyph glyph-name="numbersign" unicode="#" horiz-adv-x="897" 
d="M250 195l-47 -195h33l48 195h258l-46 -195h33l48 195h210v38h-201l53 213h176v39h-167l48 192h-36l-47 -192h-258l47 192h-35l-47 -192h-210v-39h201l-52 -213h-176v-38h167zM552 233h-259l52 213h259z" />
    <glyph glyph-name="dollar" unicode="$" horiz-adv-x="758" 
d="M576 39q99 32 99 140q0 47 -2 60q-6 30 -25 57q-34 45 -122 58q-37 5 -131 5v261q86 0 119 -4q74 -8 103 -47q20 -27 20 -84v-6h32v6q0 39 -3 56q-7 30 -23 52q-35 45 -119 58q-31 5 -129 5v147h-39v-147q-58 0 -87 -1q-60 -4 -90 -15q-96 -30 -96 -139q0 -41 3 -59
q5 -32 23 -58q34 -47 119 -58q46 -6 128 -4v-261q-73 -2 -115 4q-73 8 -101 46q-18 26 -18 83v7h-34v-7v-28q3 -25 3 -26q7 -31 24 -53q37 -47 116 -58q42 -6 125 -6v-133h39v133q59 0 89 2q54 2 92 14zM356 359h-26q-41 0 -63 1t-55.5 7t-51 18t-31 35.5t-13.5 57.5
q0 32 2 48q3 22 17 43q24 35 87 45q30 5 56 5q18 1 52 1h26v-261zM428 322q39 0 62.5 -1t56 -7.5t50.5 -18.5t31.5 -35.5t13.5 -56.5t-2 -48q-3 -25 -17 -44q-25 -33 -87 -45q-18 -3 -56 -5h-17.5h-19.5h-15h-33v261h33z" />
    <glyph glyph-name="percent" unicode="%" horiz-adv-x="1122" 
d="M83 517q0 -95 50 -135.5t151 -40.5t151 40.5t50 135.5q0 94 -50 134.5t-151 40.5t-151 -40.5t-50 -134.5zM878 678l-684 -678h50l684 678h-50zM452 517q0 -78 -40.5 -108.5t-127.5 -30.5t-127.5 30.5t-40.5 108.5q0 76 41 107t127 31t127 -30.5t41 -107.5zM637 161
q0 -94 50.5 -135t150.5 -41q101 0 151.5 41t50.5 135t-50.5 135.5t-151.5 41.5t-151 -41t-50 -136zM1006 161q0 -77 -40.5 -107.5t-127.5 -30.5t-127.5 30.5t-40.5 107.5q0 78 40.5 108t127.5 30t127.5 -30t40.5 -108z" />
    <glyph glyph-name="ampersand" unicode="&#x26;" horiz-adv-x="761" 
d="M558 186l10 18q24 48 30 82l1 8l-30 2l-2 -6q-27 -64 -34 -79q-97 95 -238 241q8 5 49 39q79 65 79 120q0 28 -22 53q-36 46 -100 46q-53 0 -89 -32t-36 -82q0 -36 24 -77q11 -21 41 -61q-70 -61 -114 -122.5t-44 -131.5t52 -130q60 -71 159 -71q28 0 57 9
q109 34 187 139l114 -113l27 25zM270 480q-27 42 -34 55q-20 35 -20 63q0 34 24 55.5t61 21.5q31 0 56.5 -17.5t25.5 -44.5q0 -42 -82 -109q-9 -7 -20 -14q-3 -4 -11 -10zM265 431l1 -1q4 -6 6 -8q49 -55 108 -112q38 -35 45 -43q60 -63 78 -79q5 -3 6 -6q2 0 3 -1
q-64 -102 -174 -137q-24 -8 -44 -8q-69 0 -119 50.5t-50 116.5q0 112 140 228z" />
    <glyph glyph-name="quotesingle" unicode="'" horiz-adv-x="239" 
d="M119 693l-36 -335h30l44 335h-38z" />
    <glyph glyph-name="parenleft" unicode="(" horiz-adv-x="419" 
d="M298 -95h39v14l-3 2q-215 166 -215 417t215 417l3 3v13h-39l-2 -1q-213 -165 -213 -432q0 -266 213 -432z" />
    <glyph glyph-name="parenright" unicode=")" horiz-adv-x="418" 
d="M83 -81v-14h38l2 1q212 166 212 432q0 268 -212 432l-2 1h-38v-13l3 -3q215 -167 215 -417t-215 -417z" />
    <glyph glyph-name="asterisk" unicode="*" horiz-adv-x="714" 
d="M328 427l-138 -217h42l125 204l127 -204h40l-138 217l246 -2v39l-246 -2l138 216h-40l-127 -204l-125 204h-42l138 -216l-245 2v-39z" />
    <glyph glyph-name="plus" unicode="+" horiz-adv-x="709" 
d="M337 318v-280h34v280h255v41h-255v278h-34v-278h-254v-41h254z" />
    <glyph glyph-name="comma" unicode="," horiz-adv-x="300" 
d="M173 61l-165 -329h40l170 329h-45z" />
    <glyph glyph-name="hyphen" unicode="-" horiz-adv-x="572" 
d="M83 363v-41h407v41h-407z" />
    <glyph glyph-name="period" unicode="." horiz-adv-x="220" 
d="M83 65v-65h54v65h-54z" />
    <glyph glyph-name="slash" unicode="/" horiz-adv-x="705" 
d="M581 772l-498 -867h44l496 867h-42z" />
    <glyph glyph-name="zero" unicode="0" horiz-adv-x="920" 
d="M149 116q50 -68 129 -92t183 -24t182 24t128 92q66 89 66 234q0 147 -66 236q-50 68 -128.5 92t-181.5 24q-104 0 -182.5 -24.5t-129.5 -91.5q-66 -86 -66 -236q0 -145 66 -234zM740 136q-72 -96 -279 -96q-210 0 -281 96q-61 83 -61 214q0 68 13 118.5t48 97.5
q70 96 281 96q208 0 279 -96q62 -83 62 -216q0 -131 -62 -214z" />
    <glyph glyph-name="one" unicode="1" horiz-adv-x="383" 
d="M266 661v-661h35v702h-35l-183 -117v-40z" />
    <glyph glyph-name="two" unicode="2" horiz-adv-x="830" 
d="M470 704h-106q-39 0 -66 -1.5t-63 -6.5t-60 -17t-46.5 -30t-33.5 -48t-11 -70v-24h37v8q0 23 1 34.5t6 27.5t15 30q28 37 100 51q36 6 123 6h104q168 0 213 -63q21 -32 21 -80q0 -45 -22 -77q-25 -35 -121 -61q-56 -17 -142 -33q-99 -23 -172 -56.5t-115 -93.5
q-49 -71 -49 -193v-7h664v41h-628q0 73 42 134q63 90 258 132q74 16 111 25q57 13 96 28q60 24 82 56q32 46 32 105q0 66 -28 105q-54 78 -242 78z" />
    <glyph glyph-name="three" unicode="3" horiz-adv-x="818" 
d="M736 200q0 114 -101 152q101 37 101 152q0 46 -4 66q-5 34 -27 63q-33 46 -112 62q-20 4 -66 8q-22 1 -63 1h-109q-46 0 -78 -2.5t-72 -12t-64 -27.5t-41 -51t-17 -80v-24h36v8q0 63 21 92q27 38 97 50q20 4 62 6q21 1 58 1h104q37 0 58.5 -1t54 -4.5t51 -12t38 -23
t28.5 -38t9 -55.5q0 -42 -2 -54q-5 -28 -19 -48q-29 -38 -98 -50q-19 -4 -62 -6h-58h-265v-40h265q37 0 58.5 -1t54 -4.5t51 -12t38 -22.5t28.5 -37.5t9 -55.5q0 -43 -2 -54q-5 -29 -19 -48q-29 -40 -98 -50q-30 -6 -62 -6q-20 -1 -58 -1h-104q-37 0 -58 1q-29 0 -62 5
q-69 12 -97 51q-21 29 -21 92v8h-36v-8q0 -28 1 -42.5t8 -36t21 -40.5q19 -25 47.5 -40.5t67 -21t62.5 -7t65 -1.5h109q41 0 63 1q25 1 66 7q77 15 112 62q31 43 31 103v27z" />
    <glyph glyph-name="four" unicode="4" horiz-adv-x="976" 
d="M665 206v-206h35v206h193v41h-193v224h-35v-224h-498l568 459h-60l-592 -478v-22h582z" />
    <glyph glyph-name="five" unicode="5" horiz-adv-x="814" 
d="M87 52q121 -53 311 -53q235 0 297 93q36 53 36 123q0 73 -32 117q-36 50 -141 65q-57 7 -160 7q-96 0 -267 -23v282h580v41h-615v-369l8 1q197 27 294 27q101 0 148 -7q97 -12 125 -51q25 -34 25 -90q0 -46 -18.5 -79t-45.5 -51t-69.5 -28.5t-79 -13.5t-85.5 -3
q-76 0 -162 13.5t-143 40.5l-10 5v-46z" />
    <glyph glyph-name="six" unicode="6" horiz-adv-x="860" 
d="M738 633q-19 25 -49 40.5t-69.5 21.5t-65.5 7.5t-66 1.5h-35q-107 0 -182.5 -24t-126.5 -94q-61 -85 -61 -243q0 -180 51 -248q69 -95 302 -95q48 0 83 2.5t77.5 9.5t72.5 22t56 38t39.5 60t13.5 86q0 79 -35 129q-63 86 -302 86q-44 0 -76 -1.5t-75 -9t-73 -20.5
t-57.5 -37.5t-41.5 -59.5v47q0 165 80 238t255 73q107 0 140 -4q85 -10 117 -53q22 -29 22 -92v-8h36v8q0 28 -1 42.5t-8 36t-21 40.5zM713 320q29 -40 29 -102q0 -41 -11.5 -72t-35.5 -49.5t-49.5 -30.5t-65.5 -17t-69.5 -6.5t-74.5 -1.5q-61 0 -107 6t-95 22.5t-76 54
t-27 93.5q0 54 33 100q55 75 277 75q219 0 272 -72z" />
    <glyph glyph-name="seven" unicode="7" horiz-adv-x="878" 
d="M736 665l-513 -665h47l526 683v22h-713v-40h653z" />
    <glyph glyph-name="eight" unicode="8" horiz-adv-x="844" 
d="M83 185q0 -38 12.5 -67.5t30.5 -48.5t48.5 -32.5t57 -20.5t65.5 -11t63.5 -4.5t61.5 -0.5q38 0 61.5 0.5t63.5 4t65.5 10.5t56.5 20.5t49 32.5t30.5 49t12.5 68q0 129 -138 167q61 18 96.5 60.5t35.5 105.5q0 38 -12 68.5t-29.5 49.5t-48 32.5t-54.5 20.5t-64 10.5t-63 4
t-62 0.5t-62.5 -0.5t-63 -4t-64 -10.5t-54.5 -20.5t-47.5 -33t-29.5 -49.5t-12 -68q0 -63 35.5 -105.5t97.5 -60.5q-139 -39 -139 -167zM508 372h-173q-52 0 -106.5 17.5t-79.5 50.5q-23 32 -23 78q0 48 23 80q32 43 123 58q47 7 150 7t149 -7q94 -16 124 -59q24 -32 24 -79
q0 -45 -24 -78q-25 -33 -79.5 -50.5t-107.5 -17.5zM726 185q0 -35 -13 -60.5t-40.5 -41t-52.5 -24.5t-67 -12.5t-65.5 -4.5t-65.5 -1t-65.5 1t-65.5 4.5t-67 12.5t-52 24.5t-40 41t-13 60.5q0 46 24 78q26 33 81.5 50t110.5 17h173q56 0 112.5 -16.5t81.5 -50.5
q24 -34 24 -78z" />
    <glyph glyph-name="nine" unicode="9" horiz-adv-x="860" 
d="M122 71q19 -25 49 -40.5t69.5 -21.5t65.5 -7.5t66 -1.5h35q107 0 183 23.5t126 93.5q62 86 62 244q0 177 -52 248q-70 95 -301 95q-41 0 -71.5 -1.5t-68 -6.5t-64.5 -14t-54.5 -25.5t-45 -39t-28 -56.5t-10.5 -76q0 -80 34 -128q63 -86 302 -86q62 0 107.5 3.5t105 24.5
t87.5 60q15 22 23 40v-48q0 -138 -56 -211q-72 -99 -279 -99q-112 0 -141 4q-85 10 -117 53q-21 28 -21 92v7h-36v-7q0 -29 1 -43.5t8 -35.5t21 -40zM147 383q-29 40 -29 102q0 36 9.5 64t24.5 46.5t40.5 31.5t48.5 20t58.5 10.5t61 4.5t64.5 1q47 0 84.5 -3t81 -14t72 -29
t47.5 -51.5t19 -78.5q0 -52 -33 -100q-56 -76 -277 -76q-219 0 -272 72z" />
    <glyph glyph-name="colon" unicode=":" horiz-adv-x="220" 
d="M83 436v-65h54v65h-54zM83 66v-66h54v66h-54z" />
    <glyph glyph-name="semicolon" unicode=";" horiz-adv-x="300" 
d="M160 434v-63h53v63h-53zM173 61l-165 -329h40l170 329h-45z" />
    <glyph glyph-name="less" unicode="&#x3c;" horiz-adv-x="611" 
d="M83 320l445 -285v48l-403 255l403 255v47l-445 -285v-35z" />
    <glyph glyph-name="equal" unicode="=" horiz-adv-x="716" 
d="M83 507v-40h550v40h-550zM83 234v-40h550v40h-550z" />
    <glyph glyph-name="greater" unicode="&#x3e;" horiz-adv-x="611" 
d="M83 83v-48l445 285v35l-445 285v-47l402 -255z" />
    <glyph glyph-name="question" unicode="?" horiz-adv-x="801" 
d="M335 366v-169h34v129l46 3q122 9 146 14q96 19 129 65q29 40 29 102t-30 104q-57 78 -280 78q-185 0 -321 -42l-5 -1v-43l9 2q149 43 317 43q209 0 253 -64q20 -31 20 -79q0 -46 -20 -74q-26 -38 -113 -52q-29 -5 -135 -11q-12 -1 -36.5 -2.5t-36.5 -1.5zM324 66v-66h55
v66h-55z" />
    <glyph glyph-name="at" unicode="@" horiz-adv-x="1120" 
d="M306 136q0 -45 17.5 -75.5t50 -45t66 -20t78.5 -5.5q72 0 137.5 26.5t103.5 77.5q11 -46 41 -75t80 -29q49 0 82.5 28t48.5 73.5t20.5 85t5.5 80.5q0 227 -119 331.5t-363 104.5q-123 0 -230 -37t-169 -120q-73 -99 -73 -276q0 -119 43 -255l2 -5h38l-3 9
q-44 127 -44 251q0 161 63 247q54 75 157 110.5t215 35.5q282 0 382 -139q67 -94 67 -257q0 -37 -4.5 -71t-16.5 -71.5t-38 -60.5t-63 -23q-93 0 -93 118v159q0 100 -48 137t-157 37q-100 0 -222 -35l-5 -1v-41l9 3q108 35 219 35q89 0 130 -24t41 -100v-48h-234
q-45 0 -76.5 -4t-66.5 -16.5t-53.5 -41t-18.5 -73.5zM739 124q-34 -47 -93 -71t-125 -24q-37 0 -65.5 4t-56.5 14.5t-43 33t-15 55.5q0 32 16 55q29 42 164 42h234v-81q0 -3 -2 -3l-3 -6q-1 -3 -2 -4q-6 -9 -9 -15z" />
    <glyph glyph-name="A" unicode="A" horiz-adv-x="955" 
d="M477 703l-394 -703h41l163 292l380 1l164 -293h42zM647 329l-339 -1l169 303z" />
    <glyph glyph-name="B" unicode="B" 
d="M83 703v-703h399q39 0 66 1.5t66 8t69 23t48 41.5q32 46 32 108q0 66 -30.5 116.5t-91.5 69.5q111 36 111 156q0 48 -16 82t-40 52.5t-63 29t-72.5 13t-80.5 2.5h-397zM490 386h-372v276h361q44 0 71 -1.5t62.5 -9t55.5 -21.5t34.5 -41t14.5 -65q0 -36 -13.5 -62
t-33.5 -40.5t-52 -22.5t-61 -10.5t-67 -2.5zM482 41h-364v304h398q73 0 118.5 -13t69.5 -59q23 -40 23 -91q0 -47 -23 -81q-30 -40 -99 -54q-31 -5 -63 -6h-60z" />
    <glyph glyph-name="C" unicode="C" horiz-adv-x="876" 
d="M762 133q-80 -92 -289 -92q-182 0 -268 72t-86 239q0 168 86 240t268 72q208 0 289 -93l5 -6l27 26l-4 5q-90 108 -317 108q-197 0 -293.5 -84t-96.5 -268q0 -183 96.5 -267t293.5 -84q227 0 317 107l4 5l-27 27z" />
    <glyph glyph-name="D" unicode="D" horiz-adv-x="860" 
d="M398 0q191 0 285.5 85.5t94.5 264.5q0 149 -65 236q-47 63 -133 90.5t-182 27.5h-315v-704h315zM686 561q56 -76 56 -209q0 -134 -56 -209q-76 -103 -288 -103h-280v624h280q212 0 288 -103z" />
    <glyph glyph-name="E" unicode="E" horiz-adv-x="797" 
d="M83 0h630v41h-595v304h454v41h-454v276h596v41h-631v-703z" />
    <glyph glyph-name="F" unicode="F" horiz-adv-x="797" 
d="M83 0h35v345h454v41h-454v276h596v41h-631v-703z" />
    <glyph glyph-name="G" unicode="G" horiz-adv-x="876" 
d="M794 386h-473v-41h434v-219q-80 -85 -282 -85q-182 0 -268 72t-86 239q0 168 86 240t268 72q208 0 289 -93l5 -6l27 26l-4 5q-90 108 -317 108q-197 0 -293.5 -84t-96.5 -267q0 -184 96 -268t294 -84q227 0 317 107l4 5v273z" />
    <glyph glyph-name="H" unicode="H" 
d="M728 704v-318h-610v318h-35v-704h35v345h610v-345h35v704h-35z" />
    <glyph glyph-name="I" unicode="I" horiz-adv-x="200" 
d="M83 0h35v704h-35v-704z" />
    <glyph glyph-name="J" unicode="J" horiz-adv-x="784" 
d="M120 229h-37l2 -9q61 -220 296 -220q133 0 214 71q106 94 106 357v276h-35v-276q0 -244 -96 -329q-70 -61 -188 -61q-105 0 -169 45.5t-91 140.5z" />
    <glyph glyph-name="K" unicode="K" 
d="M690 704l-572 -306l-1 306h-34v-704h35l-1 351l569 -351h63l-604 374l617 330h-72z" />
    <glyph glyph-name="L" unicode="L" horiz-adv-x="795" 
d="M83 0h630v41h-595v663h-35v-704z" />
    <glyph glyph-name="M" unicode="M" horiz-adv-x="913" 
d="M829 0v704h-29l-339 -544l-345 544h-33v-704h36v624l325 -508h32l318 512v-628h35z" />
    <glyph glyph-name="N" unicode="N" 
d="M728 704v-649l-615 649h-30v-704h35l1 650l612 -650h32v704h-35z" />
    <glyph glyph-name="O" unicode="O" horiz-adv-x="944" 
d="M83 351q0 -185 95.5 -269t294.5 -84q196 0 292 84.5t96 268.5q0 186 -95 269.5t-293 83.5q-197 0 -293.5 -84.5t-96.5 -268.5zM826 351q0 -166 -86 -239.5t-267 -73.5q-183 0 -268.5 72.5t-85.5 240.5t85.5 240.5t268.5 72.5t268 -72t85 -241z" />
    <glyph glyph-name="P" unicode="P" horiz-adv-x="835" 
d="M480 317q48 0 80.5 2.5t72 12.5t63 28t40 52t16.5 82v31q0 48 -16.5 82t-40.5 52.5t-63 29t-72 13t-80 2.5h-397v-704h36l-1 317h362zM479 663q44 0 70.5 -1.5t62.5 -9t56 -21.5t34.5 -41t14.5 -66q0 -45 -2 -57q-3 -27 -20 -51q-28 -40 -96 -52q-21 -4 -62 -6
q-21 -1 -58 -1h-361v306h361z" />
    <glyph glyph-name="Q" unicode="Q" horiz-adv-x="948" 
d="M866 -41l-108 118q20 16 39 40q64 81 64 234q0 186 -95 269.5t-293 83.5q-197 0 -293.5 -84.5t-96.5 -268.5q0 -185 95.5 -269t294.5 -84q160 0 255 58l87 -97h51zM701 85q-85 -47 -228 -47q-183 0 -268.5 72.5t-85.5 240.5t85.5 240.5t268.5 72.5t268 -72t85 -241
q0 -175 -93 -246l-212 233h-51z" />
    <glyph glyph-name="R" unicode="R" horiz-adv-x="835" 
d="M119 0l-1 317h293l287 -317h51l-287 317q81 -2 131 6q91 13 129 66q30 41 30 105v31q0 48 -16.5 82t-40.5 52.5t-63 29t-72 13t-80 2.5h-397v-704h36zM118 663h361q44 0 70.5 -1.5t62.5 -9t56 -21.5t34.5 -41t14.5 -66q0 -45 -2 -57q-3 -27 -20 -51q-28 -40 -96 -52
q-21 -4 -62 -6q-21 -1 -58 -1h-361v306z" />
    <glyph glyph-name="S" unicode="S" horiz-adv-x="824" 
d="M469 0q46 0 78 2t72 12t64 27.5t41 51t17 80.5q0 45 -3 66q-7 37 -28 63q-35 45 -111 61q-51 9 -130 9h-112q-37 0 -58.5 1t-53.5 4.5t-51 12t-38 22.5t-28 37.5t-9 55.5q0 45 1 54q6 30 20 48q27 38 97 50q20 4 62 6q21 1 58 1h104q37 0 57 -1q42 -2 63 -6
q70 -12 97 -50q22 -30 22 -92v-8h35v8q0 27 -1.5 42.5t-8 36.5t-20.5 39q-33 46 -112 62q-27 5 -66 7q-23 2 -63 2h-110q-47 0 -78.5 -2t-71.5 -12t-64 -27.5t-40.5 -51t-16.5 -80.5q0 -50 3 -66q5 -36 27 -63q23 -32 71.5 -49t81.5 -19t88 -2h113q36 0 58 -1t53.5 -4.5
t51 -12.5t38.5 -23t28 -37.5t9 -54.5q0 -43 -2 -54q-3 -25 -20 -48q-28 -39 -97 -51q-33 -5 -61 -5q-21 -1 -58 -1h-105q-37 0 -58 1q-30 0 -62 6q-68 10 -97 50q-21 28 -21 92v8h-36v-8q0 -29 1 -43.5t8 -35.5t21 -40q36 -46 112 -62q41 -6 66 -7q22 -1 63 -1h110z" />
    <glyph glyph-name="T" unicode="T" horiz-adv-x="851" 
d="M408 663l-1 -663h36v663h325v41h-685v-41h325z" />
    <glyph glyph-name="U" unicode="U" horiz-adv-x="806" 
d="M723 704h-35v-276q0 -243 -98 -329q-69 -61 -188 -61q-118 0 -188 61q-96 85 -96 329v276h-35v-276q0 -69 6.5 -124.5t27 -114.5t54 -98.5t92.5 -65t138 -25.5q80 0 139.5 25t93.5 64.5t55 98t27.5 115t6.5 125.5v276z" />
    <glyph glyph-name="V" unicode="V" horiz-adv-x="979" 
d="M125 704h-42l397 -710l30 -1l386 711h-38l-363 -666z" />
    <glyph glyph-name="W" unicode="W" horiz-adv-x="1160" 
d="M1040 704l-225 -650l-219 650h-33l-217 -650l-226 650h-37l248 -709l4 -1q3 0 8 -0.5t7 -0.5h10l219 660l221 -660h5q4 0 10 0.5t9 0.5l6 1l247 709h-37z" />
    <glyph glyph-name="X" unicode="X" horiz-adv-x="852" 
d="M770 704h-44l-299 -327l-300 327h-44l320 -353l-320 -351h46l298 324l295 -324h48l-319 351z" />
    <glyph glyph-name="Y" unicode="Y" horiz-adv-x="857" 
d="M411 0h34v344l330 360h-48l-297 -324l-299 324h-48l328 -359v-345z" />
    <glyph glyph-name="Z" unicode="Z" horiz-adv-x="797" 
d="M714 668v36h-631v-42l578 3l-578 -629v-36h630v41h-577z" />
    <glyph glyph-name="bracketleft" unicode="[" horiz-adv-x="466" 
d="M83 770v-865h300v40h-267v786h267v39h-300z" />
    <glyph glyph-name="backslash" unicode="\" horiz-adv-x="705" 
d="M83 772l496 -867h44l-498 867h-42z" />
    <glyph glyph-name="bracketright" unicode="]" horiz-adv-x="466" 
d="M83 -56v-39h300v865h-300v-41h267v-785h-267z" />
    <glyph glyph-name="asciicircum" unicode="^" horiz-adv-x="558" 
d="M83 260v-4v-8h37l152 384l166 -384h38v8l-1 4l-184 418h-40z" />
    <glyph glyph-name="underscore" unicode="_" horiz-adv-x="1011" 
d="M83 2v-42h846v42h-846z" />
    <glyph glyph-name="grave" unicode="`" horiz-adv-x="412" 
d="M83 886l210 -127h36v13l-194 126h-52v-12z" />
    <glyph glyph-name="a" unicode="a" horiz-adv-x="955" 
d="M477 703l-394 -703h41l163 292l380 1l164 -293h42zM647 329l-339 -1l169 303z" />
    <glyph glyph-name="b" unicode="b" 
d="M83 703v-703h399q39 0 66 1.5t66 8t69 23t48 41.5q32 46 32 108q0 66 -30.5 116.5t-91.5 69.5q111 36 111 156q0 48 -16 82t-40 52.5t-63 29t-72.5 13t-80.5 2.5h-397zM490 386h-372v276h361q44 0 71 -1.5t62.5 -9t55.5 -21.5t34.5 -41t14.5 -65q0 -36 -13.5 -62
t-33.5 -40.5t-52 -22.5t-61 -10.5t-67 -2.5zM482 41h-364v304h398q73 0 118.5 -13t69.5 -59q23 -40 23 -91q0 -47 -23 -81q-30 -40 -99 -54q-31 -5 -63 -6h-60z" />
    <glyph glyph-name="c" unicode="c" horiz-adv-x="876" 
d="M762 133q-80 -92 -289 -92q-182 0 -268 72t-86 239q0 168 86 240t268 72q208 0 289 -93l5 -6l27 26l-4 5q-90 108 -317 108q-197 0 -293.5 -84t-96.5 -268q0 -183 96.5 -267t293.5 -84q227 0 317 107l4 5l-27 27z" />
    <glyph glyph-name="d" unicode="d" horiz-adv-x="860" 
d="M398 0q191 0 285.5 85.5t94.5 264.5q0 149 -65 236q-47 63 -133 90.5t-182 27.5h-315v-704h315zM686 561q56 -76 56 -209q0 -134 -56 -209q-76 -103 -288 -103h-280v624h280q212 0 288 -103z" />
    <glyph glyph-name="e" unicode="e" horiz-adv-x="797" 
d="M83 0h630v41h-595v304h454v41h-454v276h596v41h-631v-703z" />
    <glyph glyph-name="f" unicode="f" horiz-adv-x="797" 
d="M83 0h35v345h454v41h-454v276h596v41h-631v-703z" />
    <glyph glyph-name="g" unicode="g" horiz-adv-x="876" 
d="M794 386h-473v-41h434v-219q-80 -85 -282 -85q-182 0 -268 72t-86 239q0 168 86 240t268 72q208 0 289 -93l5 -6l27 26l-4 5q-90 108 -317 108q-197 0 -293.5 -84t-96.5 -267q0 -184 96 -268t294 -84q227 0 317 107l4 5v273z" />
    <glyph glyph-name="h" unicode="h" 
d="M728 704v-318h-610v318h-35v-704h35v345h610v-345h35v704h-35z" />
    <glyph glyph-name="i" unicode="i" horiz-adv-x="200" 
d="M83 0h35v704h-35v-704z" />
    <glyph glyph-name="j" unicode="j" horiz-adv-x="784" 
d="M120 229h-37l2 -9q61 -220 296 -220q133 0 214 71q106 94 106 357v276h-35v-276q0 -244 -96 -329q-70 -61 -188 -61q-105 0 -169 45.5t-91 140.5z" />
    <glyph glyph-name="k" unicode="k" 
d="M690 704l-572 -306l-1 306h-34v-704h35l-1 351l569 -351h63l-604 374l617 330h-72z" />
    <glyph glyph-name="l" unicode="l" horiz-adv-x="795" 
d="M83 0h630v41h-595v663h-35v-704z" />
    <glyph glyph-name="m" unicode="m" horiz-adv-x="913" 
d="M829 0v704h-29l-339 -544l-345 544h-33v-704h36v624l325 -508h32l318 512v-628h35z" />
    <glyph glyph-name="n" unicode="n" 
d="M728 704v-649l-615 649h-30v-704h35l1 650l612 -650h32v704h-35z" />
    <glyph glyph-name="o" unicode="o" horiz-adv-x="944" 
d="M83 351q0 -185 95.5 -269t294.5 -84q196 0 292 84.5t96 268.5q0 186 -95 269.5t-293 83.5q-197 0 -293.5 -84.5t-96.5 -268.5zM826 351q0 -166 -86 -239.5t-267 -73.5q-183 0 -268.5 72.5t-85.5 240.5t85.5 240.5t268.5 72.5t268 -72t85 -241z" />
    <glyph glyph-name="p" unicode="p" horiz-adv-x="835" 
d="M480 317q48 0 80.5 2.5t72 12.5t63 28t40 52t16.5 82v31q0 48 -16.5 82t-40.5 52.5t-63 29t-72 13t-80 2.5h-397v-704h36l-1 317h362zM479 663q44 0 70.5 -1.5t62.5 -9t56 -21.5t34.5 -41t14.5 -66q0 -45 -2 -57q-3 -27 -20 -51q-28 -40 -96 -52q-21 -4 -62 -6
q-21 -1 -58 -1h-361v306h361z" />
    <glyph glyph-name="q" unicode="q" horiz-adv-x="948" 
d="M866 -41l-108 118q20 16 39 40q64 81 64 234q0 186 -95 269.5t-293 83.5q-197 0 -293.5 -84.5t-96.5 -268.5q0 -185 95.5 -269t294.5 -84q160 0 255 58l87 -97h51zM701 85q-85 -47 -228 -47q-183 0 -268.5 72.5t-85.5 240.5t85.5 240.5t268.5 72.5t268 -72t85 -241
q0 -175 -93 -246l-212 233h-51z" />
    <glyph glyph-name="r" unicode="r" horiz-adv-x="835" 
d="M119 0l-1 317h293l287 -317h51l-287 317q81 -2 131 6q91 13 129 66q30 41 30 105v31q0 48 -16.5 82t-40.5 52.5t-63 29t-72 13t-80 2.5h-397v-704h36zM118 663h361q44 0 70.5 -1.5t62.5 -9t56 -21.5t34.5 -41t14.5 -66q0 -45 -2 -57q-3 -27 -20 -51q-28 -40 -96 -52
q-21 -4 -62 -6q-21 -1 -58 -1h-361v306z" />
    <glyph glyph-name="s" unicode="s" horiz-adv-x="824" 
d="M469 0q46 0 78 2t72 12t64 27.5t41 51t17 80.5q0 45 -3 66q-7 37 -28 63q-35 45 -111 61q-51 9 -130 9h-112q-37 0 -58.5 1t-53.5 4.5t-51 12t-38 22.5t-28 37.5t-9 55.5q0 45 1 54q6 30 20 48q27 38 97 50q20 4 62 6q21 1 58 1h104q37 0 57 -1q42 -2 63 -6
q70 -12 97 -50q22 -30 22 -92v-8h35v8q0 27 -1.5 42.5t-8 36.5t-20.5 39q-33 46 -112 62q-27 5 -66 7q-23 2 -63 2h-110q-47 0 -78.5 -2t-71.5 -12t-64 -27.5t-40.5 -51t-16.5 -80.5q0 -50 3 -66q5 -36 27 -63q23 -32 71.5 -49t81.5 -19t88 -2h113q36 0 58 -1t53.5 -4.5
t51 -12.5t38.5 -23t28 -37.5t9 -54.5q0 -43 -2 -54q-3 -25 -20 -48q-28 -39 -97 -51q-33 -5 -61 -5q-21 -1 -58 -1h-105q-37 0 -58 1q-30 0 -62 6q-68 10 -97 50q-21 28 -21 92v8h-36v-8q0 -29 1 -43.5t8 -35.5t21 -40q36 -46 112 -62q41 -6 66 -7q22 -1 63 -1h110z" />
    <glyph glyph-name="t" unicode="t" horiz-adv-x="851" 
d="M408 663l-1 -663h36v663h325v41h-685v-41h325z" />
    <glyph glyph-name="u" unicode="u" horiz-adv-x="806" 
d="M723 704h-35v-276q0 -243 -98 -329q-69 -61 -188 -61q-118 0 -188 61q-96 85 -96 329v276h-35v-276q0 -69 6.5 -124.5t27 -114.5t54 -98.5t92.5 -65t138 -25.5q80 0 139.5 25t93.5 64.5t55 98t27.5 115t6.5 125.5v276z" />
    <glyph glyph-name="v" unicode="v" horiz-adv-x="979" 
d="M125 704h-42l397 -710l30 -1l386 711h-38l-363 -666z" />
    <glyph glyph-name="w" unicode="w" horiz-adv-x="1160" 
d="M1040 704l-225 -650l-219 650h-33l-217 -650l-226 650h-37l248 -709l4 -1q3 0 8 -0.5t7 -0.5h10l219 660l221 -660h5q4 0 10 0.5t9 0.5l6 1l247 709h-37z" />
    <glyph glyph-name="x" unicode="x" horiz-adv-x="852" 
d="M770 704h-44l-299 -327l-300 327h-44l320 -353l-320 -351h46l298 324l295 -324h48l-319 351z" />
    <glyph glyph-name="y" unicode="y" horiz-adv-x="857" 
d="M411 0h34v344l330 360h-48l-297 -324l-299 324h-48l328 -359v-345z" />
    <glyph glyph-name="z" unicode="z" horiz-adv-x="797" 
d="M714 668v36h-631v-42l578 3l-578 -629v-36h630v41h-577z" />
    <glyph glyph-name="braceleft" unicode="{" horiz-adv-x="717" 
d="M323 -47q26 -37 68.5 -48t101.5 -11q74 0 136 11l6 2v40l-9 -2q-54 -12 -138 -12q-103 0 -135 43q-20 28 -25 70q-2 26 -2 78q0 55 -1 79q-4 42 -16 66q-23 51 -94 69q70 18 95 69q12 24 15 66q1 12 1 80q0 51 2 77q5 42 25 69q33 44 135 44q77 0 138 -12l9 -2v40l-6 1
q-60 12 -136 12q-39 0 -64 -2.5t-56.5 -16.5t-49.5 -41q-24 -32 -29 -84q-1 -10 -1 -87v-37q0 -51 -11 -82q-16 -42 -60 -57.5t-109 -18.5h-23h-7v-35l30 -1q35 -2 56.5 -5.5t48 -11.5t42.5 -25t24 -42q9 -31 9 -73v-37q0 -78 1 -88q5 -52 29 -85z" />
    <glyph glyph-name="bar" unicode="|" horiz-adv-x="203" 
d="M83 800v-919h37v919h-37z" />
    <glyph glyph-name="braceright" unicode="}" horiz-adv-x="717" 
d="M89 -95q61 -11 135 -11q59 0 100.5 11t69.5 48q23 33 28 85q3 22 3 88v37q0 49 7 73q7 25 24 42t43.5 25t48 11.5t55.5 5.5l32 1v35h-8h-24q-143 6 -168 76q-10 28 -10 82v37q0 65 -3 87q-5 54 -28 84q-19 27 -50 41t-56 16.5t-64 2.5q-76 0 -135 -12l-6 -1v-40l9 2
q60 12 136 12q104 0 137 -44q19 -27 24 -69q1 -9 1 -77q0 -56 2 -80q3 -40 15 -66q23 -51 95 -69q-72 -18 -95 -69q-12 -24 -15 -66q-2 -24 -2 -79q0 -69 -1 -77q-5 -42 -24 -71q-33 -43 -137 -43q-82 0 -136 12l-9 2v-40z" />
    <glyph glyph-name="asciitilde" unicode="~" horiz-adv-x="635" 
d="M369 311q32 -19 65 -19q61 0 107 70q3 4 5 8l3 6q3 4 3 6v40h-14l-2 -3q-15 -25 -27 -40t-32.5 -29t-42.5 -14q-23 0 -54 17q-14 7 -27 18q-3 2 -29 20q-25 19 -39.5 28.5t-38.5 19.5t-46 10q-61 0 -107 -70l-4 -8q-2 -2 -4 -6q-2 -3 -2 -6v-40h14l1 3q15 25 27 40
t32.5 29t42.5 14q39 0 111 -55q34 -25 58 -39z" />
    <glyph glyph-name="cent" unicode="&#xa2;" horiz-adv-x="661" 
d="M373 131v414q129 -6 175 -63l6 -7l24 25l-3 6q-58 72 -202 76v177h-40v-177q-126 -4 -188 -63.5t-62 -179.5q0 -121 61.5 -181t188.5 -64v-153h40v153q143 4 202 77l3 5l-24 26l-6 -7q-47 -58 -175 -64zM333 545v-414q-112 5 -163 52.5t-51 154.5t51 154.5t163 52.5z" />
    <glyph glyph-name="sterling" unicode="&#xa3;" horiz-adv-x="904" 
d="M83 31v-31h738v41h-569v274h475v41h-475q0 73 5 112q9 72 37 109q57 76 234 76q62 0 135 -13.5t127 -36.5l10 -4v45l-4 2q-123 47 -267 47q-89 0 -155 -17.5t-106 -71.5q-37 -49 -47 -125q-5 -41 -5 -123h-133v-41h133v-274z" />
    <glyph glyph-name="yen" unicode="&#xa5;" horiz-adv-x="905" 
d="M437 140v-140h35v140h286v39h-286v111h286v39h-261l325 349h-51l-316 -343l-321 343h-51l328 -349h-263v-39h289v-111h-289v-39h289z" />
    <glyph glyph-name="dieresis" unicode="&#xa8;" horiz-adv-x="434" 
d="M83 836v-59h55v59h-55zM296 836v-59h55v59h-55z" />
    <glyph glyph-name="copyright" unicode="&#xa9;" horiz-adv-x="1016" 
d="M157 39q95 -130 352 -130q231 0 328 104t97 325q0 222 -96 324t-329 102q-256 0 -351 -130q-75 -102 -75 -296q0 -198 74 -299zM899 338q0 -207 -87 -298t-303 -91q-217 0 -303.5 91t-86.5 298q0 206 87 296.5t303 90.5t303 -90.5t87 -296.5zM293 338q0 -107 54.5 -157
t167.5 -50q101 0 182 45l4 3v45l-12 -7q-74 -46 -174 -46q-97 0 -141.5 38.5t-44.5 128.5q0 89 45 127t141 38q100 0 174 -45l12 -7v45l-4 1q-81 47 -182 47q-113 0 -167.5 -50t-54.5 -156z" />
    <glyph glyph-name="guillemotleft" unicode="&#xab;" horiz-adv-x="674" 
d="M83 337l222 -191h51l-231 201l229 200h-49l-222 -191v-19zM317 337l222 -191h52l-232 201l231 200h-51l-222 -191v-19z" />
    <glyph glyph-name="registered" unicode="&#xae;" horiz-adv-x="640" 
d="M83 471q0 -249 237 -249t237 249t-237 249t-237 -249zM524 471q0 -108 -46 -160t-158 -52t-158 52t-46 160t46 160t158 52t158 -52t46 -160zM215 587v-225h31v76h81l88 -76h37v12l-77 66q65 10 65 74q0 44 -23.5 58.5t-69.5 14.5h-132zM350 476h-104v72h99h26q13 0 20 -3
q16 -7 16 -31t-13.5 -31t-43.5 -7z" />
    <glyph glyph-name="macron" unicode="&#xaf;" horiz-adv-x="563" 
d="M83 836v-39h397v39h-397z" />
    <glyph glyph-name="degree" unicode="&#xb0;" horiz-adv-x="601" 
d="M83 504q0 -101 54.5 -146t163.5 -45t163 45t54 146t-54 146t-163 45t-163.5 -44.5t-54.5 -146.5zM483 504q0 -85 -43.5 -118.5t-138.5 -33.5q-96 0 -139.5 33.5t-43.5 118.5q0 86 43.5 119t139.5 33q95 0 138.5 -33t43.5 -119z" />
    <glyph glyph-name="acute" unicode="&#xb4;" horiz-adv-x="412" 
d="M83 772v-13h37l209 127v12h-51z" />
    <glyph glyph-name="cedilla" unicode="&#xb8;" horiz-adv-x="394" 
d="M272 20l-189 -207h49l179 207h-39z" />
    <glyph glyph-name="guillemotright" unicode="&#xbb;" horiz-adv-x="674" 
d="M314 347l-230 -201h50l222 192v18l-222 191h-51zM548 347l-230 -201h50l223 192v18l-223 191h-51z" />
    <glyph glyph-name="multiply" unicode="&#xd7;" horiz-adv-x="631" 
d="M83 140l19 -33l213 221l213 -221l20 34l-206 214l206 214l-19 33l-213 -220l-213 220l-20 -33l206 -215z" />
    <glyph glyph-name="divide" unicode="&#xf7;" horiz-adv-x="737" 
d="M341 620v-64h54v64h-54zM83 359v-40h571v40h-571zM341 122v-64h54v64h-54z" />
    <glyph glyph-name="circumflex" unicode="&#x2c6;" horiz-adv-x="542" 
d="M83 770v-12h36l152 108l153 -108h36v12l-170 132h-39z" />
    <glyph glyph-name="caron" unicode="&#x2c7;" horiz-adv-x="542" 
d="M83 881l168 -132h39l170 132v12h-36l-153 -110l-152 110h-36v-12z" />
    <glyph glyph-name="breve" unicode="&#x2d8;" horiz-adv-x="531" 
d="M84 860q29 -40 79.5 -66t101.5 -26t102 25.5t80 65.5l2 2v37h-15l-2 -3q-28 -40 -72.5 -63t-94.5 -23q-102 0 -167 87l-2 3h-13v-37z" />
    <glyph glyph-name="dotaccent" unicode="&#x2d9;" horiz-adv-x="223" 
d="M83 841v-64h57v64h-57z" />
    <glyph glyph-name="ring" unicode="&#x2da;" horiz-adv-x="526" 
d="M83 829q0 -79 47.5 -108t132.5 -29q41 0 71 5.5t56 19.5t39.5 42t13.5 70q0 78 -47 107t-133 29q-85 0 -132.5 -29t-47.5 -107zM407 829q0 -59 -35.5 -77.5t-108.5 -18.5q-71 0 -107.5 19t-36.5 77q0 56 37.5 75.5t106.5 19.5q71 0 107.5 -19t36.5 -76z" />
    <glyph glyph-name="ogonek" unicode="&#x2db;" horiz-adv-x="452" 
d="M137 -163q28 -9 88 -9q76 0 139 20l5 2v41l-10 -4q-59 -21 -134 -21q-36 0 -58 3q-38 5 -47 17q-4 6 -4 16q0 13 4 18q9 14 66 45q17 9 43.5 21.5t30.5 14.5l13 6l-33 18l-4 -2q-45 -20 -75 -35q-51 -27 -67 -49q-11 -15 -11 -37q0 -49 54 -65z" />
    <glyph glyph-name="tilde" unicode="&#x2dc;" horiz-adv-x="547" 
d="M317 797q28 -13 50 -13q46 0 85 55l6 9l3 6l3 6v38h-15l-2 -3q-5 -11 -16 -25q-8 -13 -18 -23q-21 -23 -48 -23q-25 0 -87 41q-40 25 -48 29q-28 14 -51 14q-46 0 -84 -54q0 -2 -6 -10l-4 -6q-2 -4 -2 -7v-37h13l2 3l17 24q5 9 18 24q22 22 47 22q26 0 89 -40
q23 -17 48 -30z" />
    <glyph glyph-name="hungarumlaut" unicode="&#x2dd;" horiz-adv-x="542" 
d="M83 771v-12h34l172 136v12h-45zM254 771v-12h33l173 136v12h-45z" />
    <glyph glyph-name="uni0326" unicode="&#x326;" horiz-adv-x="0" 
d="M-159 -216l-66 -85h39l45 55q30 38 44.5 67.5t14.5 68.5q0 8 -2 22v7h-36v-8q2 -41 -6 -68t-33 -59z" />
    <glyph glyph-name="endash" unicode="&#x2013;" horiz-adv-x="764" 
d="M83 363v-41h598v41h-598z" />
    <glyph glyph-name="emdash" unicode="&#x2014;" horiz-adv-x="1151" 
d="M83 363v-41h985v41h-985z" />
    <glyph glyph-name="quoteleft" unicode="&#x2018;" horiz-adv-x="388" 
d="M268 693l-185 -316h45l177 316h-37z" />
    <glyph glyph-name="quoteright" unicode="&#x2019;" horiz-adv-x="387" 
d="M260 693l-177 -316h37l185 316h-45z" />
    <glyph glyph-name="quotedblleft" unicode="&#x201c;" horiz-adv-x="582" 
d="M268 693l-185 -316h45l177 316h-37zM461 693l-184 -316h45l178 316h-39z" />
    <glyph glyph-name="quotedblright" unicode="&#x201d;" horiz-adv-x="581" 
d="M260 693l-177 -316h37l185 316h-45zM453 693l-176 -316h37l185 316h-46z" />
    <glyph glyph-name="ellipsis" unicode="&#x2026;" horiz-adv-x="728" 
d="M83 66v-66h54v66h-54zM334 66v-66h55v66h-55zM590 66v-66h55v66h-55z" />
    <glyph glyph-name="guilsinglleft" unicode="&#x2039;" horiz-adv-x="439" 
d="M83 337l222 -191h51l-231 201l229 200h-49l-222 -191v-19z" />
    <glyph glyph-name="guilsinglright" unicode="&#x203a;" horiz-adv-x="439" 
d="M314 347l-230 -201h50l222 192v18l-222 191h-51z" />
    <glyph glyph-name="Euro" unicode="&#x20ac;" horiz-adv-x="914" 
d="M185 237q20 -141 99.5 -197t236.5 -56q176 0 307 60l4 1v46l-11 -5q-122 -61 -300 -61q-141 0 -211 45t-90 167h497v39h-502q-3 21 -3 63q0 38 3 58h502v38h-497q20 125 89 171.5t212 46.5q162 0 299 -60l10 -5v45l-4 2q-151 58 -305 58q-97 0 -167 -21.5t-116 -84.5
q-42 -58 -53 -152h-102v-38h96q0 -10 -0.5 -29.5t-0.5 -28.5q0 -21 2 -63h-97v-39h102z" />
    <glyph glyph-name="trademark" unicode="&#x2122;" horiz-adv-x="1079" 
d="M266 647v-334h36v334h185v40h-404v-40h183zM546 687l1 -374h34l-1 318l174 -318h33l175 318v-318h35v374h-45l-182 -331l-180 331h-44z" />
    <glyph glyph-name="minus" unicode="&#x2212;" horiz-adv-x="730" 
d="M83 359v-41h564v41h-564z" />
    <glyph glyph-name="_FSHallmark" horiz-adv-x="930" 
d="M94 584v88h745v-88h-745zM832 417h-90q0 11 -6 20q-5 6 -17 16q-14 7 -21 9q-8 2 -21 2q-25 0 -42 -10q-20 -11 -20 -26q0 -27 17 -36q23 -13 40 -16l32 -7q5 -1 15 -3.5t12 -3.5q18 -6 27 -6q11 -1 22 -6l19 -9q18 -12 28 -25q8 -14 11 -39q2 -26 -10 -45
q-23 -40 -64 -53q-47 -14 -86 -14q-33 0 -60 8q-30 9 -52 25t-38 43q-14 22 -14 58l86 -1q0 -5 4 -13q1 -14 13 -24q11 -11 22 -15q15 -8 43 -8q30 0 47 10q18 9 18 23q0 25 -71 43q-60 14 -109 39q-45 23 -45 74q0 44 29 67q29 22 66 36q25 7 61 7q50 0 86 -16
q39 -19 59 -60q9 -27 9 -44zM192 286v-121h-98v371h313v-84h-215v-83h179v-83h-179zM399 210q0 19 13 32q11 12 32 12q19 0 35 -13q15 -12 15 -31q0 -18 -15 -31q-15 -12 -35 -12q-15 0 -31 14q-14 12 -14 29zM91 30v89h747v-89h-747z" />
    <glyph glyph-name="_Fontastica" horiz-adv-x="709" 
d="M163 277v-160h-94q-1 2 -1 5v552h414v-84h-319v-228h320v-85h-320zM223 431v85h321v158h94v-555h-415v84h321v228h-321zM544 63q-5 -3 -5 -9q0 -8 3 -12q4 -4 10 -4q8 0 16 4l4 -4q-6 -9 -20 -9q-9 0 -17 5q-7 9 -8 17q0 12 7 19q8 8 18 8t20 -8l-4 -7q-4 2 -6 5h-8h-2
q-3 0 -8 -5zM69 29v48h35v-9h-23v-12h21v-8h-21v-19h-12zM147 77q16 0 23 -13q8 -8 3 -22q-6 -13 -21 -13l-6 -3q-7 0 -10 3q-15 7 -15 21q0 12 7 20q7 7 19 7zM239 77v-48h-3h-3q-3 0 -8 5l-2 2q-2 3 -2 5q-3 3 -5 6q-8 10 -10 12v-30h-10v48h8q4 -1 6 -6q8 -8 11 -12
q5 -10 9 -15v33h9zM260 68v9h40v-9h-16v-39h-9v39h-15zM408 54q10 0 10 -10q2 -11 -9 -15h-8q-16 0 -23 7q1 1 1 2l1 1q0 2 1 3l15 -4h7l3 3q0 8 -11 9q-1 0 -2 1t-4 1q-8 1 -8 11q-2 8 7 12q6 2 10 2q13 0 20 -4l-5 -9q0 1 -3 1q-1 0 -2 1q-1 2 -3 2h-2h-7q-3 0 -3 -3
q-1 -1 3 -6q3 -1 7 -3t5 -2zM434 68v9h42v-9h-16v-39h-11v39h-15zM495 29v48h12v-48h-12zM608 77h12l10 -23l6 -13q2 -7 5 -12h-11l-4 10h-23l-4 -10h-11q11 20 20 48zM330 75h11l6 -11q3 -4 5 -11q0 -1 1.5 -3t2 -4.5t0.5 -4.5t1 -4t2 -4.5t1 -3.5h-10q-1 2 -1 5l-1 2
q-1 1 -1 3h-22q-2 -1 -2 -5v-2q-2 -1 -3 -3h-9zM161 52v1q0 7 -3 11t-12 4h-3q-7 -5 -9 -8q-5 -6 -1 -12q3 -11 14 -11q3 0 4 1q10 1 10 14zM327 48h16q-1 0 -1 2t-1 2l-1 2l-1 2q-1 2 -1 5l-1 1q-1 2 -2 3zM607 48h15q-2 1 -2 4q0 4 -2 4q-1 2 -1 5q-1 1 -2 3l-1 1z" />
    </font>
</defs>
</svg>
